<?xml version="1.0" encoding="iso-8859-1"?>
<!-- Generator: Adobe Illustrator 19.0.0, SVG Export Plug-In . SVG Version: 6.00 Build 0)  -->
<svg version="1.1" id="Layer_1" xmlns="http://www.w3.org/2000/svg" xmlns:xlink="http://www.w3.org/1999/xlink" x="0px" y="0px"
	 viewBox="0 0 509.287 509.287" style="enable-background:new 0 0 509.287 509.287;" xml:space="preserve">
<circle style="fill:#6EB1E1;" cx="254.644" cy="254.644" r="254.644"/>
<path style="fill:#646B79;" d="M85.446,232.265H65.102c-3.052,0-5.764-2.374-5.764-5.764V128.17c0-3.052,2.374-5.764,5.764-5.764
	h20.344v-4.408H65.102c-5.425,0-9.833,4.408-9.833,9.833v98.331c0,5.425,4.408,9.833,9.833,9.833h20.344V232.265z"/>
<path style="fill:#DEDEDF;" d="M67.475,129.187H47.131c-3.052,0-5.764,2.713-5.764,5.764v84.768c0,3.052,2.713,5.764,5.764,5.764
	h20.344c3.052,0,5.764-2.713,5.764-5.764v-84.768C73.24,131.899,70.527,129.187,67.475,129.187z"/>
<path style="fill:#646B79;" d="M423.841,232.265h20.344c3.052,0,5.764-2.374,5.764-5.764V128.17c0-3.052-2.374-5.764-5.764-5.764
	h-20.344v-4.408h20.344c5.425,0,9.833,4.408,9.833,9.833v98.331c0,5.425-4.408,9.833-9.833,9.833h-20.344L423.841,232.265
	L423.841,232.265z"/>
<path style="fill:#DEDEDF;" d="M441.812,129.187h20.344c3.052,0,5.764,2.713,5.764,5.764v84.768c0,3.052-2.713,5.764-5.764,5.764
	h-20.344c-3.052,0-5.764-2.713-5.764-5.764v-84.768C436.048,131.899,438.76,129.187,441.812,129.187z"/>
<g>
	<path style="fill:#4F5565;" d="M82.734,400.784v53.913c0,4.747,4.069,8.816,8.816,8.816h28.143c4.747,0,8.816-4.069,8.816-8.816
		v-53.913H82.734z"/>
	<path style="fill:#4F5565;" d="M380.779,400.784v53.913c0,4.747,4.069,8.816,8.816,8.816h28.143c4.747,0,8.816-4.069,8.816-8.816
		v-53.913H380.779z"/>
</g>
<path style="fill:#FBD303;" d="M407.905,79.682c-96.975-45.436-209.547-45.436-306.522,0c-12.546,5.764-20.683,18.649-20.683,32.551
	v232.604h347.889c0-73.918,0-158.686,0-232.604C428.588,98.331,420.45,85.785,407.905,79.682z"/>
<path style="fill:#4F5565;" d="M391.968,225.483H117.319c-6.103,0-11.189-5.086-11.189-11.189v-77.987
	c0-6.103,5.086-11.189,11.189-11.189h274.649c6.103,0,11.189,5.086,11.189,11.189v77.987
	C403.158,220.397,398.072,225.483,391.968,225.483z"/>
<path style="fill:#F8B517;" d="M300.419,79.004c-30.177-5.425-61.033-5.425-91.211,0c-3.391,0.678-5.764,3.73-5.764,7.121
	c0,7.799,0,15.258,0,23.057c0,3.391,2.713,6.103,6.103,6.103c30.517,0,60.694,0,91.211,0c3.391,0,6.103-2.713,6.103-6.103
	c0-7.799,0-15.258,0-23.057C306.183,82.734,303.47,79.682,300.419,79.004z"/>
<path style="fill:#414753;" d="M121.049,115.285h49.505c4.069,0,7.46-3.391,7.46-7.46v-14.58c0-4.069-3.391-7.46-7.46-7.46h-49.505
	c-4.069,0-7.46,3.391-7.46,7.46v14.58C113.589,111.894,116.98,115.285,121.049,115.285z"/>
<circle style="fill:#F0582F;" cx="131.899" cy="100.366" r="10.172"/>
<circle style="fill:#FBD303;" cx="159.703" cy="100.366" r="10.172"/>
<path style="fill:#414753;" d="M388.238,115.285h-49.505c-4.069,0-7.46-3.391-7.46-7.46v-14.58c0-4.069,3.391-7.46,7.46-7.46h49.505
	c4.069,0,7.46,3.391,7.46,7.46v14.58C395.698,111.894,392.307,115.285,388.238,115.285z"/>
<circle style="fill:#F0582F;" cx="377.388" cy="100.366" r="10.172"/>
<circle style="fill:#FBD303;" cx="349.584" cy="100.366" r="10.172"/>
<path style="fill:#DEDEDF;" d="M427.571,344.837H81.717c-6.781,0-12.546,5.764-12.546,12.546v37.637
	c0,6.781,5.764,12.546,12.546,12.546h345.515c6.781,0,12.546-5.764,12.546-12.546v-37.637
	C440.117,350.262,434.352,344.837,427.571,344.837z"/>
<path style="fill:#BDBDBE;" d="M427.571,393.664H81.717c-6.781,0-12.546-5.764-12.546-12.546v13.902
	c0,6.781,5.764,12.546,12.546,12.546h345.515c6.781,0,12.546-5.764,12.546-12.546v-13.902
	C440.117,387.899,434.352,393.664,427.571,393.664z"/>
<rect x="159.703" y="240.742" style="fill:#F8B517;" width="189.881" height="103.756"/>
<polygon style="fill:#FFE164;" points="327.544,280.074 181.743,280.074 159.703,240.742 349.584,240.742 "/>
<rect x="181.743" y="280.074" style="fill:#FBD303;" width="145.801" height="64.763"/>
<rect x="80.699" y="298.723" style="fill:#F8B517;" width="79.004" height="46.114"/>
<g>
	<circle style="fill:#FCFCFD;" cx="107.825" cy="321.78" r="14.919"/>
	<circle style="fill:#FCFCFD;" cx="136.985" cy="321.78" r="10.511"/>
</g>
<rect x="349.584" y="298.723" style="fill:#F8B517;" width="79.004" height="46.114"/>
<g>
	<rect x="80.699" y="276.683" style="fill:#FFE164;" width="79.004" height="22.04"/>
	<rect x="349.584" y="276.683" style="fill:#FFE164;" width="79.004" height="22.04"/>
</g>
<g>
	<circle style="fill:#FCFCFD;" cx="401.462" cy="321.78" r="14.919"/>
	<circle style="fill:#FCFCFD;" cx="372.302" cy="321.78" r="10.511"/>
</g>
<g>
	<path style="fill:#F8B517;" d="M304.827,296.689H204.461c-2.374,0-4.069,1.695-4.069,4.069s1.695,4.069,4.069,4.069h100.705
		c2.374,0,4.069-1.695,4.069-4.069S307.2,296.689,304.827,296.689z"/>
	<path style="fill:#F8B517;" d="M304.827,319.746H204.461c-2.374,0-4.069,1.695-4.069,4.069s1.695,4.069,4.069,4.069h100.705
		c2.374,0,4.069-1.695,4.069-4.069C308.895,321.78,307.2,319.746,304.827,319.746z"/>
</g>
<g>
</g>
<g>
</g>
<g>
</g>
<g>
</g>
<g>
</g>
<g>
</g>
<g>
</g>
<g>
</g>
<g>
</g>
<g>
</g>
<g>
</g>
<g>
</g>
<g>
</g>
<g>
</g>
<g>
</g>
</svg>
