<?xml version="1.0" encoding="utf-8"?>
<!-- Generator: Adobe Illustrator 21.0.2, SVG Export Plug-In . SVG Version: 6.00 Build 0)  -->
<svg version="1.1" id="Layer_1" xmlns="http://www.w3.org/2000/svg" xmlns:xlink="http://www.w3.org/1999/xlink" x="0px" y="0px"
	 viewBox="0 0 474.6 384.3" style="enable-background:new 0 0 474.6 384.3;" xml:space="preserve">
<style type="text/css">
	.st0{fill:#010101;}
	.st1{fill:#FCEA00;}
	.st2{fill:#FDEB01;}
	.st3{fill:#FFFFFF;}
	.st4{fill:#FFFFFF;stroke:#000000;stroke-width:8.5039;stroke-miterlimit:10;}
	.st5{fill:#060507;}
	.st6{fill:#A7A9AC;}
</style>
<g>
	<g>
		<path class="st0" d="M-634.3,550.3c-76.2,0-138.1,61.8-138.1,138.1s61.8,138.1,138.1,138.1c76.2,0,138.1-61.8,138.1-138.1
			S-558,550.3-634.3,550.3z M-634.3,811.5c-68.1,0-123.2-55.2-123.2-123.2s55.2-123.2,123.2-123.2S-511,620.3-511,688.3
			S-566.2,811.5-634.3,811.5z"/>
		<path class="st0" d="M-634.3,537.8c-83.1,0-150.5,67.4-150.5,150.5c0,83.1,67.4,150.5,150.5,150.5c83.1,0,150.5-67.4,150.5-150.5
			C-483.7,605.2-551.1,537.8-634.3,537.8z M-634.3,829.1c-77.8,0-140.8-63-140.8-140.8s63-140.8,140.8-140.8s140.8,63,140.8,140.8
			S-556.5,829.1-634.3,829.1z"/>
		<path class="st0" d="M-634.3,660.1c-15.6,0-28.2,12.6-28.2,28.2c0,15.6,12.6,28.2,28.2,28.2s28.2-12.6,28.2-28.2
			C-606.1,672.8-618.7,660.1-634.3,660.1z M-634.3,711.6c-12.9,0-23.3-10.4-23.3-23.3c0-12.9,10.4-23.3,23.3-23.3
			c12.9,0,23.3,10.4,23.3,23.3C-611,701.2-621.4,711.6-634.3,711.6z"/>
		<circle class="st0" cx="-634.3" cy="688.3" r="18.9"/>
		<path class="st0" d="M-634.3,622.7c-36.2,0-65.6,29.4-65.6,65.6c0,36.2,29.4,65.6,65.6,65.6c36.2,0,65.6-29.4,65.6-65.6
			C-568.7,652.1-598,622.7-634.3,622.7z M-608.8,636.1c4.1,0,7.5,3.4,7.5,7.5s-3.4,7.5-7.5,7.5s-7.5-3.4-7.5-7.5
			S-612.9,636.1-608.8,636.1z M-659.7,636.1c4.1,0,7.5,3.4,7.5,7.5s-3.4,7.5-7.5,7.5c-4.1,0-7.5-3.4-7.5-7.5
			S-663.9,636.1-659.7,636.1z M-685.9,695.8c-4.1,0-7.5-3.4-7.5-7.5c0-4.1,3.4-7.5,7.5-7.5s7.5,3.4,7.5,7.5
			S-681.8,695.8-685.9,695.8z M-659.7,740.6c-4.1,0-7.5-3.4-7.5-7.5c0-4.1,3.4-7.5,7.5-7.5c4.1,0,7.5,3.4,7.5,7.5
			C-652.2,737.2-655.6,740.6-659.7,740.6z M-608.8,740.6c-4.1,0-7.5-3.4-7.5-7.5c0-4.1,3.4-7.5,7.5-7.5s7.5,3.4,7.5,7.5
			C-601.3,737.2-604.7,740.6-608.8,740.6z M-634.3,725.9c-20.8,0-37.6-16.8-37.6-37.6c0-20.8,16.8-37.6,37.6-37.6
			s37.6,16.8,37.6,37.6C-596.7,709.1-613.5,725.9-634.3,725.9z M-582.6,695.8c-4.1,0-7.5-3.4-7.5-7.5c0-4.1,3.4-7.5,7.5-7.5
			s7.5,3.4,7.5,7.5S-578.4,695.8-582.6,695.8z"/>
		<path class="st0" d="M-550.5,604.5c-46.3-46.3-121.3-46.3-167.6,0c-46.3,46.3-46.3,121.3,0,167.6c46.3,46.3,121.3,46.3,167.6,0
			C-504.2,725.8-504.2,650.8-550.5,604.5z M-580.7,608.1c7.4-7.4,19.3-7.4,26.7,0c7.4,7.4,7.4,19.3,0,26.7c-7.4,7.4-19.3,7.4-26.7,0
			C-588.1,627.4-588.1,615.5-580.7,608.1z M-584.6,738c-27.4,27.4-71.9,27.4-99.4,0c-27.4-27.4-27.4-71.9,0-99.4
			c27.4-27.4,71.9-27.4,99.4,0C-557.1,666.1-557.1,710.6-584.6,738z M-634.3,574.9c10.4,0,18.9,8.4,18.9,18.9
			c0,10.4-8.4,18.9-18.9,18.9s-18.9-8.4-18.9-18.9S-644.7,574.9-634.3,574.9z M-714.5,608.1c7.4-7.4,19.3-7.4,26.7,0
			s7.4,19.3,0,26.7s-19.3,7.4-26.7,0C-721.8,627.4-721.9,615.5-714.5,608.1z M-747.7,688.3c0-10.4,8.4-18.9,18.9-18.9
			s18.9,8.4,18.9,18.9c0,10.4-8.4,18.9-18.9,18.9S-747.7,698.7-747.7,688.3z M-687.8,768.6c-7.4,7.4-19.3,7.4-26.7,0
			c-7.4-7.4-7.4-19.3,0-26.7s19.3-7.4,26.7,0S-680.4,761.2-687.8,768.6z M-634.3,801.8c-10.4,0-18.9-8.4-18.9-18.9
			s8.4-18.9,18.9-18.9s18.9,8.4,18.9,18.9S-623.8,801.8-634.3,801.8z M-554,768.6c-7.4,7.4-19.3,7.4-26.7,0
			c-7.4-7.4-7.4-19.3,0-26.7c7.4-7.4,19.3-7.4,26.7,0C-546.7,749.2-546.7,761.2-554,768.6z M-539.7,707.2
			c-10.4,0-18.9-8.4-18.9-18.9s8.4-18.9,18.9-18.9c10.4,0,18.9,8.4,18.9,18.9S-529.2,707.2-539.7,707.2z"/>
	</g>
	<g>
		<path class="st1" d="M-443.1,703.4l-16.5-33.4l-16.5,33.4c-0.3,0.7-0.9,1.1-1.7,1.2l-36.9,5.4l26.7,26c0.5,0.5,0.8,1.2,0.6,2
			l-6.3,36.7l33-17.3c0.6-0.3,1.4-0.3,2.1,0l33,17.3l-6.3-36.7c-0.1-0.7,0.1-1.5,0.6-2l26.7-26l-36.9-5.4
			C-442.1,704.5-442.7,704-443.1,703.4z"/>
		<path class="st0" d="M-495.8,779.4c-0.5,0-0.9-0.1-1.3-0.4c-0.7-0.5-1-1.3-0.9-2.1l6.7-39.3l-28.5-27.8c-0.6-0.6-0.8-1.4-0.6-2.2
			c0.3-0.8,0.9-1.4,1.8-1.5l39.4-5.7l17.6-35.7c0.4-0.7,1.1-1.2,2-1.2l0,0c0.8,0,1.6,0.5,2,1.2l17.6,35.7l39.4,5.7
			c0.8,0.1,1.5,0.7,1.8,1.5c0.3,0.8,0,1.7-0.6,2.2l-28.5,27.8l6.7,39.3c0.1,0.8-0.2,1.6-0.9,2.1c-0.7,0.5-1.6,0.6-2.3,0.2
			l-35.3-18.5l-35.3,18.5C-495.1,779.3-495.5,779.4-495.8,779.4z M-513.6,709.7l26.2,25.5c0.5,0.5,0.7,1.2,0.6,1.9l-6.2,36.1
			l32.4-17c0.6-0.3,1.4-0.3,2,0l32.4,17l-6.2-36.1c-0.1-0.7,0.1-1.4,0.6-1.9l26.2-25.5l-36.2-5.3c-0.7-0.1-1.3-0.5-1.6-1.2
			l-16.2-32.8l-16.2,32.8c-0.3,0.6-0.9,1.1-1.6,1.2L-513.6,709.7z"/>
	</g>
	<g>
		<path class="st1" d="M-794.7,703.3l-16.4-33.3l-16.4,33.3c-0.3,0.7-0.9,1.1-1.7,1.2l-36.7,5.3l26.6,25.9c0.5,0.5,0.8,1.2,0.6,2
			l-6.3,36.6l32.9-17.3c0.6-0.3,1.4-0.3,2.1,0l32.9,17.3l-6.3-36.6c-0.1-0.7,0.1-1.4,0.6-2l26.6-25.9l-36.7-5.3
			C-793.8,704.4-794.4,703.9-794.7,703.3z"/>
		<path class="st0" d="M-847.7,779.4c-0.5,0-0.9-0.1-1.3-0.4c-0.7-0.5-1-1.3-0.9-2.1l6.7-39.3l-28.5-27.8c-0.6-0.6-0.8-1.4-0.6-2.2
			c0.3-0.8,0.9-1.4,1.8-1.5l39.4-5.7l17.6-35.7c0.4-0.7,1.1-1.2,2-1.2l0,0c0.8,0,1.6,0.5,2,1.2l17.6,35.7l39.4,5.7
			c0.8,0.1,1.5,0.7,1.8,1.5c0.3,0.8,0,1.7-0.6,2.2l-28.5,27.8l6.7,39.3c0.1,0.8-0.2,1.6-0.9,2.1c-0.7,0.5-1.6,0.6-2.3,0.2
			l-35.3-18.5l-35.3,18.5C-847,779.3-847.3,779.4-847.7,779.4z M-865.4,709.7l26.2,25.5c0.5,0.5,0.7,1.2,0.6,1.9l-6.2,36.1l32.4-17
			c0.6-0.3,1.4-0.3,2,0l32.4,17l-6.2-36.1c-0.1-0.7,0.1-1.4,0.6-1.9l26.2-25.5l-36.2-5.3c-0.7-0.1-1.3-0.5-1.6-1.2l-16.2-32.8
			l-16.2,32.8c-0.3,0.6-0.9,1.1-1.6,1.2L-865.4,709.7z"/>
	</g>
	<g>
		<path class="st1" d="M-727.1,741l-25.8-52.3l-25.8,52.3c-0.5,1-1.5,1.7-2.6,1.9l-57.7,8.4l41.7,40.7c0.8,0.8,1.2,1.9,1,3.1
			l-9.9,57.5l51.6-27.1c1-0.5,2.2-0.5,3.2,0l51.6,27.1l-9.9-57.5c-0.2-1.1,0.2-2.3,1-3.1l41.7-40.7l-57.7-8.4
			C-725.6,742.7-726.6,742-727.1,741z"/>
		<path class="st0" d="M-809.8,860.6c-0.7,0-1.4-0.2-2-0.7c-1.1-0.8-1.6-2.1-1.4-3.4l10.6-61.7l-44.9-43.7c-0.9-0.9-1.3-2.3-0.9-3.5
			c0.4-1.2,1.5-2.1,2.8-2.3l62-9l27.7-56.2c0.6-1.2,1.8-1.9,3.1-1.9l0,0c1.3,0,2.5,0.7,3.1,1.9l27.7,56.2l62,9
			c1.3,0.2,2.4,1.1,2.8,2.3c0.4,1.2,0.1,2.6-0.9,3.5l-44.9,43.7l10.6,61.7c0.2,1.3-0.3,2.6-1.4,3.4c-1.1,0.8-2.5,0.9-3.6,0.3
			l-55.4-29.1l-55.4,29.1C-808.7,860.5-809.2,860.6-809.8,860.6z M-837.7,751.1l41.2,40.1c0.8,0.8,1.2,1.9,1,3l-9.7,56.7l50.9-26.8
			c1-0.5,2.2-0.5,3.2,0l50.9,26.8l-9.7-56.7c-0.2-1.1,0.2-2.2,1-3l41.2-40.1l-56.9-8.3c-1.1-0.2-2.1-0.9-2.6-1.9l-25.4-51.6
			l-25.4,51.6c-0.5,1-1.5,1.7-2.6,1.9L-837.7,751.1z"/>
	</g>
	<g>
		<path class="st1" d="M-494.6,741.3l-26-52.7l-26,52.7c-0.5,1-1.5,1.8-2.6,1.9l-58.1,8.4l42.1,41c0.8,0.8,1.2,2,1,3.1l-9.9,57.9
			l52-27.3c1-0.5,2.2-0.5,3.3,0l52,27.3l-9.9-57.9c-0.2-1.1,0.2-2.3,1-3.1l42.1-41l-58.1-8.4C-493.1,743.1-494.1,742.4-494.6,741.3z
			"/>
		<path class="st0" d="M-577.5,860.6c-0.7,0-1.4-0.2-2-0.7c-1.1-0.8-1.6-2.1-1.4-3.4l10.6-61.7l-44.9-43.7c-0.9-0.9-1.3-2.3-0.9-3.5
			c0.4-1.2,1.5-2.1,2.8-2.3l62-9l27.7-56.2c0.6-1.2,1.8-1.9,3.1-1.9l0,0c1.3,0,2.5,0.7,3.1,1.9l27.7,56.2l62,9
			c1.3,0.2,2.4,1.1,2.8,2.3c0.4,1.2,0.1,2.6-0.9,3.5l-44.9,43.7l10.6,61.7c0.2,1.3-0.3,2.6-1.4,3.4c-1.1,0.8-2.5,0.9-3.6,0.3
			l-55.4-29.1l-55.4,29.1C-576.4,860.5-576.9,860.6-577.5,860.6z M-605.4,751.1l41.2,40.1c0.8,0.8,1.2,1.9,1,3l-9.7,56.7l50.9-26.8
			c1-0.5,2.2-0.5,3.2,0L-468,851l-9.7-56.7c-0.2-1.1,0.2-2.2,1-3l41.2-40.1l-56.9-8.3c-1.1-0.2-2.1-0.9-2.6-1.9l-25.4-51.6
			l-25.4,51.6c-0.5,1-1.5,1.7-2.6,1.9L-605.4,751.1z"/>
	</g>
	<g>
		<path class="st2" d="M-597.8,760.7l-35.1-71.1l-35.1,71.1c-0.7,1.4-2,2.4-3.6,2.6l-78.5,11.4l56.8,55.4c1.1,1.1,1.6,2.7,1.4,4.2
			l-13.4,78.2l70.2-36.9c1.4-0.7,3-0.7,4.4,0l70.2,36.9l-13.4-78.2c-0.3-1.5,0.2-3.1,1.4-4.2l56.8-55.4l-78.5-11.4
			C-595.8,763.1-597.1,762.1-597.8,760.7z"/>
		<path class="st0" d="M-710.7,921.1c-1,0-1.9-0.3-2.7-0.9c-1.4-1-2.1-2.8-1.8-4.5L-701,833l-60.1-58.6c-1.2-1.2-1.7-3-1.2-4.7
			c0.5-1.7,2-2.9,3.7-3.1l83.1-12.1l37.2-75.3c0.8-1.6,2.4-2.6,4.1-2.6l0,0c1.7,0,3.3,1,4.1,2.6l37.1,75.3l83.1,12.1
			c1.7,0.3,3.2,1.5,3.7,3.1c0.5,1.7,0.1,3.5-1.2,4.7l-60.1,58.6l14.2,82.7c0.3,1.7-0.4,3.5-1.8,4.5c-1.4,1-3.3,1.2-4.8,0.3
			l-74.3-39.1l-74.3,39.1C-709.2,920.9-710,921.1-710.7,921.1z M-748.1,774.3l55.2,53.8c1.1,1.1,1.6,2.6,1.3,4.1l-13,75.9l68.2-35.9
			c1.3-0.7,2.9-0.7,4.3,0l68.2,35.9l-13-75.9c-0.3-1.5,0.2-3,1.3-4.1l55.2-53.8l-76.2-11.1c-1.5-0.2-2.8-1.2-3.5-2.5l-34.1-69.1
			l-34.1,69.1c-0.7,1.4-2,2.3-3.5,2.5L-748.1,774.3z"/>
	</g>
</g>
<g>
	<g>
		<circle cx="-507.2" cy="-342.1" r="150.5"/>
		
			<text transform="matrix(1 0 0 1 -593.7089 -299.3139)" class="st3" style="font-family:'SFUIDisplay-Medium'; font-size:164.4095px; letter-spacing:-2;">10</text>
	</g>
	<g>
		<path class="st1" d="M-314.9-327.4l-16.5-33.4l-16.5,33.4c-0.3,0.7-0.9,1.1-1.7,1.2l-36.8,5.3l26.6,26c0.5,0.5,0.8,1.2,0.6,2
			l-6.3,36.7l32.9-17.3c0.6-0.3,1.4-0.3,2.1,0l32.9,17.3l-6.3-36.7c-0.1-0.7,0.1-1.5,0.6-2l26.6-26l-36.8-5.4
			C-313.9-326.3-314.6-326.8-314.9-327.4z"/>
		<path class="st0" d="M-367.6-251.4c-0.5,0-0.9-0.1-1.3-0.4c-0.7-0.5-1-1.3-0.9-2.1l6.7-39.3l-28.5-27.8c-0.6-0.6-0.8-1.4-0.6-2.2
			c0.3-0.8,0.9-1.4,1.8-1.5l39.4-5.7l17.6-35.7c0.4-0.7,1.1-1.2,2-1.2l0,0c0.8,0,1.6,0.5,2,1.2l17.6,35.7l39.4,5.7
			c0.8,0.1,1.5,0.7,1.8,1.5c0.3,0.8,0,1.7-0.6,2.2l-28.5,27.8l6.7,39.3c0.1,0.8-0.2,1.6-0.9,2.1c-0.7,0.5-1.6,0.6-2.3,0.2
			l-35.3-18.5l-35.3,18.5C-366.9-251.5-367.2-251.4-367.6-251.4z M-385.3-321l26.2,25.5c0.5,0.5,0.7,1.2,0.6,1.9l-6.2,36.1l32.4-17
			c0.6-0.3,1.4-0.3,2,0l32.4,17l-6.2-36.1c-0.1-0.7,0.1-1.4,0.6-1.9l26.2-25.5l-36.2-5.3c-0.7-0.1-1.3-0.5-1.6-1.2l-16.2-32.8
			l-16.2,32.8c-0.3,0.6-0.9,1.1-1.6,1.2L-385.3-321z"/>
	</g>
	<g>
		<path class="st1" d="M-666.7-328.3l-16.5-33.5l-16.5,33.5c-0.3,0.7-1,1.1-1.7,1.2l-37,5.4l26.8,26.1c0.5,0.5,0.8,1.2,0.6,2
			l-6.3,36.8l33.1-17.4c0.6-0.3,1.4-0.3,2.1,0l33.1,17.4l-6.3-36.8c-0.1-0.7,0.1-1.5,0.6-2l26.8-26.1l-37-5.4
			C-665.8-327.1-666.4-327.6-666.7-328.3z"/>
		<path class="st0" d="M-719.4-251.4c-0.5,0-0.9-0.1-1.3-0.4c-0.7-0.5-1-1.3-0.9-2.1l6.7-39.3l-28.5-27.8c-0.6-0.6-0.8-1.4-0.6-2.2
			c0.3-0.8,0.9-1.4,1.8-1.5l39.4-5.7l17.6-35.7c0.4-0.7,1.1-1.2,2-1.2l0,0c0.8,0,1.6,0.5,2,1.2l17.6,35.7l39.4,5.7
			c0.8,0.1,1.5,0.7,1.8,1.5c0.3,0.8,0,1.7-0.6,2.2l-28.5,27.8l6.7,39.3c0.1,0.8-0.2,1.6-0.9,2.1c-0.7,0.5-1.6,0.6-2.3,0.2
			l-35.3-18.5l-35.3,18.5C-718.7-251.5-719-251.4-719.4-251.4z M-737.1-321l26.2,25.5c0.5,0.5,0.7,1.2,0.6,1.9l-6.2,36.1l32.4-17
			c0.6-0.3,1.4-0.3,2,0l32.4,17l-6.2-36.1c-0.1-0.7,0.1-1.4,0.6-1.9l26.2-25.5l-36.2-5.3c-0.7-0.1-1.3-0.5-1.6-1.2l-16.2-32.8
			l-16.2,32.8c-0.3,0.6-0.9,1.1-1.6,1.2L-737.1-321z"/>
	</g>
	<g>
		<path class="st1" d="M-599-289.5l-25.4-51.6l-25.4,51.6c-0.5,1-1.5,1.7-2.6,1.9l-56.9,8.3l41.2,40.1c0.8,0.8,1.2,1.9,1,3
			l-9.7,56.7l50.9-26.8c1-0.5,2.2-0.5,3.2,0l50.9,26.8l-9.7-56.7c-0.2-1.1,0.2-2.2,1-3l41.2-40.1l-56.9-8.3
			C-597.5-287.8-598.5-288.5-599-289.5z"/>
		<path class="st0" d="M-681.5-170.1c-0.7,0-1.4-0.2-2-0.7c-1.1-0.8-1.6-2.1-1.4-3.4l10.6-61.7l-44.9-43.7c-0.9-0.9-1.3-2.3-0.9-3.5
			c0.4-1.2,1.5-2.1,2.8-2.3l62-9l27.7-56.2c0.6-1.2,1.8-1.9,3.1-1.9l0,0c1.3,0,2.5,0.7,3.1,1.9l27.7,56.2l62,9
			c1.3,0.2,2.4,1.1,2.8,2.3c0.4,1.2,0.1,2.6-0.9,3.5l-44.9,43.7l10.6,61.7c0.2,1.3-0.3,2.6-1.4,3.4c-1.1,0.8-2.5,0.9-3.6,0.3
			l-55.4-29.1l-55.4,29.1C-680.4-170.2-681-170.1-681.5-170.1z M-709.4-279.6l41.2,40.1c0.8,0.8,1.2,1.9,1,3l-9.7,56.7l50.9-26.8
			c1-0.5,2.2-0.5,3.2,0l50.9,26.8l-9.7-56.7c-0.2-1.1,0.2-2.2,1-3l41.2-40.1l-56.9-8.3c-1.1-0.2-2.1-0.9-2.6-1.9l-25.4-51.6
			l-25.4,51.6c-0.5,1-1.5,1.7-2.6,1.9L-709.4-279.6z"/>
	</g>
	<g>
		<path class="st1" d="M-366.1-289.8l-25.8-52.3l-25.8,52.3c-0.5,1-1.5,1.7-2.6,1.9l-57.7,8.4l41.8,40.7c0.8,0.8,1.2,2,1,3.1
			l-9.9,57.5l51.6-27.1c1-0.5,2.2-0.5,3.2,0l51.6,27.1l-9.9-57.5c-0.2-1.1,0.2-2.3,1-3.1l41.8-40.7l-57.7-8.4
			C-364.6-288-365.6-288.7-366.1-289.8z"/>
		<path class="st0" d="M-449.2-170.1c-0.7,0-1.4-0.2-2-0.7c-1.1-0.8-1.6-2.1-1.4-3.4l10.6-61.7l-44.9-43.7c-0.9-0.9-1.3-2.3-0.9-3.5
			c0.4-1.2,1.5-2.1,2.8-2.3l62-9l27.7-56.2c0.6-1.2,1.8-1.9,3.1-1.9l0,0c1.3,0,2.5,0.7,3.1,1.9l27.7,56.2l62,9
			c1.3,0.2,2.4,1.1,2.8,2.3c0.4,1.2,0.1,2.6-0.9,3.5l-44.9,43.7l10.6,61.7c0.2,1.3-0.3,2.6-1.4,3.4c-1.1,0.8-2.5,0.9-3.6,0.3
			l-55.4-29.1l-55.4,29.1C-448.1-170.2-448.7-170.1-449.2-170.1z M-477.1-279.6l41.2,40.1c0.8,0.8,1.2,1.9,1,3l-9.7,56.7l50.9-26.8
			c1-0.5,2.2-0.5,3.2,0l50.9,26.8l-9.7-56.7c-0.2-1.1,0.2-2.2,1-3l41.2-40.1l-56.9-8.3c-1.1-0.2-2.1-0.9-2.6-1.9l-25.4-51.6
			l-25.4,51.6c-0.5,1-1.5,1.7-2.6,1.9L-477.1-279.6z"/>
	</g>
	<g>
		<path class="st2" d="M-471.9-270.1l-34.6-70l-34.6,70c-0.7,1.4-2,2.3-3.5,2.5l-77.3,11.2l55.9,54.5c1.1,1.1,1.6,2.6,1.3,4.1
			l-13.2,76.9l69.1-36.3c1.4-0.7,3-0.7,4.3,0l69.1,36.3l-13.2-76.9c-0.3-1.5,0.2-3,1.3-4.1l55.9-54.5l-77.3-11.2
			C-469.9-267.8-471.2-268.7-471.9-270.1z"/>
		<path class="st0" d="M-582.4-109.7c-1,0-1.9-0.3-2.7-0.9c-1.4-1-2.1-2.8-1.8-4.5l14.2-82.7l-60.1-58.6c-1.2-1.2-1.7-3-1.2-4.7
			c0.5-1.7,2-2.9,3.7-3.1l83.1-12.1l37.2-75.3c0.8-1.6,2.4-2.6,4.1-2.6l0,0c1.7,0,3.3,1,4.1,2.6l37.1,75.3l83.1,12.1
			c1.7,0.3,3.2,1.5,3.7,3.1c0.5,1.7,0.1,3.5-1.2,4.7l-60.1,58.6L-425-115c0.3,1.7-0.4,3.5-1.8,4.5c-1.4,1-3.3,1.2-4.8,0.3
			l-74.3-39.1l-74.3,39.1C-580.9-109.9-581.7-109.7-582.4-109.7z M-619.8-256.5l55.2,53.8c1.1,1.1,1.6,2.6,1.3,4.1l-13,75.9
			l68.2-35.9c1.3-0.7,2.9-0.7,4.3,0l68.2,35.9l-13-75.9c-0.3-1.5,0.2-3,1.3-4.1l55.2-53.8l-76.2-11.1c-1.5-0.2-2.8-1.2-3.5-2.5
			l-34.1-69.1l-34.1,69.1c-0.7,1.4-2,2.3-3.5,2.5L-619.8-256.5z"/>
	</g>
	
		<text transform="matrix(1 0 0 1 -567.643 -199.0216)" style="font-family:'SFUIDisplay-Medium'; font-size:52.2896px; letter-spacing:-3;">100%</text>
</g>
<g>
	<g>
		<g>
			<path class="st0" d="M-681.4,290.4c-7,0-13,2.5-17.9,7.4c-4.9,4.9-7.4,10.9-7.4,17.9c0,7,2.5,13,7.4,17.9
				c4.9,4.9,10.9,7.4,17.9,7.4c6.9,0,12.9-2.5,17.8-7.4c5-4.9,7.5-10.9,7.5-17.9c0-7-2.5-13-7.5-17.9
				C-668.6,292.8-674.5,290.4-681.4,290.4z"/>
			<path class="st0" d="M-687,237c0-7.7-2.8-14.3-8.3-19.9c-5.5-5.5-12.1-8.3-19.8-8.3c-7.7,0-14.3,2.8-19.8,8.3
				c-5.5,5.5-8.3,12.1-8.3,19.9c0,7.7,2.8,14.3,8.3,19.8c5.5,5.5,12.1,8.3,19.8,8.3c7.7,0,14.3-2.8,19.8-8.3
				C-689.8,251.3-687,244.7-687,237z"/>
			<path class="st0" d="M-524,172.4c3.9,0,7.2-1.4,9.9-4.1c2.8-2.8,4.1-6.1,4.1-9.9c0-3.9-1.4-7.2-4.1-9.9c-2.8-2.8-6.1-4.1-9.9-4.1
				c-3.9,0-7.2,1.4-9.9,4.1c-2.8,2.8-4.1,6.1-4.1,9.9s1.4,7.2,4.1,9.9C-531.2,171-527.9,172.4-524,172.4z"/>
			<path class="st0" d="M-681.4,127.4c-8.5,0-15.8,3-21.9,9c-6,6-9,13.3-9,21.9c0,8.6,3,15.8,9,21.9c6,6,13.3,9,21.9,9
				c8.5,0,15.8-3,21.9-9c6-6,9-13.3,9-21.9c0-8.5-3-15.8-9-21.9C-665.6,130.4-672.9,127.4-681.4,127.4z"/>
			<path class="st0" d="M-478.4,225c-3.3-3.3-7.3-4.9-11.9-4.9c-4.7,0-8.7,1.6-11.9,4.9c-3.3,3.3-4.9,7.3-4.9,11.9
				c0,4.7,1.6,8.7,4.9,11.9c3.3,3.3,7.3,4.9,11.9,4.9c4.7,0,8.7-1.6,11.9-4.9c3.3-3.3,4.9-7.3,4.9-11.9
				C-473.5,232.3-475.1,228.3-478.4,225z"/>
			<path class="st0" d="M-524,296c-5.4,0-10,1.9-13.9,5.8c-3.9,3.9-5.8,8.5-5.8,13.9c0,5.4,1.9,10,5.8,13.9
				c3.9,3.9,8.5,5.8,13.9,5.8c5.4,0,10-1.9,13.9-5.8c3.9-3.9,5.8-8.5,5.8-13.9c0-5.4-1.9-10-5.8-13.9C-514,297.9-518.7,296-524,296z
				"/>
			<path class="st0" d="M-602.7,326.9c-6.2,0-11.5,2.2-15.9,6.6c-4.4,4.4-6.6,9.7-6.6,15.9c0,6.2,2.2,11.5,6.6,15.9
				c4.4,4.4,9.7,6.6,15.9,6.6c6.2,0,11.5-2.2,15.9-6.6c4.4-4.4,6.6-9.7,6.6-15.9c0-6.2-2.2-11.5-6.6-15.9
				C-591.2,329.1-596.5,326.9-602.7,326.9z"/>
			<path class="st0" d="M-602.7,90.9c-9.4,0-17.3,3.3-23.9,9.8c-6.6,6.6-9.8,14.5-9.8,23.9c0,9.4,3.3,17.3,9.8,23.9
				c6.6,6.6,14.5,9.8,23.9,9.8c9.4,0,17.3-3.3,23.9-9.8c6.6-6.6,9.8-14.5,9.8-23.9c0-9.4-3.3-17.3-9.8-23.9
				C-585.4,94.1-593.4,90.9-602.7,90.9z"/>
		</g>
	</g>
	
		<text transform="matrix(1 0 0 1 -647.8862 294.009)" style="font-family:'SFUIDisplay-Medium'; font-size:149.0116px; letter-spacing:13;">5</text>
	<g>
		<path class="st2" d="M-778.1,333.8l-14.5-29.4l-14.5,29.4c-0.3,0.6-0.8,1-1.5,1.1l-32.4,4.7l23.5,22.9c0.5,0.4,0.7,1.1,0.6,1.7
			l-5.5,32.3l29-15.2c0.6-0.3,1.2-0.3,1.8,0l29,15.2l-5.5-32.3c-0.1-0.6,0.1-1.3,0.6-1.7l23.5-22.9l-32.4-4.7
			C-777.3,334.8-777.8,334.4-778.1,333.8z"/>
		<path class="st0" d="M-824.2,401.3c-0.4,0-0.8-0.1-1.1-0.4c-0.6-0.4-0.9-1.1-0.8-1.9l5.9-34.3l-24.9-24.3c-0.5-0.5-0.7-1.3-0.5-2
			c0.2-0.7,0.8-1.2,1.5-1.3l34.5-5l15.4-31.2c0.3-0.7,1-1.1,1.7-1.1l0,0c0.7,0,1.4,0.4,1.7,1.1l15.4,31.2l34.5,5
			c0.7,0.1,1.3,0.6,1.5,1.3c0.2,0.7,0,1.4-0.5,2l-24.9,24.3l5.9,34.3c0.1,0.7-0.2,1.4-0.8,1.9c-0.6,0.4-1.4,0.5-2,0.1l-30.8-16.2
			l-30.8,16.2C-823.5,401.2-823.8,401.3-824.2,401.3z M-839.7,340.4l22.9,22.3c0.4,0.4,0.7,1.1,0.5,1.7l-5.4,31.5l28.3-14.9
			c0.6-0.3,1.2-0.3,1.8,0l28.3,14.9l-5.4-31.5c-0.1-0.6,0.1-1.2,0.5-1.7l22.9-22.3l-31.6-4.6c-0.6-0.1-1.2-0.5-1.4-1l-14.2-28.7
			l-14.2,28.7c-0.3,0.6-0.8,1-1.4,1L-839.7,340.4z"/>
	</g>
	<g>
		<path class="st2" d="M-722.9,329.1l-19.3-39.2l-19.3,39.2c-0.4,0.8-1.1,1.3-2,1.4l-43.2,6.3l31.3,30.5c0.6,0.6,0.9,1.5,0.7,2.3
			l-7.4,43.1l38.7-20.3c0.8-0.4,1.7-0.4,2.4,0l38.7,20.3l-7.4-43.1c-0.1-0.8,0.1-1.7,0.7-2.3l31.3-30.5l-43.2-6.3
			C-721.8,330.4-722.5,329.8-722.9,329.1z"/>
		<path class="st0" d="M-785.4,419.1c-0.5,0-1.1-0.2-1.5-0.5c-0.8-0.6-1.2-1.6-1-2.5l8-46.4l-33.7-32.8c-0.7-0.7-1-1.7-0.7-2.6
			c0.3-0.9,1.1-1.6,2.1-1.8l46.6-6.8l20.8-42.2c0.4-0.9,1.3-1.4,2.3-1.4l0,0c1,0,1.9,0.6,2.3,1.4l20.8,42.2l46.6,6.8
			c1,0.1,1.8,0.8,2.1,1.8c0.3,0.9,0.1,2-0.7,2.6l-33.7,32.9l8,46.4c0.2,1-0.2,1.9-1,2.5c-0.8,0.6-1.8,0.7-2.7,0.2l-41.7-21.9
			l-41.7,21.9C-784.6,419-785,419.1-785.4,419.1z M-806.3,336.8l30.9,30.2c0.6,0.6,0.9,1.4,0.7,2.3l-7.3,42.6l38.2-20.1
			c0.7-0.4,1.6-0.4,2.4,0l38.2,20.1l-7.3-42.6c-0.1-0.8,0.1-1.7,0.7-2.3l30.9-30.2l-42.7-6.2c-0.8-0.1-1.6-0.6-1.9-1.4l-19.1-38.7
			l-19.1,38.7c-0.4,0.8-1.1,1.3-1.9,1.4L-806.3,336.8z"/>
	</g>
	<g>
		<path class="st2" d="M-646.7,323.6l-24.5-49.7l-24.5,49.7c-0.5,1-1.4,1.7-2.5,1.8l-54.9,8l39.7,38.7c0.8,0.8,1.1,1.9,0.9,2.9
			l-9.4,54.6l49.1-25.8c1-0.5,2.1-0.5,3.1,0l49.1,25.8L-630,375c-0.2-1.1,0.2-2.2,0.9-2.9l39.7-38.7l-54.9-8
			C-645.3,325.2-646.3,324.6-646.7,323.6z"/>
		<path class="st0" d="M-725.9,437.6c-0.7,0-1.4-0.2-1.9-0.6c-1-0.7-1.5-2-1.3-3.2l10.1-58.9l-42.8-41.7c-0.9-0.9-1.2-2.2-0.8-3.3
			c0.4-1.2,1.4-2,2.6-2.2l59.1-8.6l26.5-53.6c0.5-1.1,1.7-1.8,2.9-1.8l0,0c1.2,0,2.4,0.7,2.9,1.8L-642,319l59.2,8.6
			c1.2,0.2,2.3,1,2.6,2.2c0.4,1.2,0.1,2.5-0.8,3.3l-42.8,41.7l10.1,58.9c0.2,1.2-0.3,2.5-1.3,3.2c-1,0.7-2.3,0.8-3.4,0.2l-52.9-27.8
			l-52.9,27.8C-724.8,437.5-725.3,437.6-725.9,437.6z M-752.5,333.1l39.3,38.3c0.8,0.7,1.1,1.8,0.9,2.9l-9.3,54.1l48.6-25.5
			c1-0.5,2.1-0.5,3,0l48.6,25.5l-9.3-54.1c-0.2-1.1,0.2-2.1,0.9-2.9l39.3-38.3l-54.3-7.9c-1.1-0.2-2-0.8-2.5-1.8l-24.3-49.2
			l-24.3,49.2c-0.5,1-1.4,1.6-2.5,1.8L-752.5,333.1z"/>
	</g>
	<g>
		<path class="st2" d="M-555.5,318.8l-28.5-57.8l-28.5,57.8c-0.6,1.1-1.6,1.9-2.9,2.1l-63.7,9.3l46.1,45c0.9,0.9,1.3,2.2,1.1,3.4
			l-10.9,63.5l57-30c1.1-0.6,2.4-0.6,3.6,0l57,30l-10.9-63.5c-0.2-1.2,0.2-2.5,1.1-3.4l46.1-45l-63.7-9.3
			C-553.8,320.8-554.9,320-555.5,318.8z"/>
		<path class="st0" d="M-647.9,452.7c-0.8,0-1.6-0.2-2.3-0.7c-1.2-0.9-1.8-2.3-1.5-3.8l11.9-69.2l-50.3-49c-1-1-1.4-2.5-1-3.9
			c0.5-1.4,1.7-2.4,3.1-2.6l69.4-10.1l31.1-62.9c0.6-1.3,2-2.1,3.4-2.1l0,0c1.5,0,2.8,0.8,3.4,2.1l31.1,62.9l69.4,10.1
			c1.4,0.2,2.6,1.2,3.1,2.6c0.4,1.4,0.1,2.9-1,3.9l-50.3,49l11.9,69.2c0.2,1.4-0.3,2.9-1.5,3.8c-1.2,0.9-2.8,1-4,0.3l-62.1-32.7
			l-62.1,32.7C-646.6,452.6-647.3,452.7-647.9,452.7z M-679.1,330l46.1,45c0.9,0.9,1.3,2.2,1.1,3.4l-10.9,63.5l57-30
			c1.1-0.6,2.4-0.6,3.6,0l57,30l-10.9-63.5c-0.2-1.2,0.2-2.5,1.1-3.4l46.1-45l-63.7-9.3c-1.3-0.2-2.3-1-2.9-2.1l-28.5-57.8
			l-28.5,57.8c-0.6,1.1-1.6,1.9-2.9,2.1L-679.1,330z"/>
	</g>
	<g>
		<path class="st2" d="M-465.3,312.4l-34.1-69.1l-34.1,69.1c-0.7,1.4-2,2.3-3.5,2.5l-76.2,11.1l55.2,53.8c1.1,1.1,1.6,2.6,1.3,4.1
			l-13,75.9l68.2-35.9c1.3-0.7,2.9-0.7,4.3,0l68.2,35.9l-13-75.9c-0.3-1.5,0.2-3,1.3-4.1l55.2-53.8l-76.2-11.1
			C-463.3,314.7-464.6,313.8-465.3,312.4z"/>
		<path class="st0" d="M-575.8,472.8c-1,0-1.9-0.3-2.7-0.9c-1.4-1-2.1-2.8-1.8-4.5l14.2-82.7l-60.1-58.6c-1.2-1.2-1.7-3-1.2-4.7
			c0.5-1.7,2-2.9,3.7-3.1l83.1-12.1l37.2-75.3c0.8-1.6,2.4-2.6,4.1-2.6l0,0c1.7,0,3.3,1,4.1,2.6l37.1,75.3l83.1,12.1
			c1.7,0.3,3.2,1.5,3.7,3.1c0.5,1.7,0.1,3.5-1.2,4.7l-60.1,58.6l14.2,82.7c0.3,1.7-0.4,3.5-1.8,4.5c-1.4,1-3.3,1.2-4.8,0.3
			l-74.3-39.1l-74.3,39.1C-574.3,472.6-575.1,472.8-575.8,472.8z M-613.2,326l55.2,53.8c1.1,1.1,1.6,2.6,1.3,4.1l-13,75.9l68.2-35.9
			c1.3-0.7,2.9-0.7,4.3,0l68.2,35.9l-13-75.9c-0.3-1.5,0.2-3,1.3-4.1l55.2-53.8l-76.2-11.1c-1.5-0.2-2.8-1.2-3.5-2.5l-34.1-69.1
			l-34.1,69.1c-0.7,1.4-2,2.3-3.5,2.5L-613.2,326z"/>
	</g>
</g>
<g>
	<g>
		<g>
			<g>
				<rect x="53.1" y="-585.7" class="st0" width="106.5" height="134.8"/>
			</g>
		</g>
		<g>
			<g>
				<rect x="-72.8" y="-585.7" class="st0" width="106.5" height="134.8"/>
			</g>
		</g>
		<g>
			<g>
				<path class="st0" d="M126.4-693.9c2.9-5.3,4.5-11.3,4.5-17.8c0-20.5-16.7-37.2-37.2-37.2c-15.2,0-30.7,7.8-42.6,21.5
					c-2.9,3.4-5.6,7-7.8,10.8c-2.3-3.8-4.9-7.4-7.8-10.8C23.7-741,8.2-748.8-7-748.8c-20.5,0-37.2,16.7-37.2,37.2
					c0,6.4,1.6,12.5,4.5,17.8h-50.6v88.7h124v-88.7h19.4v88.7h124v-88.7H126.4z M-7-693.9c-9.8,0-17.8-8-17.8-17.8s8-17.8,17.8-17.8
					c17.6,0,34.4,18,39.3,35.5L-7-693.9L-7-693.9z M93.8-693.9H54.5c4.9-17.5,21.6-35.5,39.3-35.5c9.8,0,17.8,8,17.8,17.8
					C111.5-701.9,103.6-693.9,93.8-693.9z"/>
			</g>
		</g>
	</g>
	<circle class="st4" cx="211.4" cy="-488.1" r="67.2"/>
	<circle class="st4" cx="73.6" cy="-487.7" r="96.8"/>
	<g>
		<path class="st0" d="M8.7-518H13v26H8.7c-2.4,0-4.3-1.9-4.3-4.3v-17.3C4.3-516,6.3-518,8.7-518z M138.5-518h-4.3v26h4.3
			c2.4,0,4.3-1.9,4.3-4.3v-17.3C142.8-516,140.9-518,138.5-518z M125.5-526.6v77.9c0,4.8-3.9,8.7-8.7,8.7v8.7c0,4.8-3.9,8.7-8.7,8.7
			h-8.7c-4.8,0-8.7-3.9-8.7-8.7v-8.7H56.3v8.7c0,4.8-3.9,8.7-8.7,8.7H39c-4.8,0-8.7-3.9-8.7-8.7v-8.7c-4.8,0-8.7-3.9-8.7-8.7v-77.9
			c0-14.3,11.6-26,26-26h51.9C113.9-552.6,125.5-541,125.5-526.6z M56.3-535.3h34.6v-8.7H56.3V-535.3z M47.6-457.4
			c0-4.8-3.9-8.7-8.7-8.7c-4.8,0-8.7,3.9-8.7,8.7c0,4.8,3.9,8.7,8.7,8.7C43.7-448.7,47.6-452.6,47.6-457.4z M116.9-457.4
			c0-4.8-3.9-8.7-8.7-8.7c-4.8,0-8.7,3.9-8.7,8.7c0,4.8,3.9,8.7,8.7,8.7C113-448.7,116.9-452.6,116.9-457.4z M116.9-526.6H30.3v51.9
			h86.5V-526.6L116.9-526.6z"/>
	</g>
	<g>
		<path class="st2" d="M-32.3-526.2l-34.1-69.1l-34.1,69.1c-0.7,1.4-2,2.3-3.5,2.5l-76.2,11.1l55.2,53.8c1.1,1.1,1.6,2.6,1.3,4.1
			l-13,75.9l68.2-35.9c1.3-0.7,2.9-0.7,4.3,0L4-378.8l-13-75.9c-0.3-1.5,0.2-3,1.3-4.1l55.2-53.8l-76.2-11.1
			C-30.3-523.9-31.6-524.9-32.3-526.2z"/>
		<path class="st0" d="M-142.8-365.9c-1,0-1.9-0.3-2.7-0.9c-1.4-1-2.1-2.8-1.8-4.5l14.2-82.7l-60.1-58.6c-1.2-1.2-1.7-3-1.2-4.7
			c0.5-1.7,2-2.9,3.7-3.1l83.1-12.1l37.2-75.3c0.8-1.6,2.4-2.6,4.1-2.6l0,0c1.7,0,3.3,1,4.1,2.6l37.1,75.3L58-520.4
			c1.7,0.3,3.2,1.5,3.7,3.1c0.5,1.7,0.1,3.5-1.2,4.7L0.4-454l14.2,82.7c0.3,1.7-0.4,3.5-1.8,4.5c-1.4,1-3.3,1.2-4.8,0.3l-74.3-39.1
			l-74.3,39.1C-141.4-366-142.1-365.9-142.8-365.9z M-180.2-512.6l55.2,53.8c1.1,1.1,1.6,2.6,1.3,4.1l-13,75.9l68.2-35.9
			c1.3-0.7,2.9-0.7,4.3,0L4-378.9l-13-75.9c-0.3-1.5,0.2-3,1.3-4.1l55.2-53.8l-76.2-11.1c-1.5-0.2-2.8-1.2-3.5-2.5l-34.1-69.1
			l-34.1,69.1c-0.7,1.4-2,2.3-3.5,2.5L-180.2-512.6z"/>
	</g>
	<g>
		<g>
			<path class="st5" d="M230.5-515.9h-18h-0.9h-1.4h-0.9h-16.5c-5.7,0-10.3,3.6-10.3,8v38.3c0,4.3,4.4,7.9,9.9,8l-9.9,20.5h7.7
				l9.9-20.5h23l9.9,20.5h7.7l-9.9-20.5c5.5-0.2,9.9-3.7,9.9-8v-38.3C240.8-512.3,236.1-515.9,230.5-515.9z M201.3-513.2h9.3
				l0.1,0.2l0.1-0.2h11.1v4.1h-20.6V-513.2z M196.6-468.2c-2.4,0-4.4-2-4.4-4.4c0-2.4,2-4.4,4.4-4.4s4.4,2,4.4,4.4
				C201-470.2,199-468.2,196.6-468.2z M227.3-468.2c-2.4,0-4.4-2-4.4-4.4c0-2.4,2-4.4,4.4-4.4c2.4,0,4.4,2,4.4,4.4
				C231.7-470.2,229.7-468.2,227.3-468.2z M233.7-493.6c0,4.4-4.6,8-10.3,8h-23.7c-5.7,0-10.3-3.6-10.3-8v-4c0-4.4,4.6-8,10.3-8
				h23.7c5.7,0,10.3,3.6,10.3,8V-493.6z"/>
			<polygon class="st5" points="200.3,-528.2 200.3,-519 222.9,-519 222.9,-528.2 219.8,-528.2 219.8,-521.5 203.4,-521.5 
				203.4,-528.2 			"/>
			<path class="st5" d="M185.7-525.5c0.2-0.1,23.5-13.4,51.7,0.1c0.4,0.2,0.8,0.3,1.2,0.3c0.8,0,1.6-0.3,2-0.9
				c0.7-0.9,0.3-2-0.8-2.5c-30.9-14.8-56.7-0.1-57,0.1c-1,0.6-1.2,1.7-0.5,2.5C183.2-525.1,184.6-524.9,185.7-525.5z"/>
		</g>
	</g>
</g>
<g>
	<g>
		<circle cx="-1109.1" cy="-420" r="150.5"/>
		
			<text transform="matrix(1 0 0 1 -1224.5892 -381.0836)" class="st3" style="font-family:'SFUIDisplay-Medium'; font-size:143.339px; letter-spacing:-2;">100</text>
	</g>
	<g>
		<path class="st1" d="M-916.8-405.2l-16.5-33.4l-16.5,33.4c-0.3,0.7-0.9,1.1-1.7,1.2l-36.8,5.3l26.6,26c0.5,0.5,0.8,1.2,0.6,2
			l-6.3,36.7l32.9-17.3c0.6-0.3,1.4-0.3,2.1,0l32.9,17.3l-6.3-36.7c-0.1-0.7,0.1-1.5,0.6-2l26.6-26l-36.8-5.4
			C-915.8-404.1-916.4-404.6-916.8-405.2z"/>
		<path class="st0" d="M-969.4-329.2c-0.5,0-0.9-0.1-1.3-0.4c-0.7-0.5-1-1.3-0.9-2.1l6.7-39.3l-28.5-27.8c-0.6-0.6-0.8-1.4-0.6-2.2
			c0.3-0.8,0.9-1.4,1.8-1.5l39.4-5.7l17.6-35.7c0.4-0.7,1.1-1.2,2-1.2l0,0c0.8,0,1.6,0.5,2,1.2l17.6,35.7l39.4,5.7
			c0.8,0.1,1.5,0.7,1.8,1.5c0.3,0.8,0,1.7-0.6,2.2l-28.5,27.8l6.7,39.3c0.1,0.8-0.2,1.6-0.9,2.1c-0.7,0.5-1.6,0.6-2.3,0.2
			l-35.3-18.5l-35.3,18.5C-968.7-329.3-969.1-329.2-969.4-329.2z M-987.2-398.9l26.2,25.5c0.5,0.5,0.7,1.2,0.6,1.9l-6.2,36.1
			l32.4-17c0.6-0.3,1.4-0.3,2,0l32.4,17l-6.2-36.1c-0.1-0.7,0.1-1.4,0.6-1.9l26.2-25.5l-36.2-5.3c-0.7-0.1-1.3-0.5-1.6-1.2
			l-16.2-32.8l-16.2,32.8c-0.3,0.6-0.9,1.1-1.6,1.2L-987.2-398.9z"/>
	</g>
	<g>
		<path class="st1" d="M-1268.6-406.1l-16.5-33.5l-16.5,33.5c-0.3,0.7-1,1.1-1.7,1.2l-37,5.4l26.8,26.1c0.5,0.5,0.8,1.2,0.6,2
			l-6.3,36.8l33.1-17.4c0.6-0.3,1.4-0.3,2.1,0l33.1,17.4l-6.3-36.8c-0.1-0.7,0.1-1.5,0.6-2l26.8-26.1l-37-5.4
			C-1267.6-405-1268.3-405.4-1268.6-406.1z"/>
		<path class="st0" d="M-1321.3-329.2c-0.5,0-0.9-0.1-1.3-0.4c-0.7-0.5-1-1.3-0.9-2.1l6.7-39.3l-28.5-27.8c-0.6-0.6-0.8-1.4-0.6-2.2
			c0.3-0.8,0.9-1.4,1.8-1.5l39.4-5.7l17.6-35.7c0.4-0.7,1.1-1.2,2-1.2l0,0c0.8,0,1.6,0.5,2,1.2l17.6,35.7l39.4,5.7
			c0.8,0.1,1.5,0.7,1.8,1.5c0.3,0.8,0,1.7-0.6,2.2l-28.5,27.8l6.7,39.3c0.1,0.8-0.2,1.6-0.9,2.1c-0.7,0.5-1.6,0.6-2.3,0.2L-1285-348
			l-35.3,18.5C-1320.6-329.3-1320.9-329.2-1321.3-329.2z M-1339-398.9l26.2,25.5c0.5,0.5,0.7,1.2,0.6,1.9l-6.2,36.1l32.4-17
			c0.6-0.3,1.4-0.3,2,0l32.4,17l-6.2-36.1c-0.1-0.7,0.1-1.4,0.6-1.9l26.2-25.5l-36.2-5.3c-0.7-0.1-1.3-0.5-1.6-1.2l-16.2-32.8
			l-16.2,32.8c-0.3,0.6-0.9,1.1-1.6,1.2L-1339-398.9z"/>
	</g>
	<g>
		<path class="st1" d="M-1200.9-367.4l-25.4-51.6l-25.4,51.6c-0.5,1-1.5,1.7-2.6,1.9l-56.9,8.3l41.2,40.1c0.8,0.8,1.2,1.9,1,3
			l-9.7,56.7l50.9-26.8c1-0.5,2.2-0.5,3.2,0l50.9,26.8l-9.7-56.7c-0.2-1.1,0.2-2.2,1-3l41.2-40.1l-56.9-8.3
			C-1199.4-365.7-1200.4-366.4-1200.9-367.4z"/>
		<path class="st0" d="M-1283.4-248c-0.7,0-1.4-0.2-2-0.7c-1.1-0.8-1.6-2.1-1.4-3.4l10.6-61.7l-44.9-43.7c-0.9-0.9-1.3-2.3-0.9-3.5
			c0.4-1.2,1.5-2.1,2.8-2.3l62-9l27.7-56.2c0.6-1.2,1.8-1.9,3.1-1.9l0,0c1.3,0,2.5,0.7,3.1,1.9l27.7,56.2l62,9
			c1.3,0.2,2.4,1.1,2.8,2.3c0.4,1.2,0.1,2.6-0.9,3.5l-44.9,43.7l10.6,61.7c0.2,1.3-0.3,2.6-1.4,3.4c-1.1,0.8-2.5,0.9-3.6,0.3
			l-55.4-29.1l-55.4,29.1C-1282.3-248.1-1282.8-248-1283.4-248z M-1311.3-357.5l41.2,40.1c0.8,0.8,1.2,1.9,1,3l-9.7,56.7l50.9-26.8
			c1-0.5,2.2-0.5,3.2,0l50.9,26.8l-9.7-56.7c-0.2-1.1,0.2-2.2,1-3l41.2-40.1l-56.9-8.3c-1.1-0.2-2.1-0.9-2.6-1.9l-25.4-51.6
			l-25.4,51.6c-0.5,1-1.5,1.7-2.6,1.9L-1311.3-357.5z"/>
	</g>
	<g>
		<path class="st1" d="M-968-367.6l-25.8-52.3l-25.8,52.3c-0.5,1-1.5,1.7-2.6,1.9l-57.7,8.4l41.8,40.7c0.8,0.8,1.2,2,1,3.1
			l-9.9,57.5l51.6-27.1c1-0.5,2.2-0.5,3.2,0l51.6,27.1l-9.9-57.5c-0.2-1.1,0.2-2.3,1-3.1l41.8-40.7l-57.7-8.4
			C-966.5-365.9-967.5-366.6-968-367.6z"/>
		<path class="st0" d="M-1051.1-248c-0.7,0-1.4-0.2-2-0.7c-1.1-0.8-1.6-2.1-1.4-3.4l10.6-61.7l-44.9-43.7c-0.9-0.9-1.3-2.3-0.9-3.5
			c0.4-1.2,1.5-2.1,2.8-2.3l62-9l27.7-56.2c0.6-1.2,1.8-1.9,3.1-1.9l0,0c1.3,0,2.5,0.7,3.1,1.9l27.7,56.2l62,9
			c1.3,0.2,2.4,1.1,2.8,2.3c0.4,1.2,0.1,2.6-0.9,3.5l-44.9,43.7l10.6,61.7c0.2,1.3-0.3,2.6-1.4,3.4c-1.1,0.8-2.5,0.9-3.6,0.3
			l-55.4-29.1l-55.4,29.1C-1050-248.1-1050.5-248-1051.1-248z M-1079-357.5l41.2,40.1c0.8,0.8,1.2,1.9,1,3l-9.7,56.7l50.9-26.8
			c1-0.5,2.2-0.5,3.2,0l50.9,26.8l-9.7-56.7c-0.2-1.1,0.2-2.2,1-3l41.2-40.1l-56.9-8.3c-1.1-0.2-2.1-0.9-2.6-1.9l-25.4-51.6
			l-25.4,51.6c-0.5,1-1.5,1.7-2.6,1.9L-1079-357.5z"/>
	</g>
	<g>
		<path class="st2" d="M-1073.8-348l-34.6-70l-34.6,70c-0.7,1.4-2,2.3-3.5,2.5l-77.3,11.2l55.9,54.5c1.1,1.1,1.6,2.6,1.3,4.1
			l-13.2,76.9l69.1-36.3c1.4-0.7,3-0.7,4.3,0l69.1,36.3l-13.2-76.9c-0.3-1.5,0.2-3,1.3-4.1l55.9-54.5l-77.3-11.2
			C-1071.8-345.6-1073.1-346.6-1073.8-348z"/>
		<path class="st0" d="M-1184.3-187.5c-1,0-1.9-0.3-2.7-0.9c-1.4-1-2.1-2.8-1.8-4.5l14.2-82.7l-60.1-58.6c-1.2-1.2-1.7-3-1.2-4.7
			c0.5-1.7,2-2.9,3.7-3.1l83.1-12.1l37.2-75.3c0.8-1.6,2.4-2.6,4.1-2.6l0,0c1.7,0,3.3,1,4.1,2.6l37.1,75.3l83.1,12.1
			c1.7,0.3,3.2,1.5,3.7,3.1c0.5,1.7,0.1,3.5-1.2,4.7l-60.1,58.6l14.2,82.7c0.3,1.7-0.4,3.5-1.8,4.5c-1.4,1-3.3,1.2-4.8,0.3
			l-74.3-39.1l-74.3,39.1C-1182.8-187.7-1183.6-187.5-1184.3-187.5z M-1221.7-334.3l55.2,53.8c1.1,1.1,1.6,2.6,1.3,4.1l-13,75.9
			l68.2-35.9c1.3-0.7,2.9-0.7,4.3,0l68.2,35.9l-13-75.9c-0.3-1.5,0.2-3,1.3-4.1l55.2-53.8l-76.2-11.1c-1.5-0.2-2.8-1.2-3.5-2.5
			l-34.1-69.1l-34.1,69.1c-0.7,1.4-2,2.3-3.5,2.5L-1221.7-334.3z"/>
	</g>
	
		<text transform="matrix(1 0 0 1 -1169.5238 -276.8636)" style="font-family:'SFUIDisplay-Medium'; font-size:52.2896px; letter-spacing:-3;">100%</text>
</g>
<g>
	<g>
		<path class="st6" d="M1056.4-88.5c-32.4-32.4-75.5-50.3-121.4-50.3s-89,17.9-121.4,50.3C781.2-56,763.3-12.9,763.3,32.9
			s17.9,89,50.3,121.4c32.4,32.4,75.5,50.3,121.4,50.3s89-17.9,121.4-50.3c32.4-32.4,50.3-75.5,50.3-121.4S1088.8-56,1056.4-88.5z
			 M935-100.3c67.6,0,123.6,50.6,132.1,115.9l-82.6-8c-9.3-17.9-28-30.2-49.5-30.2c-21.5,0-40.3,12.3-49.5,30.2l-82.6,8
			C811.4-49.8,867.4-100.3,935-100.3z M802.8,49.9l81.6,6.4c5.2,11.1,13.9,20.2,24.7,25.9l5.3,82.4
			C856.2,155.6,810.3,108.7,802.8,49.9z M935,50.2c-9.5,0-17.3-7.8-17.3-17.3s7.8-17.3,17.3-17.3c9.5,0,17.3,7.8,17.3,17.3
			S944.5,50.2,935,50.2z M955.5,164.6l5.3-82.4c10.8-5.7,19.5-14.8,24.7-25.9l81.6-6.4C1059.7,108.7,1013.8,155.6,955.5,164.6z"/>
	</g>
</g>
<g>
	<path class="st3" d="M1071.5,83l-34.1-69.1L1003.3,83c-0.7,1.4-2,2.3-3.5,2.5l-76.2,11.1l55.2,53.8c1.1,1.1,1.6,2.6,1.3,4.1
		l-13,75.9l68.2-35.9c1.3-0.7,2.9-0.7,4.3,0l68.2,35.9l-13-75.9c-0.3-1.5,0.2-3,1.3-4.1l55.2-53.8L1075,85.5
		C1073.5,85.3,1072.2,84.3,1071.5,83z"/>
	<path class="st6" d="M961,243.3c-1,0-1.9-0.3-2.7-0.9c-1.4-1-2.1-2.8-1.8-4.5l14.2-82.7l-60.1-58.6c-1.2-1.2-1.7-3-1.2-4.7
		c0.5-1.7,2-2.9,3.7-3.1l83.1-12.1l37.2-75.3c0.8-1.6,2.4-2.6,4.1-2.6l0,0c1.7,0,3.3,1,4.1,2.6l37.1,75.3l83.1,12.1
		c1.7,0.3,3.2,1.5,3.7,3.1c0.5,1.7,0.1,3.5-1.2,4.7l-60.1,58.6l14.2,82.7c0.3,1.7-0.4,3.5-1.8,4.5c-1.4,1-3.3,1.2-4.8,0.3
		l-74.3-39.1l-74.3,39.1C962.5,243.2,961.7,243.3,961,243.3z M923.6,96.6l55.2,53.8c1.1,1.1,1.6,2.6,1.3,4.1l-13,75.9l68.2-35.9
		c1.3-0.7,2.9-0.7,4.3,0l68.2,35.9l-13-75.9c-0.3-1.5,0.2-3,1.3-4.1l55.2-53.8L1075,85.5c-1.5-0.2-2.8-1.2-3.5-2.5l-34.1-69.1
		L1003.3,83c-0.7,1.4-2,2.3-3.5,2.5L923.6,96.6z"/>
</g>
<text transform="matrix(1 0 0 1 974.2675 154.628)" class="st6" style="font-family:'SFUIDisplay-Medium'; font-size:53.6011px;">1000</text>
<g>
	<circle class="st3" cx="786.2" cy="127.1" r="91.8"/>
	<g>
		<path class="st6" d="M786.2,32.9c-51.9,0-94.1,42.2-94.1,94.1s42.2,94.1,94.1,94.1c51.9,0,94.1-42.2,94.1-94.1
			S838,32.9,786.2,32.9z M786.2,214.9c-48.4,0-87.8-39.4-87.8-87.8s39.4-87.8,87.8-87.8c48.4,0,87.8,39.4,87.8,87.8
			S834.6,214.9,786.2,214.9z"/>
		<path class="st6" d="M789.3,114.6V82.7c0-1.7-1.4-3.1-3.1-3.1S783,81,783,82.7v31.8c-4.4,1.1-7.8,4.6-9,9h-22.4
			c-1.7,0-3.1,1.4-3.1,3.1c0,1.7,1.4,3.1,3.1,3.1H774c1.4,5.4,6.3,9.4,12.1,9.4c6.9,0,12.5-5.6,12.5-12.5
			C798.7,120.8,794.7,116,789.3,114.6z M786.2,132.9c-3.5,0-6.3-2.8-6.3-6.3c0-3.5,2.8-6.3,6.3-6.3c3.5,0,6.3,2.8,6.3,6.3
			C792.4,130.1,789.6,132.9,786.2,132.9z"/>
		<path class="st6" d="M786.2,63.9c1.7,0,3.1-1.4,3.1-3.1v-3.1c0-1.7-1.4-3.1-3.1-3.1s-3.1,1.4-3.1,3.1v3.1
			C783,62.5,784.4,63.9,786.2,63.9z"/>
		<path class="st6" d="M786.2,189.4c-1.7,0-3.1,1.4-3.1,3.1v3.1c0,1.7,1.4,3.1,3.1,3.1s3.1-1.4,3.1-3.1v-3.1
			C789.3,190.8,787.9,189.4,786.2,189.4z"/>
		<path class="st6" d="M855.2,123.5H852c-1.7,0-3.1,1.4-3.1,3.1c0,1.7,1.4,3.1,3.1,3.1h3.1c1.7,0,3.1-1.4,3.1-3.1
			C858.3,124.9,856.9,123.5,855.2,123.5z"/>
		<path class="st6" d="M720.3,123.5h-3.1c-1.7,0-3.1,1.4-3.1,3.1c0,1.7,1.4,3.1,3.1,3.1h3.1c1.7,0,3.1-1.4,3.1-3.1
			C723.4,124.9,722,123.5,720.3,123.5z"/>
		<path class="st6" d="M832.7,75.6l-2.2,2.2c-1.2,1.2-1.2,3.2,0,4.4c0.6,0.6,1.4,0.9,2.2,0.9s1.6-0.3,2.2-0.9l2.2-2.2
			c1.2-1.2,1.2-3.2,0-4.4S834,74.4,832.7,75.6z"/>
		<path class="st6" d="M737.3,171l-2.2,2.2c-1.2,1.2-1.2,3.2,0,4.4c0.6,0.6,1.4,0.9,2.2,0.9s1.6-0.3,2.2-0.9l2.2-2.2
			c1.2-1.2,1.2-3.2,0-4.4C740.6,169.8,738.6,169.8,737.3,171z"/>
		<path class="st6" d="M835,171c-1.2-1.2-3.2-1.2-4.4,0s-1.2,3.2,0,4.4l2.2,2.2c0.6,0.6,1.4,0.9,2.2,0.9s1.6-0.3,2.2-0.9
			c1.2-1.2,1.2-3.2,0-4.4L835,171z"/>
		<path class="st6" d="M739.6,75.6c-1.2-1.2-3.2-1.2-4.4,0s-1.2,3.2,0,4.4l2.2,2.2c0.6,0.6,1.4,0.9,2.2,0.9c0.8,0,1.6-0.3,2.2-0.9
			c1.2-1.2,1.2-3.2,0-4.4L739.6,75.6z"/>
	</g>
</g>
<g>
	<g>
		<path class="st0" d="M974.8-824.4c-32.4-32.4-75.5-50.3-121.4-50.3s-89,17.9-121.4,50.3c-32.4,32.4-50.3,75.5-50.3,121.4
			s17.9,89,50.3,121.4c32.4,32.4,75.5,50.3,121.4,50.3s89-17.9,121.4-50.3c32.4-32.4,50.3-75.5,50.3-121.4S1007.2-792,974.8-824.4z
			 M853.4-836.3c67.6,0,123.6,50.6,132.1,115.9l-82.6-8c-9.3-17.9-28-30.2-49.5-30.2s-40.3,12.3-49.5,30.2l-82.6,8
			C729.9-785.7,785.8-836.3,853.4-836.3z M721.2-686l81.6,6.4c5.2,11.1,13.9,20.2,24.7,25.9l5.3,82.4
			C774.6-580.4,728.8-627.3,721.2-686z M853.4-685.7c-9.5,0-17.3-7.8-17.3-17.3c0-9.5,7.8-17.3,17.3-17.3s17.3,7.8,17.3,17.3
			C870.7-693.5,863-685.7,853.4-685.7z M874-571.3l5.3-82.4c10.8-5.7,19.5-14.8,24.7-25.9l81.6-6.4
			C978.1-627.3,932.2-580.4,874-571.3z"/>
	</g>
</g>
<g>
	<path class="st2" d="M990-653l-34.1-69.1L921.8-653c-0.7,1.4-2,2.3-3.5,2.5l-76.2,11.1l55.2,53.8c1.1,1.1,1.6,2.6,1.3,4.1l-13,75.9
		l68.2-35.9c1.3-0.7,2.9-0.7,4.3,0l68.2,35.9l-13-75.9c-0.3-1.5,0.2-3,1.3-4.1l55.2-53.8l-76.2-11.1
		C991.9-650.7,990.6-651.6,990-653z"/>
	<path class="st0" d="M879.4-492.6c-1,0-1.9-0.3-2.7-0.9c-1.4-1-2.1-2.8-1.8-4.5l14.2-82.7L829-639.3c-1.2-1.2-1.7-3-1.2-4.7
		c0.5-1.7,2-2.9,3.7-3.1l83.1-12.1l37.2-75.3c0.8-1.6,2.4-2.6,4.1-2.6l0,0c1.7,0,3.3,1,4.1,2.6l37.1,75.3l83.1,12.1
		c1.7,0.3,3.2,1.5,3.7,3.1c0.5,1.7,0.1,3.5-1.2,4.7l-60.1,58.6l14.2,82.7c0.3,1.7-0.4,3.5-1.8,4.5c-1.4,1-3.3,1.2-4.8,0.3
		l-74.3-39.1l-74.3,39.1C880.9-492.8,880.2-492.6,879.4-492.6z M842.1-639.4l55.2,53.8c1.1,1.1,1.6,2.6,1.3,4.1l-13,75.9l68.2-35.9
		c1.3-0.7,2.9-0.7,4.3,0l68.2,35.9l-13-75.9c-0.3-1.5,0.2-3,1.3-4.1l55.2-53.8l-76.2-11.1c-1.5-0.2-2.8-1.2-3.5-2.5l-34.1-69.1
		L921.8-653c-0.7,1.4-2,2.3-3.5,2.5L842.1-639.4z"/>
</g>
<text transform="matrix(1 0 0 1 892.6967 -581.3272)" style="font-family:'SFUIDisplay-Medium'; font-size:53.6011px;">1000</text>
<g>
	<circle class="st3" cx="704.6" cy="-608.9" r="91.8"/>
	<g>
		<path class="st0" d="M704.6-703c-51.9,0-94.1,42.2-94.1,94.1s42.2,94.1,94.1,94.1s94.1-42.2,94.1-94.1S756.5-703,704.6-703z
			 M704.6-521.1c-48.4,0-87.8-39.4-87.8-87.8s39.4-87.8,87.8-87.8s87.8,39.4,87.8,87.8S753-521.1,704.6-521.1z"/>
		<path class="st0" d="M707.7-621.4v-31.8c0-1.7-1.4-3.1-3.1-3.1s-3.1,1.4-3.1,3.1v31.8c-4.4,1.1-7.8,4.6-9,9h-22.4
			c-1.7,0-3.1,1.4-3.1,3.1c0,1.7,1.4,3.1,3.1,3.1h22.4c1.4,5.4,6.3,9.4,12.1,9.4c6.9,0,12.5-5.6,12.5-12.5
			C717.1-615.1,713.1-620,707.7-621.4z M704.6-603c-3.5,0-6.3-2.8-6.3-6.3c0-3.5,2.8-6.3,6.3-6.3s6.3,2.8,6.3,6.3
			C710.9-605.8,708-603,704.6-603z"/>
		<path class="st0" d="M704.6-672c1.7,0,3.1-1.4,3.1-3.1v-3.1c0-1.7-1.4-3.1-3.1-3.1s-3.1,1.4-3.1,3.1v3.1
			C701.4-673.4,702.8-672,704.6-672z"/>
		<path class="st0" d="M704.6-546.5c-1.7,0-3.1,1.4-3.1,3.1v3.1c0,1.7,1.4,3.1,3.1,3.1s3.1-1.4,3.1-3.1v-3.1
			C707.7-545.1,706.3-546.5,704.6-546.5z"/>
		<path class="st0" d="M773.6-612.4h-3.1c-1.7,0-3.1,1.4-3.1,3.1c0,1.7,1.4,3.1,3.1,3.1h3.1c1.7,0,3.1-1.4,3.1-3.1
			C776.7-611,775.3-612.4,773.6-612.4z"/>
		<path class="st0" d="M638.7-612.4h-3.1c-1.7,0-3.1,1.4-3.1,3.1c0,1.7,1.4,3.1,3.1,3.1h3.1c1.7,0,3.1-1.4,3.1-3.1
			C641.8-611,640.4-612.4,638.7-612.4z"/>
		<path class="st0" d="M751.2-660.3l-2.2,2.2c-1.2,1.2-1.2,3.2,0,4.4c0.6,0.6,1.4,0.9,2.2,0.9s1.6-0.3,2.2-0.9l2.2-2.2
			c1.2-1.2,1.2-3.2,0-4.4C754.4-661.5,752.4-661.5,751.2-660.3z"/>
		<path class="st0" d="M655.8-564.9l-2.2,2.2c-1.2,1.2-1.2,3.2,0,4.4c0.6,0.6,1.4,0.9,2.2,0.9s1.6-0.3,2.2-0.9l2.2-2.2
			c1.2-1.2,1.2-3.2,0-4.4C659-566.1,657-566.1,655.8-564.9z"/>
		<path class="st0" d="M753.4-564.9c-1.2-1.2-3.2-1.2-4.4,0c-1.2,1.2-1.2,3.2,0,4.4l2.2,2.2c0.6,0.6,1.4,0.9,2.2,0.9
			s1.6-0.3,2.2-0.9c1.2-1.2,1.2-3.2,0-4.4L753.4-564.9z"/>
		<path class="st0" d="M658-660.3c-1.2-1.2-3.2-1.2-4.4,0c-1.2,1.2-1.2,3.2,0,4.4l2.2,2.2c0.6,0.6,1.4,0.9,2.2,0.9s1.6-0.3,2.2-0.9
			c1.2-1.2,1.2-3.2,0-4.4L658-660.3z"/>
	</g>
</g>
<g>
	<g>
		<g>
			<g>
				<rect x="248.4" y="163.7" class="st0" width="106.5" height="134.8"/>
			</g>
		</g>
		<g>
			<g>
				<rect x="122.4" y="163.7" class="st0" width="106.5" height="134.8"/>
			</g>
		</g>
		<g>
			<g>
				<path class="st0" d="M321.7,55.6c2.9-5.3,4.5-11.3,4.5-17.8c0-20.5-16.7-37.2-37.2-37.2c-15.2,0-30.7,7.8-42.6,21.5
					c-2.9,3.4-5.6,7-7.8,10.8c-2.3-3.8-4.9-7.4-7.8-10.8C219,8.5,203.4,0.6,188.3,0.6c-20.5,0-37.2,16.7-37.2,37.2
					c0,6.4,1.6,12.5,4.5,17.8H105v88.7h124V55.6h19.4v88.7h124V55.6H321.7z M188.3,55.6c-9.8,0-17.8-8-17.8-17.8s8-17.8,17.8-17.8
					c17.6,0,34.4,18,39.3,35.5L188.3,55.6L188.3,55.6z M289.1,55.6h-39.3c4.9-17.5,21.6-35.5,39.3-35.5c9.8,0,17.8,8,17.8,17.8
					C306.8,47.6,298.8,55.6,289.1,55.6z"/>
			</g>
		</g>
	</g>
	<circle class="st4" cx="402.7" cy="261.4" r="67.2"/>
	<circle class="st4" cx="268.9" cy="261.8" r="96.8"/>
	<g>
		<path class="st0" d="M204,231.5h4.3v26H204c-2.4,0-4.3-1.9-4.3-4.3v-17.3C199.6,233.4,201.6,231.5,204,231.5z M333.8,231.5h-4.3
			v26h4.3c2.4,0,4.3-1.9,4.3-4.3v-17.3C338.1,233.4,336.2,231.5,333.8,231.5z M320.8,222.8v77.9c0,4.8-3.9,8.7-8.7,8.7v8.7
			c0,4.8-3.9,8.7-8.7,8.7h-8.7c-4.8,0-8.7-3.9-8.7-8.7v-8.7h-34.6v8.7c0,4.8-3.9,8.7-8.7,8.7h-8.7c-4.8,0-8.7-3.9-8.7-8.7v-8.7
			c-4.8,0-8.7-3.9-8.7-8.7v-77.9c0-14.3,11.6-26,26-26h51.9C309.2,196.9,320.8,208.5,320.8,222.8z M251.6,214.2h34.6v-8.7h-34.6
			V214.2z M242.9,292.1c0-4.8-3.9-8.7-8.7-8.7c-4.8,0-8.7,3.9-8.7,8.7c0,4.8,3.9,8.7,8.7,8.7C239,300.7,242.9,296.9,242.9,292.1z
			 M312.1,292.1c0-4.8-3.9-8.7-8.7-8.7s-8.7,3.9-8.7,8.7c0,4.8,3.9,8.7,8.7,8.7C308.3,300.7,312.1,296.9,312.1,292.1z M312.1,222.8
			h-86.5v51.9h86.5V222.8L312.1,222.8z"/>
	</g>
	<g>
		<path class="st2" d="M163,223.2l-34.1-69.1l-34.1,69.1c-0.7,1.4-2,2.3-3.5,2.5l-76.2,11.1l55.2,53.8c1.1,1.1,1.6,2.6,1.3,4.1
			l-13,75.9l68.2-35.9c1.3-0.7,2.9-0.7,4.3,0l68.2,35.9l-13-75.9c-0.3-1.5,0.2-3,1.3-4.1l55.2-53.8l-76.2-11.1
			C165,225.5,163.7,224.6,163,223.2z"/>
		<path class="st0" d="M52.5,383.6c-1,0-1.9-0.3-2.7-0.9c-1.4-1-2.1-2.8-1.8-4.5l14.2-82.7L2,236.9c-1.2-1.2-1.7-3-1.2-4.7
			c0.5-1.7,2-2.9,3.7-3.1L87.6,217l37.2-75.3c0.8-1.6,2.4-2.6,4.1-2.6l0,0c1.7,0,3.3,1,4.1,2.6l37.1,75.3l83.1,12.1
			c1.7,0.3,3.2,1.5,3.7,3.1c0.5,1.7,0.1,3.5-1.2,4.7l-60.1,58.6l14.2,82.7c0.3,1.7-0.4,3.5-1.8,4.5c-1.4,1-3.3,1.2-4.8,0.3
			L128.9,344l-74.3,39.1C53.9,383.4,53.2,383.6,52.5,383.6z M15.1,236.8l55.2,53.8c1.1,1.1,1.6,2.6,1.3,4.1l-13,75.9l68.2-35.9
			c1.3-0.7,2.9-0.7,4.3,0l68.2,35.9l-13-75.9c-0.3-1.5,0.2-3,1.3-4.1l55.2-53.8l-76.2-11.1c-1.5-0.2-2.8-1.2-3.5-2.5l-34.1-69.1
			l-34.1,69.1c-0.7,1.4-2,2.3-3.5,2.5L15.1,236.8z"/>
	</g>
	<g>
		<g>
			<path class="st5" d="M421.7,233.5h-18h-0.9h-1.4h-0.9H384c-5.7,0-10.3,3.6-10.3,8v38.3c0,4.3,4.4,7.9,9.9,8l-9.9,20.5h7.7
				l9.9-20.5h23l9.9,20.5h7.7l-9.9-20.5c5.5-0.2,9.9-3.7,9.9-8v-38.3C432,237.1,427.4,233.5,421.7,233.5z M392.6,236.3h9.3l0.1,0.2
				l0.1-0.2h11.1v4.1h-20.6V236.3z M387.9,281.3c-2.4,0-4.4-2-4.4-4.4c0-2.4,2-4.4,4.4-4.4s4.4,2,4.4,4.4
				C392.3,279.3,390.3,281.3,387.9,281.3z M418.5,281.3c-2.4,0-4.4-2-4.4-4.4c0-2.4,2-4.4,4.4-4.4s4.4,2,4.4,4.4
				C423,279.3,421,281.3,418.5,281.3z M425,255.9c0,4.4-4.6,8-10.3,8H391c-5.7,0-10.3-3.6-10.3-8v-4c0-4.4,4.6-8,10.3-8h23.7
				c5.7,0,10.3,3.6,10.3,8V255.9z"/>
			<polygon class="st5" points="391.6,221.3 391.6,230.4 414.1,230.4 414.1,221.3 411,221.3 411,228 394.7,228 394.7,221.3 			"/>
			<path class="st5" d="M376.9,224c0.2-0.1,23.5-13.4,51.7,0.1c0.4,0.2,0.8,0.3,1.2,0.3c0.8,0,1.6-0.3,2-0.9c0.7-0.9,0.3-2-0.8-2.5
				c-30.9-14.8-56.7-0.1-57,0.1c-1,0.6-1.2,1.7-0.5,2.5C374.4,224.4,375.9,224.6,376.9,224z"/>
		</g>
	</g>
</g>
</svg>
