<?xml version="1.0" encoding="utf-8"?>
<!-- Generator: Adobe Illustrator 21.0.2, SVG Export Plug-In . SVG Version: 6.00 Build 0)  -->
<svg version="1.1" id="Layer_1" xmlns="http://www.w3.org/2000/svg" xmlns:xlink="http://www.w3.org/1999/xlink" x="0px" y="0px"
	 viewBox="0 0 474.6 384.3" style="enable-background:new 0 0 474.6 384.3;" xml:space="preserve">
<style type="text/css">
	.st0{fill:#010101;}
	.st1{fill:#FCEA00;}
	.st2{fill:#FDEB01;}
	.st3{fill:#FFFFFF;}
	.st4{font-family:'SFUIDisplay-Medium';}
	.st5{font-size:149.0116px;}
	.st6{letter-spacing:13;}
</style>
<g>
	<g>
		<path class="st0" d="M993.5-229.4c-76.2,0-138.1,61.8-138.1,138.1S917.3,46.7,993.5,46.7c76.2,0,138.1-61.8,138.1-138.1
			S1069.8-229.4,993.5-229.4z M993.5,31.9c-68.1,0-123.2-55.2-123.2-123.2s55.2-123.2,123.2-123.2s123.2,55.2,123.2,123.2
			S1061.6,31.9,993.5,31.9z"/>
		<path class="st0" d="M993.5-241.8c-83.1,0-150.5,67.4-150.5,150.5c0,83.1,67.4,150.5,150.5,150.5c83.1,0,150.5-67.4,150.5-150.5
			C1144-174.5,1076.7-241.8,993.5-241.8z M993.5,49.5c-77.8,0-140.8-63-140.8-140.8s63-140.8,140.8-140.8s140.8,63,140.8,140.8
			S1071.3,49.5,993.5,49.5z"/>
		<path class="st0" d="M993.5-119.5c-15.6,0-28.2,12.6-28.2,28.2c0,15.6,12.6,28.2,28.2,28.2s28.2-12.6,28.2-28.2
			S1009.1-119.5,993.5-119.5z M993.5-68c-12.9,0-23.3-10.4-23.3-23.3s10.4-23.3,23.3-23.3c12.9,0,23.3,10.4,23.3,23.3
			S1006.4-68,993.5-68z"/>
		<circle class="st0" cx="993.5" cy="-91.3" r="18.9"/>
		<path class="st0" d="M993.5-156.9c-36.2,0-65.6,29.4-65.6,65.6c0,36.2,29.4,65.6,65.6,65.6c36.2,0,65.6-29.4,65.6-65.6
			C1059.1-127.6,1029.8-156.9,993.5-156.9z M1019-143.6c4.1,0,7.5,3.4,7.5,7.5c0,4.1-3.4,7.5-7.5,7.5s-7.5-3.4-7.5-7.5
			C1011.5-140.2,1014.9-143.6,1019-143.6z M968.1-143.6c4.1,0,7.5,3.4,7.5,7.5c0,4.1-3.4,7.5-7.5,7.5c-4.1,0-7.5-3.4-7.5-7.5
			C960.6-140.2,963.9-143.6,968.1-143.6z M941.9-83.8c-4.1,0-7.5-3.4-7.5-7.5s3.4-7.5,7.5-7.5s7.5,3.4,7.5,7.5
			C949.4-87.2,946-83.8,941.9-83.8z M968.1-39.1c-4.1,0-7.5-3.4-7.5-7.5s3.4-7.5,7.5-7.5c4.1,0,7.5,3.4,7.5,7.5
			S972.2-39.1,968.1-39.1z M1019-39.1c-4.1,0-7.5-3.4-7.5-7.5s3.4-7.5,7.5-7.5s7.5,3.4,7.5,7.5S1023.1-39.1,1019-39.1z M993.5-53.8
			c-20.8,0-37.6-16.8-37.6-37.6s16.8-37.6,37.6-37.6s37.6,16.8,37.6,37.6S1014.3-53.8,993.5-53.8z M1045.2-83.8
			c-4.1,0-7.5-3.4-7.5-7.5s3.4-7.5,7.5-7.5c4.1,0,7.5,3.4,7.5,7.5C1052.7-87.2,1049.4-83.8,1045.2-83.8z"/>
		<path class="st0" d="M1077.3-175.1c-46.3-46.3-121.3-46.3-167.6,0c-46.3,46.3-46.3,121.3,0,167.6c46.3,46.3,121.3,46.3,167.6,0
			S1123.6-128.9,1077.3-175.1z M1047.1-171.6c7.4-7.4,19.3-7.4,26.7,0c7.4,7.4,7.4,19.3,0,26.7c-7.4,7.4-19.3,7.4-26.7,0
			C1039.7-152.3,1039.7-164.2,1047.1-171.6z M1043.2-41.7c-27.4,27.4-71.9,27.4-99.4,0c-27.4-27.4-27.4-71.9,0-99.4
			c27.4-27.4,71.9-27.4,99.4,0C1070.7-113.6,1070.7-69.1,1043.2-41.7z M993.5-204.8c10.4,0,18.9,8.4,18.9,18.9s-8.4,18.9-18.9,18.9
			s-18.9-8.4-18.9-18.9C974.7-196.4,983.1-204.8,993.5-204.8z M913.3-171.6c7.4-7.4,19.3-7.4,26.7,0c7.4,7.4,7.4,19.3,0,26.7
			s-19.3,7.4-26.7,0C905.9-152.3,905.9-164.2,913.3-171.6z M880.1-91.3c0-10.4,8.4-18.9,18.9-18.9s18.9,8.4,18.9,18.9
			c0,10.4-8.4,18.9-18.9,18.9S880.1-80.9,880.1-91.3z M940-11.1c-7.4,7.4-19.3,7.4-26.7,0c-7.4-7.4-7.4-19.3,0-26.7s19.3-7.4,26.7,0
			C947.4-30.4,947.4-18.5,940-11.1z M993.5,22.1c-10.4,0-18.9-8.4-18.9-18.9s8.4-18.9,18.9-18.9s18.9,8.4,18.9,18.9
			S1004,22.1,993.5,22.1z M1073.8-11.1c-7.4,7.4-19.3,7.4-26.7,0c-7.4-7.4-7.4-19.3,0-26.7c7.4-7.4,19.3-7.4,26.7,0
			C1081.1-30.4,1081.1-18.5,1073.8-11.1z M1088.1-72.5c-10.4,0-18.9-8.4-18.9-18.9s8.4-18.9,18.9-18.9c10.4,0,18.9,8.4,18.9,18.9
			S1098.6-72.5,1088.1-72.5z"/>
	</g>
	<g>
		<path class="st1" d="M1184.7-76.3l-16.5-33.4l-16.5,33.4c-0.3,0.7-0.9,1.1-1.7,1.2l-36.9,5.4l26.7,26c0.5,0.5,0.8,1.2,0.6,2
			L1134.2-5l33-17.3c0.6-0.3,1.4-0.3,2.1,0l33,17.3l-6.3-36.7c-0.1-0.7,0.1-1.5,0.6-2l26.7-26l-36.9-5.4
			C1185.7-75.2,1185-75.6,1184.7-76.3z"/>
		<path class="st0" d="M1132-0.3c-0.5,0-0.9-0.1-1.3-0.4c-0.7-0.5-1-1.3-0.9-2.1l6.7-39.3L1108-69.9c-0.6-0.6-0.8-1.4-0.6-2.2
			c0.3-0.8,0.9-1.4,1.8-1.5l39.4-5.7l17.6-35.7c0.4-0.7,1.1-1.2,2-1.2l0,0c0.8,0,1.6,0.5,2,1.2l17.6,35.7l39.4,5.7
			c0.8,0.1,1.5,0.7,1.8,1.5c0.3,0.8,0,1.7-0.6,2.2l-28.5,27.8l6.7,39.3c0.1,0.8-0.2,1.6-0.9,2.1c-0.7,0.5-1.6,0.6-2.3,0.2
			l-35.3-18.5L1133-0.5C1132.6-0.4,1132.3-0.3,1132-0.3z M1114.2-70l26.2,25.5c0.5,0.5,0.7,1.2,0.6,1.9l-6.2,36.1l32.4-17
			c0.6-0.3,1.4-0.3,2,0l32.4,17l-6.2-36.1c-0.1-0.7,0.1-1.4,0.6-1.9l26.2-25.5l-36.2-5.3c-0.7-0.1-1.3-0.5-1.6-1.2l-16.2-32.8
			l-16.2,32.8c-0.3,0.6-0.9,1.1-1.6,1.2L1114.2-70z"/>
	</g>
	<g>
		<path class="st1" d="M833.1-76.4l-16.4-33.3l-16.4,33.3c-0.3,0.7-0.9,1.1-1.7,1.2l-36.7,5.3l26.6,25.9c0.5,0.5,0.8,1.2,0.6,2
			l-6.3,36.6l32.9-17.3c0.6-0.3,1.4-0.3,2.1,0l32.9,17.3L844.2-42c-0.1-0.7,0.1-1.4,0.6-2l26.6-25.9l-36.7-5.3
			C834-75.3,833.4-75.7,833.1-76.4z"/>
		<path class="st0" d="M780.1-0.3c-0.5,0-0.9-0.1-1.3-0.4c-0.7-0.5-1-1.3-0.9-2.1l6.7-39.3l-28.5-27.8c-0.6-0.6-0.8-1.4-0.6-2.2
			c0.3-0.8,0.9-1.4,1.8-1.5l39.4-5.7l17.6-35.7c0.4-0.7,1.1-1.2,2-1.2l0,0c0.8,0,1.6,0.5,2,1.2L836-79.4l39.4,5.7
			c0.8,0.1,1.5,0.7,1.8,1.5c0.3,0.8,0,1.7-0.6,2.2l-28.5,27.8l6.7,39.3c0.1,0.8-0.2,1.6-0.9,2.1c-0.7,0.5-1.6,0.6-2.3,0.2
			l-35.3-18.5L781.2-0.5C780.8-0.4,780.5-0.3,780.1-0.3z M762.4-70l26.2,25.5c0.5,0.5,0.7,1.2,0.6,1.9L783-6.4l32.4-17
			c0.6-0.3,1.4-0.3,2,0l32.4,17l-6.2-36.1c-0.1-0.7,0.1-1.4,0.6-1.9L870.5-70l-36.2-5.3c-0.7-0.1-1.3-0.5-1.6-1.2l-16.2-32.8
			l-16.2,32.8c-0.3,0.6-0.9,1.1-1.6,1.2L762.4-70z"/>
	</g>
	<g>
		<path class="st1" d="M900.7-38.7L874.9-91l-25.8,52.3c-0.5,1-1.5,1.7-2.6,1.9l-57.7,8.4l41.7,40.7c0.8,0.8,1.2,1.9,1,3.1
			l-9.9,57.5l51.6-27.1c1-0.5,2.2-0.5,3.2,0l51.6,27.1l-9.9-57.5c-0.2-1.1,0.2-2.3,1-3.1L961-28.4l-57.7-8.4
			C902.2-37,901.2-37.7,900.7-38.7z"/>
		<path class="st0" d="M818,81c-0.7,0-1.4-0.2-2-0.7c-1.1-0.8-1.6-2.1-1.4-3.4l10.6-61.7l-44.9-43.7c-0.9-0.9-1.3-2.3-0.9-3.5
			c0.4-1.2,1.5-2.1,2.8-2.3l62-9L872-99.5c0.6-1.2,1.8-1.9,3.1-1.9l0,0c1.3,0,2.5,0.7,3.1,1.9l27.7,56.2l62,9
			c1.3,0.2,2.4,1.1,2.8,2.3c0.4,1.2,0.1,2.6-0.9,3.5l-44.9,43.7L935.5,77c0.2,1.3-0.3,2.6-1.4,3.4c-1.1,0.8-2.5,0.9-3.6,0.3
			l-55.4-29.1l-55.4,29.1C819.1,80.8,818.6,81,818,81z M790.1-28.6l41.2,40.1c0.8,0.8,1.2,1.9,1,3l-9.7,56.7l50.9-26.8
			c1-0.5,2.2-0.5,3.2,0l50.9,26.8l-9.7-56.7c-0.2-1.1,0.2-2.2,1-3L960-28.6l-56.9-8.3c-1.1-0.2-2.1-0.9-2.6-1.9l-25.4-51.6
			l-25.4,51.6c-0.5,1-1.5,1.7-2.6,1.9L790.1-28.6z"/>
	</g>
	<g>
		<path class="st1" d="M1133.2-38.3l-26-52.7l-26,52.7c-0.5,1-1.5,1.8-2.6,1.9l-58.1,8.4l42.1,41c0.8,0.8,1.2,2,1,3.1l-9.9,57.9
			l52-27.3c1-0.5,2.2-0.5,3.3,0l52,27.3l-9.9-57.9c-0.2-1.1,0.2-2.3,1-3.1l42.1-41l-58.1-8.4C1134.7-36.6,1133.7-37.3,1133.2-38.3z"
			/>
		<path class="st0" d="M1050.3,81c-0.7,0-1.4-0.2-2-0.7c-1.1-0.8-1.6-2.1-1.4-3.4l10.6-61.7l-44.9-43.7c-0.9-0.9-1.3-2.3-0.9-3.5
			c0.4-1.2,1.5-2.1,2.8-2.3l62-9l27.7-56.2c0.6-1.2,1.8-1.9,3.1-1.9l0,0c1.3,0,2.5,0.7,3.1,1.9l27.7,56.2l62,9
			c1.3,0.2,2.4,1.1,2.8,2.3c0.4,1.2,0.1,2.6-0.9,3.5l-44.9,43.7l10.6,61.7c0.2,1.3-0.3,2.6-1.4,3.4c-1.1,0.8-2.5,0.9-3.6,0.3
			l-55.4-29.1l-55.4,29.1C1051.4,80.8,1050.9,81,1050.3,81z M1022.4-28.6l41.2,40.1c0.8,0.8,1.2,1.9,1,3l-9.7,56.7l50.9-26.8
			c1-0.5,2.2-0.5,3.2,0l50.9,26.8l-9.7-56.7c-0.2-1.1,0.2-2.2,1-3l41.2-40.1l-56.9-8.3c-1.1-0.2-2.1-0.9-2.6-1.9l-25.4-51.6
			l-25.4,51.6c-0.5,1-1.5,1.7-2.6,1.9L1022.4-28.6z"/>
	</g>
	<g>
		<path class="st2" d="M1030-18.9L994.9-90l-35.1,71.1c-0.7,1.4-2,2.4-3.6,2.6L877.7-4.9l56.8,55.4c1.1,1.1,1.6,2.7,1.4,4.2
			l-13.4,78.2l70.2-36.9c1.4-0.7,3-0.7,4.4,0l70.2,36.9l-13.4-78.2c-0.3-1.5,0.2-3.1,1.4-4.2L1112-4.9l-78.5-11.4
			C1032-16.6,1030.7-17.5,1030-18.9z"/>
		<path class="st0" d="M917.1,141.4c-1,0-1.9-0.3-2.7-0.9c-1.4-1-2.1-2.8-1.8-4.5l14.2-82.7L866.7-5.3c-1.2-1.2-1.7-3-1.2-4.7
			c0.5-1.7,2-2.9,3.7-3.1l83.1-12.1l37.2-75.3c0.8-1.6,2.4-2.6,4.1-2.6l0,0c1.7,0,3.3,1,4.1,2.6l37.1,75.3l83.1,12.1
			c1.7,0.3,3.2,1.5,3.7,3.1c0.5,1.7,0.1,3.5-1.2,4.7l-60.1,58.6l14.2,82.7c0.3,1.7-0.4,3.5-1.8,4.5c-1.4,1-3.3,1.2-4.8,0.3
			l-74.3-39.1l-74.3,39.1C918.6,141.2,917.8,141.4,917.1,141.4z M879.7-5.4l55.2,53.8c1.1,1.1,1.6,2.6,1.3,4.1l-13,75.9l68.2-35.9
			c1.3-0.7,2.9-0.7,4.3,0l68.2,35.9l-13-75.9c-0.3-1.5,0.2-3,1.3-4.1l55.2-53.8l-76.2-11.1c-1.5-0.2-2.8-1.2-3.5-2.5L993.5-88
			L959.4-19c-0.7,1.4-2,2.3-3.5,2.5L879.7-5.4z"/>
	</g>
</g>
<g>
	<circle cx="1012.4" cy="366.3" r="150.5"/>
	<text transform="matrix(1 0 0 1 925.8752 425.0501)" class="st3 st4" style="font-size:164.4095px; letter-spacing:-2;">10</text>
</g>
<g>
	<path class="st1" d="M1204.7,395l-16.5-33.4l-16.5,33.4c-0.3,0.7-0.9,1.1-1.7,1.2l-36.8,5.3l26.6,26c0.5,0.5,0.8,1.2,0.6,2
		l-6.3,36.7l32.9-17.3c0.6-0.3,1.4-0.3,2.1,0l32.9,17.3l-6.3-36.7c-0.1-0.7,0.1-1.5,0.6-2l26.6-26l-36.8-5.4
		C1205.7,396.1,1205,395.6,1204.7,395z"/>
	<path class="st0" d="M1152,471c-0.5,0-0.9-0.1-1.3-0.4c-0.7-0.5-1-1.3-0.9-2.1l6.7-39.3l-28.5-27.8c-0.6-0.6-0.8-1.4-0.6-2.2
		c0.3-0.8,0.9-1.4,1.8-1.5l39.4-5.7l17.6-35.7c0.4-0.7,1.1-1.2,2-1.2l0,0c0.8,0,1.6,0.5,2,1.2l17.6,35.7l39.4,5.7
		c0.8,0.1,1.5,0.7,1.8,1.5c0.3,0.8,0,1.7-0.6,2.2l-28.5,27.8l6.7,39.3c0.1,0.8-0.2,1.6-0.9,2.1c-0.7,0.5-1.6,0.6-2.3,0.2l-35.3-18.5
		l-35.3,18.5C1152.7,470.9,1152.4,471,1152,471z M1134.3,401.3l26.2,25.5c0.5,0.5,0.7,1.2,0.6,1.9l-6.2,36.1l32.4-17
		c0.6-0.3,1.4-0.3,2,0l32.4,17l-6.2-36.1c-0.1-0.7,0.1-1.4,0.6-1.9l26.2-25.5l-36.2-5.3c-0.7-0.1-1.3-0.5-1.6-1.2l-16.2-32.8
		l-16.2,32.8c-0.3,0.6-0.9,1.1-1.6,1.2L1134.3,401.3z"/>
</g>
<g>
	<path class="st1" d="M852.9,394.1l-16.5-33.5l-16.5,33.5c-0.3,0.7-1,1.1-1.7,1.2l-37,5.4l26.8,26.1c0.5,0.5,0.8,1.2,0.6,2
		l-6.3,36.8l33.1-17.4c0.6-0.3,1.4-0.3,2.1,0l33.1,17.4l-6.3-36.8c-0.1-0.7,0.1-1.5,0.6-2l26.8-26.1l-37-5.4
		C853.8,395.2,853.2,394.8,852.9,394.1z"/>
	<path class="st0" d="M800.2,471c-0.5,0-0.9-0.1-1.3-0.4c-0.7-0.5-1-1.3-0.9-2.1l6.7-39.3l-28.5-27.8c-0.6-0.6-0.8-1.4-0.6-2.2
		c0.3-0.8,0.9-1.4,1.8-1.5l39.4-5.7l17.6-35.7c0.4-0.7,1.1-1.2,2-1.2l0,0c0.8,0,1.6,0.5,2,1.2l17.6,35.7l39.4,5.7
		c0.8,0.1,1.5,0.7,1.8,1.5c0.3,0.8,0,1.7-0.6,2.2l-28.5,27.8l6.7,39.3c0.1,0.8-0.2,1.6-0.9,2.1c-0.7,0.5-1.6,0.6-2.3,0.2l-35.3-18.5
		l-35.3,18.5C800.9,470.9,800.6,471,800.2,471z M782.5,401.3l26.2,25.5c0.5,0.5,0.7,1.2,0.6,1.9l-6.2,36.1l32.4-17
		c0.6-0.3,1.4-0.3,2,0l32.4,17l-6.2-36.1c-0.1-0.7,0.1-1.4,0.6-1.9l26.2-25.5l-36.2-5.3c-0.7-0.1-1.3-0.5-1.6-1.2l-16.2-32.8
		l-16.2,32.8c-0.3,0.6-0.9,1.1-1.6,1.2L782.5,401.3z"/>
</g>
<g>
	<path class="st1" d="M920.6,432.8l-25.4-51.6l-25.4,51.6c-0.5,1-1.5,1.7-2.6,1.9l-56.9,8.3l41.2,40.1c0.8,0.8,1.2,1.9,1,3
		l-9.7,56.7l50.9-26.8c1-0.5,2.2-0.5,3.2,0l50.9,26.8l-9.7-56.7c-0.2-1.1,0.2-2.2,1-3l41.2-40.1l-56.9-8.3
		C922,434.6,921.1,433.9,920.6,432.8z"/>
	<path class="st0" d="M838.1,552.2c-0.7,0-1.4-0.2-2-0.7c-1.1-0.8-1.6-2.1-1.4-3.4l10.6-61.7l-44.9-43.7c-0.9-0.9-1.3-2.3-0.9-3.5
		c0.4-1.2,1.5-2.1,2.8-2.3l62-9l27.7-56.2c0.6-1.2,1.8-1.9,3.1-1.9l0,0c1.3,0,2.5,0.7,3.1,1.9l27.7,56.2l62,9
		c1.3,0.2,2.4,1.1,2.8,2.3c0.4,1.2,0.1,2.6-0.9,3.5L945,486.5l10.6,61.7c0.2,1.3-0.3,2.6-1.4,3.4c-1.1,0.8-2.5,0.9-3.6,0.3
		l-55.4-29.1l-55.4,29.1C839.2,552.1,838.6,552.2,838.1,552.2z M810.2,442.7l41.2,40.1c0.8,0.8,1.2,1.9,1,3l-9.7,56.7l50.9-26.8
		c1-0.5,2.2-0.5,3.2,0l50.9,26.8l-9.7-56.7c-0.2-1.1,0.2-2.2,1-3l41.2-40.1l-56.9-8.3c-1.1-0.2-2.1-0.9-2.6-1.9L895.1,381
		l-25.4,51.6c-0.5,1-1.5,1.7-2.6,1.9L810.2,442.7z"/>
</g>
<g>
	<path class="st1" d="M1153.5,432.6l-25.8-52.3l-25.8,52.3c-0.5,1-1.5,1.7-2.6,1.9l-57.7,8.4l41.8,40.7c0.8,0.8,1.2,2,1,3.1
		l-9.9,57.5L1126,517c1-0.5,2.2-0.5,3.2,0l51.6,27.1l-9.9-57.5c-0.2-1.1,0.2-2.3,1-3.1l41.8-40.7l-57.7-8.4
		C1155,434.3,1154,433.6,1153.5,432.6z"/>
	<path class="st0" d="M1070.4,552.2c-0.7,0-1.4-0.2-2-0.7c-1.1-0.8-1.6-2.1-1.4-3.4l10.6-61.7l-44.9-43.7c-0.9-0.9-1.3-2.3-0.9-3.5
		c0.4-1.2,1.5-2.1,2.8-2.3l62-9l27.7-56.2c0.6-1.2,1.8-1.9,3.1-1.9l0,0c1.3,0,2.5,0.7,3.1,1.9l27.7,56.2l62,9
		c1.3,0.2,2.4,1.1,2.8,2.3c0.4,1.2,0.1,2.6-0.9,3.5l-44.9,43.7l10.6,61.7c0.2,1.3-0.3,2.6-1.4,3.4c-1.1,0.8-2.5,0.9-3.6,0.3
		l-55.4-29.1l-55.4,29.1C1071.5,552.1,1070.9,552.2,1070.4,552.2z M1042.5,442.7l41.2,40.1c0.8,0.8,1.2,1.9,1,3l-9.7,56.7l50.9-26.8
		c1-0.5,2.2-0.5,3.2,0l50.9,26.8l-9.7-56.7c-0.2-1.1,0.2-2.2,1-3l41.2-40.1l-56.9-8.3c-1.1-0.2-2.1-0.9-2.6-1.9l-25.4-51.6
		l-25.4,51.6c-0.5,1-1.5,1.7-2.6,1.9L1042.5,442.7z"/>
</g>
<g>
	<path class="st2" d="M1047.7,452.2l-34.6-70l-34.6,70c-0.7,1.4-2,2.3-3.5,2.5L897.8,466l55.9,54.5c1.1,1.1,1.6,2.6,1.3,4.1
		l-13.2,76.9l69.1-36.3c1.4-0.7,3-0.7,4.3,0l69.1,36.3l-13.2-76.9c-0.3-1.5,0.2-3,1.3-4.1l55.9-54.5l-77.3-11.2
		C1049.7,454.6,1048.3,453.6,1047.7,452.2z"/>
	<path class="st0" d="M937.2,612.7c-1,0-1.9-0.3-2.7-0.9c-1.4-1-2.1-2.8-1.8-4.5l14.2-82.7L886.7,466c-1.2-1.2-1.7-3-1.2-4.7
		c0.5-1.7,2-2.9,3.7-3.1l83.1-12.1l37.2-75.3c0.8-1.6,2.4-2.6,4.1-2.6l0,0c1.7,0,3.3,1,4.1,2.6l37.1,75.3l83.1,12.1
		c1.7,0.3,3.2,1.5,3.7,3.1c0.5,1.7,0.1,3.5-1.2,4.7l-60.1,58.6l14.2,82.7c0.3,1.7-0.4,3.5-1.8,4.5c-1.4,1-3.3,1.2-4.8,0.3
		l-74.3-39.1l-74.3,39.1C938.6,612.5,937.9,612.7,937.2,612.7z M899.8,465.9l55.2,53.8c1.1,1.1,1.6,2.6,1.3,4.1l-13,75.9l68.2-35.9
		c1.3-0.7,2.9-0.7,4.3,0l68.2,35.9l-13-75.9c-0.3-1.5,0.2-3,1.3-4.1l55.2-53.8l-76.2-11.1c-1.5-0.2-2.8-1.2-3.5-2.5l-34.1-69.1
		l-34.1,69.1c-0.7,1.4-2,2.3-3.5,2.5L899.8,465.9z"/>
</g>
<text transform="matrix(1 0 0 1 951.9411 523.3423)" class="st4" style="font-size:52.2896px; letter-spacing:-3;">100%</text>
<g>
	<g>
		<path class="st0" d="M164.2,200.3c-7,0-13,2.5-17.9,7.4c-4.9,4.9-7.4,10.9-7.4,17.9c0,7,2.5,13,7.4,17.9
			c4.9,4.9,10.9,7.4,17.9,7.4c6.9,0,12.9-2.5,17.8-7.4c5-4.9,7.5-10.9,7.5-17.9c0-7-2.5-13-7.5-17.9
			C177.1,202.8,171.1,200.3,164.2,200.3z"/>
		<path class="st0" d="M158.6,146.9c0-7.7-2.8-14.3-8.3-19.9c-5.5-5.5-12.1-8.3-19.8-8.3c-7.7,0-14.3,2.8-19.8,8.3
			c-5.5,5.5-8.3,12.1-8.3,19.9c0,7.7,2.8,14.3,8.3,19.8c5.5,5.5,12.1,8.3,19.8,8.3c7.7,0,14.3-2.8,19.8-8.3
			C155.9,161.3,158.6,154.6,158.6,146.9z"/>
		<path class="st0" d="M321.6,82.3c3.9,0,7.2-1.4,9.9-4.1c2.8-2.8,4.1-6.1,4.1-9.9c0-3.9-1.4-7.2-4.1-9.9c-2.8-2.8-6.1-4.1-9.9-4.1
			c-3.9,0-7.2,1.4-9.9,4.1c-2.8,2.8-4.1,6.1-4.1,9.9s1.4,7.2,4.1,9.9C314.4,80.9,317.7,82.3,321.6,82.3z"/>
		<path class="st0" d="M164.2,37.3c-8.5,0-15.8,3-21.9,9c-6,6-9,13.3-9,21.9c0,8.6,3,15.8,9,21.9c6,6,13.3,9,21.9,9
			c8.5,0,15.8-3,21.9-9c6-6,9-13.3,9-21.9c0-8.5-3-15.8-9-21.9C180.1,40.3,172.8,37.3,164.2,37.3z"/>
		<path class="st0" d="M367.3,135c-3.3-3.3-7.3-4.9-11.9-4.9c-4.7,0-8.7,1.6-11.9,4.9c-3.3,3.3-4.9,7.3-4.9,11.9
			c0,4.7,1.6,8.7,4.9,11.9c3.3,3.3,7.3,4.9,11.9,4.9c4.7,0,8.7-1.6,11.9-4.9c3.3-3.3,4.9-7.3,4.9-11.9
			C372.2,142.2,370.6,138.3,367.3,135z"/>
		<path class="st0" d="M321.6,205.9c-5.4,0-10,1.9-13.9,5.8c-3.9,3.9-5.8,8.5-5.8,13.9c0,5.4,1.9,10,5.8,13.9
			c3.9,3.9,8.5,5.8,13.9,5.8c5.4,0,10-1.9,13.9-5.8c3.9-3.9,5.8-8.5,5.8-13.9c0-5.4-1.9-10-5.8-13.9
			C331.6,207.9,327,205.9,321.6,205.9z"/>
		<path class="st0" d="M242.9,236.9c-6.2,0-11.5,2.2-15.9,6.6c-4.4,4.4-6.6,9.7-6.6,15.9c0,6.2,2.2,11.5,6.6,15.9
			c4.4,4.4,9.7,6.6,15.9,6.6c6.2,0,11.5-2.2,15.9-6.6c4.4-4.4,6.6-9.7,6.6-15.9c0-6.2-2.2-11.5-6.6-15.9
			C254.4,239.1,249.1,236.9,242.9,236.9z"/>
		<path class="st0" d="M242.9,0.8c-9.4,0-17.3,3.3-23.9,9.8c-6.6,6.6-9.8,14.5-9.8,23.9c0,9.4,3.3,17.3,9.8,23.9
			c6.6,6.6,14.5,9.8,23.9,9.8c9.4,0,17.3-3.3,23.9-9.8c6.6-6.6,9.8-14.5,9.8-23.9c0-9.4-3.3-17.3-9.8-23.9
			C260.3,4.1,252.3,0.8,242.9,0.8z"/>
	</g>
</g>
<text transform="matrix(1 0 0 1 197.769 203.9404)" class="st4 st5 st6">5</text>
<g>
	<path class="st2" d="M67.6,243.8l-14.5-29.4l-14.5,29.4c-0.3,0.6-0.8,1-1.5,1.1l-32.4,4.7l23.5,22.9c0.5,0.4,0.7,1.1,0.6,1.7
		l-5.5,32.3l29-15.2c0.6-0.3,1.2-0.3,1.8,0l29,15.2l-5.5-32.3c-0.1-0.6,0.1-1.3,0.6-1.7l23.5-22.9L69,244.8
		C68.4,244.7,67.8,244.3,67.6,243.8z"/>
	<path class="st0" d="M21.5,311.2c-0.4,0-0.8-0.1-1.1-0.4c-0.6-0.4-0.9-1.1-0.8-1.9l5.9-34.3L0.6,250.3c-0.5-0.5-0.7-1.3-0.5-2
		c0.2-0.7,0.8-1.2,1.5-1.3l34.5-5l15.4-31.2c0.3-0.7,1-1.1,1.7-1.1l0,0c0.7,0,1.4,0.4,1.7,1.1l15.4,31.2l34.5,5
		c0.7,0.1,1.3,0.6,1.5,1.3c0.2,0.7,0,1.4-0.5,2l-24.9,24.3l5.9,34.3c0.1,0.7-0.2,1.4-0.8,1.9c-0.6,0.4-1.4,0.5-2,0.1l-30.8-16.2
		L22.4,311C22.1,311.1,21.8,311.2,21.5,311.2z M6,250.3l22.9,22.3c0.4,0.4,0.7,1.1,0.5,1.7L24,305.8l28.3-14.9
		c0.6-0.3,1.2-0.3,1.8,0l28.3,14.9L77,274.3c-0.1-0.6,0.1-1.2,0.5-1.7l22.9-22.3l-31.6-4.6c-0.6-0.1-1.2-0.5-1.4-1L53.2,216
		l-14.2,28.7c-0.3,0.6-0.8,1-1.4,1L6,250.3z"/>
</g>
<g>
	<path class="st2" d="M122.7,239l-19.3-39.2L84.1,239c-0.4,0.8-1.1,1.3-2,1.4l-43.2,6.3l31.3,30.5c0.6,0.6,0.9,1.5,0.7,2.3
		l-7.4,43.1l38.7-20.3c0.8-0.4,1.7-0.4,2.4,0l38.7,20.3l-7.4-43.1c-0.1-0.8,0.1-1.7,0.7-2.3l31.3-30.5l-43.2-6.3
		C123.8,240.3,123.1,239.8,122.7,239z"/>
	<path class="st0" d="M60.3,329c-0.5,0-1.1-0.2-1.5-0.5c-0.8-0.6-1.2-1.6-1-2.5l8-46.4L32,246.8c-0.7-0.7-1-1.7-0.7-2.6
		c0.3-0.9,1.1-1.6,2.1-1.8l46.6-6.8l20.8-42.2c0.4-0.9,1.3-1.4,2.3-1.4l0,0c1,0,1.9,0.6,2.3,1.4l20.8,42.2l46.6,6.8
		c1,0.1,1.8,0.8,2.1,1.8c0.3,0.9,0.1,2-0.7,2.6l-33.7,32.9l8,46.4c0.2,1-0.2,1.9-1,2.5c-0.8,0.6-1.8,0.7-2.7,0.2l-41.7-21.9
		l-41.7,21.9C61.1,328.9,60.7,329,60.3,329z M39.3,246.7l30.9,30.2c0.6,0.6,0.9,1.4,0.7,2.3l-7.3,42.6l38.2-20.1
		c0.7-0.4,1.6-0.4,2.4,0l38.2,20.1l-7.3-42.6c-0.1-0.8,0.1-1.7,0.7-2.3l30.9-30.2l-42.7-6.2c-0.8-0.1-1.6-0.6-1.9-1.4l-19.1-38.7
		L84,239.1c-0.4,0.8-1.1,1.3-1.9,1.4L39.3,246.7z"/>
</g>
<g>
	<path class="st2" d="M198.9,233.5l-24.5-49.7l-24.5,49.7c-0.5,1-1.4,1.7-2.5,1.8l-54.9,8l39.7,38.7c0.8,0.8,1.1,1.9,0.9,2.9
		l-9.4,54.6l49.1-25.8c1-0.5,2.1-0.5,3.1,0l49.1,25.8l-9.4-54.6c-0.2-1.1,0.2-2.2,0.9-2.9l39.7-38.7l-54.9-8
		C200.3,235.2,199.4,234.5,198.9,233.5z"/>
	<path class="st0" d="M119.8,347.5c-0.7,0-1.4-0.2-1.9-0.6c-1-0.7-1.5-2-1.3-3.2l10.1-58.9l-42.8-41.7c-0.9-0.9-1.2-2.2-0.8-3.3
		c0.4-1.2,1.4-2,2.6-2.2l59.1-8.6l26.5-53.6c0.5-1.1,1.7-1.8,2.9-1.8l0,0c1.2,0,2.4,0.7,2.9,1.8l26.5,53.6l59.2,8.6
		c1.2,0.2,2.3,1,2.6,2.2c0.4,1.2,0.1,2.5-0.8,3.3l-42.8,41.7l10.1,58.9c0.2,1.2-0.3,2.5-1.3,3.2c-1,0.7-2.3,0.8-3.4,0.2l-52.9-27.8
		l-52.9,27.8C120.8,347.4,120.3,347.5,119.8,347.5z M93.2,243l39.3,38.3c0.8,0.7,1.1,1.8,0.9,2.9l-9.3,54.1l48.6-25.5
		c1-0.5,2.1-0.5,3,0l48.6,25.5l-9.3-54.1c-0.2-1.1,0.2-2.1,0.9-2.9l39.3-38.3l-54.3-7.9c-1.1-0.2-2-0.8-2.5-1.8l-24.3-49.2
		l-24.3,49.2c-0.5,1-1.4,1.6-2.5,1.8L93.2,243z"/>
</g>
<g>
	<path class="st2" d="M290.2,228.8L261.7,171l-28.5,57.8c-0.6,1.1-1.6,1.9-2.9,2.1l-63.7,9.3l46.1,45c0.9,0.9,1.3,2.2,1.1,3.4
		L202.9,352l57-30c1.1-0.6,2.4-0.6,3.6,0l57,30l-10.9-63.5c-0.2-1.2,0.2-2.5,1.1-3.4l46.1-45l-63.7-9.3
		C291.8,230.7,290.8,229.9,290.2,228.8z"/>
	<path class="st0" d="M197.8,362.7c-0.8,0-1.6-0.2-2.3-0.7c-1.2-0.9-1.8-2.3-1.5-3.8l11.9-69.2l-50.3-49c-1-1-1.4-2.5-1-3.9
		c0.5-1.4,1.7-2.4,3.1-2.6l69.4-10.1l31.1-62.9c0.6-1.3,2-2.1,3.4-2.1l0,0c1.5,0,2.8,0.8,3.4,2.1l31.1,62.9l69.4,10.1
		c1.4,0.2,2.6,1.2,3.1,2.6c0.4,1.4,0.1,2.9-1,3.9l-50.3,49l11.9,69.2c0.2,1.4-0.3,2.9-1.5,3.8c-1.2,0.9-2.8,1-4,0.3l-62.1-32.7
		l-62.1,32.7C199,362.5,198.4,362.7,197.8,362.7z M166.5,240l46.1,45c0.9,0.9,1.3,2.2,1.1,3.4l-10.9,63.5l57-30
		c1.1-0.6,2.4-0.6,3.6,0l57,30l-10.9-63.5c-0.2-1.2,0.2-2.5,1.1-3.4l46.1-45l-63.7-9.3c-1.3-0.2-2.3-1-2.9-2.1l-28.5-57.8
		l-28.5,57.8c-0.6,1.1-1.6,1.9-2.9,2.1L166.5,240z"/>
</g>
<g>
	<path class="st2" d="M380.4,222.4l-34.1-69.1l-34.1,69.1c-0.7,1.4-2,2.3-3.5,2.5L232.5,236l55.2,53.8c1.1,1.1,1.6,2.6,1.3,4.1
		l-13,75.9l68.2-35.9c1.3-0.7,2.9-0.7,4.3,0l68.2,35.9l-13-75.9c-0.3-1.5,0.2-3,1.3-4.1l55.2-53.8l-76.2-11.1
		C382.3,224.7,381.1,223.7,380.4,222.4z"/>
	<path class="st0" d="M269.8,382.7c-1,0-1.9-0.3-2.7-0.9c-1.4-1-2.1-2.8-1.8-4.5l14.2-82.7L219.4,236c-1.2-1.2-1.7-3-1.2-4.7
		c0.5-1.7,2-2.9,3.7-3.1l83.1-12.1l37.2-75.3c0.8-1.6,2.4-2.6,4.1-2.6l0,0c1.7,0,3.3,1,4.1,2.6l37.1,75.3l83.1,12.1
		c1.7,0.3,3.2,1.5,3.7,3.1c0.5,1.7,0.1,3.5-1.2,4.7l-60.1,58.6l14.2,82.7c0.3,1.7-0.4,3.5-1.8,4.5c-1.4,1-3.3,1.2-4.8,0.3
		l-74.3-39.1L272,382.2C271.3,382.5,270.6,382.7,269.8,382.7z M232.5,235.9l55.2,53.8c1.1,1.1,1.6,2.6,1.3,4.1l-13,75.9l68.2-35.9
		c1.3-0.7,2.9-0.7,4.3,0l68.2,35.9l-13-75.9c-0.3-1.5,0.2-3,1.3-4.1l55.2-53.8l-76.2-11.1c-1.5-0.2-2.8-1.2-3.5-2.5l-34.1-69.1
		l-34.1,69.1c-0.7,1.4-2,2.3-3.5,2.5L232.5,235.9z"/>
</g>
</svg>
