<?xml version="1.0" encoding="utf-8"?>
<!-- Generator: Adobe Illustrator 21.0.2, SVG Export Plug-In . SVG Version: 6.00 Build 0)  -->
<svg version="1.1" id="Layer_1" xmlns="http://www.w3.org/2000/svg" xmlns:xlink="http://www.w3.org/1999/xlink" x="0px" y="0px"
	 viewBox="0 0 474.6 384.3" style="enable-background:new 0 0 474.6 384.3;" xml:space="preserve">
<style type="text/css">
	.st0{fill:#010101;}
	.st1{fill:#FCEA00;}
	.st2{fill:#FDEB01;}
	.st3{fill:#FFFFFF;}
	.st4{fill:#FFFFFF;stroke:#000000;stroke-width:8.5039;stroke-miterlimit:10;}
	.st5{fill:#060507;}
	.st6{font-family:'SFUIDisplay-Medium';}
	.st7{font-size:53.6011px;}
</style>
<g>
	<g>
		<path class="st0" d="M-634.3,550.3c-76.2,0-138.1,61.8-138.1,138.1s61.8,138.1,138.1,138.1c76.2,0,138.1-61.8,138.1-138.1
			S-558,550.3-634.3,550.3z M-634.3,811.5c-68.1,0-123.2-55.2-123.2-123.2s55.2-123.2,123.2-123.2S-511,620.3-511,688.3
			S-566.2,811.5-634.3,811.5z"/>
		<path class="st0" d="M-634.3,537.8c-83.1,0-150.5,67.4-150.5,150.5c0,83.1,67.4,150.5,150.5,150.5c83.1,0,150.5-67.4,150.5-150.5
			C-483.7,605.2-551.1,537.8-634.3,537.8z M-634.3,829.1c-77.8,0-140.8-63-140.8-140.8s63-140.8,140.8-140.8s140.8,63,140.8,140.8
			S-556.5,829.1-634.3,829.1z"/>
		<path class="st0" d="M-634.3,660.1c-15.6,0-28.2,12.6-28.2,28.2c0,15.6,12.6,28.2,28.2,28.2s28.2-12.6,28.2-28.2
			C-606.1,672.8-618.7,660.1-634.3,660.1z M-634.3,711.6c-12.9,0-23.3-10.4-23.3-23.3c0-12.9,10.4-23.3,23.3-23.3
			c12.9,0,23.3,10.4,23.3,23.3C-611,701.2-621.4,711.6-634.3,711.6z"/>
		<circle class="st0" cx="-634.3" cy="688.3" r="18.9"/>
		<path class="st0" d="M-634.3,622.7c-36.2,0-65.6,29.4-65.6,65.6c0,36.2,29.4,65.6,65.6,65.6c36.2,0,65.6-29.4,65.6-65.6
			C-568.7,652.1-598,622.7-634.3,622.7z M-608.8,636.1c4.1,0,7.5,3.4,7.5,7.5s-3.4,7.5-7.5,7.5s-7.5-3.4-7.5-7.5
			S-612.9,636.1-608.8,636.1z M-659.7,636.1c4.1,0,7.5,3.4,7.5,7.5s-3.4,7.5-7.5,7.5c-4.1,0-7.5-3.4-7.5-7.5
			S-663.9,636.1-659.7,636.1z M-685.9,695.8c-4.1,0-7.5-3.4-7.5-7.5c0-4.1,3.4-7.5,7.5-7.5s7.5,3.4,7.5,7.5
			S-681.8,695.8-685.9,695.8z M-659.7,740.6c-4.1,0-7.5-3.4-7.5-7.5c0-4.1,3.4-7.5,7.5-7.5c4.1,0,7.5,3.4,7.5,7.5
			C-652.2,737.2-655.6,740.6-659.7,740.6z M-608.8,740.6c-4.1,0-7.5-3.4-7.5-7.5c0-4.1,3.4-7.5,7.5-7.5s7.5,3.4,7.5,7.5
			C-601.3,737.2-604.7,740.6-608.8,740.6z M-634.3,725.9c-20.8,0-37.6-16.8-37.6-37.6c0-20.8,16.8-37.6,37.6-37.6
			s37.6,16.8,37.6,37.6C-596.7,709.1-613.5,725.9-634.3,725.9z M-582.6,695.8c-4.1,0-7.5-3.4-7.5-7.5c0-4.1,3.4-7.5,7.5-7.5
			s7.5,3.4,7.5,7.5S-578.4,695.8-582.6,695.8z"/>
		<path class="st0" d="M-550.5,604.5c-46.3-46.3-121.3-46.3-167.6,0c-46.3,46.3-46.3,121.3,0,167.6c46.3,46.3,121.3,46.3,167.6,0
			C-504.2,725.8-504.2,650.8-550.5,604.5z M-580.7,608.1c7.4-7.4,19.3-7.4,26.7,0c7.4,7.4,7.4,19.3,0,26.7c-7.4,7.4-19.3,7.4-26.7,0
			C-588.1,627.4-588.1,615.5-580.7,608.1z M-584.6,738c-27.4,27.4-71.9,27.4-99.4,0c-27.4-27.4-27.4-71.9,0-99.4
			c27.4-27.4,71.9-27.4,99.4,0C-557.1,666.1-557.1,710.6-584.6,738z M-634.3,574.9c10.4,0,18.9,8.4,18.9,18.9
			c0,10.4-8.4,18.9-18.9,18.9s-18.9-8.4-18.9-18.9S-644.7,574.9-634.3,574.9z M-714.5,608.1c7.4-7.4,19.3-7.4,26.7,0
			s7.4,19.3,0,26.7s-19.3,7.4-26.7,0C-721.8,627.4-721.9,615.5-714.5,608.1z M-747.7,688.3c0-10.4,8.4-18.9,18.9-18.9
			s18.9,8.4,18.9,18.9c0,10.4-8.4,18.9-18.9,18.9S-747.7,698.7-747.7,688.3z M-687.8,768.6c-7.4,7.4-19.3,7.4-26.7,0
			c-7.4-7.4-7.4-19.3,0-26.7s19.3-7.4,26.7,0S-680.4,761.2-687.8,768.6z M-634.3,801.8c-10.4,0-18.9-8.4-18.9-18.9
			s8.4-18.9,18.9-18.9s18.9,8.4,18.9,18.9S-623.8,801.8-634.3,801.8z M-554,768.6c-7.4,7.4-19.3,7.4-26.7,0
			c-7.4-7.4-7.4-19.3,0-26.7c7.4-7.4,19.3-7.4,26.7,0C-546.7,749.2-546.7,761.2-554,768.6z M-539.7,707.2
			c-10.4,0-18.9-8.4-18.9-18.9s8.4-18.9,18.9-18.9c10.4,0,18.9,8.4,18.9,18.9S-529.2,707.2-539.7,707.2z"/>
	</g>
	<g>
		<path class="st1" d="M-443.1,703.4l-16.5-33.4l-16.5,33.4c-0.3,0.7-0.9,1.1-1.7,1.2l-36.9,5.4l26.7,26c0.5,0.5,0.8,1.2,0.6,2
			l-6.3,36.7l33-17.3c0.6-0.3,1.4-0.3,2.1,0l33,17.3l-6.3-36.7c-0.1-0.7,0.1-1.5,0.6-2l26.7-26l-36.9-5.4
			C-442.1,704.5-442.7,704-443.1,703.4z"/>
		<path class="st0" d="M-495.8,779.4c-0.5,0-0.9-0.1-1.3-0.4c-0.7-0.5-1-1.3-0.9-2.1l6.7-39.3l-28.5-27.8c-0.6-0.6-0.8-1.4-0.6-2.2
			c0.3-0.8,0.9-1.4,1.8-1.5l39.4-5.7l17.6-35.7c0.4-0.7,1.1-1.2,2-1.2l0,0c0.8,0,1.6,0.5,2,1.2l17.6,35.7l39.4,5.7
			c0.8,0.1,1.5,0.7,1.8,1.5c0.3,0.8,0,1.7-0.6,2.2l-28.5,27.8l6.7,39.3c0.1,0.8-0.2,1.6-0.9,2.1c-0.7,0.5-1.6,0.6-2.3,0.2
			l-35.3-18.5l-35.3,18.5C-495.1,779.3-495.5,779.4-495.8,779.4z M-513.6,709.7l26.2,25.5c0.5,0.5,0.7,1.2,0.6,1.9l-6.2,36.1
			l32.4-17c0.6-0.3,1.4-0.3,2,0l32.4,17l-6.2-36.1c-0.1-0.7,0.1-1.4,0.6-1.9l26.2-25.5l-36.2-5.3c-0.7-0.1-1.3-0.5-1.6-1.2
			l-16.2-32.8l-16.2,32.8c-0.3,0.6-0.9,1.1-1.6,1.2L-513.6,709.7z"/>
	</g>
	<g>
		<path class="st1" d="M-794.7,703.3l-16.4-33.3l-16.4,33.3c-0.3,0.7-0.9,1.1-1.7,1.2l-36.7,5.3l26.6,25.9c0.5,0.5,0.8,1.2,0.6,2
			l-6.3,36.6l32.9-17.3c0.6-0.3,1.4-0.3,2.1,0l32.9,17.3l-6.3-36.6c-0.1-0.7,0.1-1.4,0.6-2l26.6-25.9l-36.7-5.3
			C-793.8,704.4-794.4,703.9-794.7,703.3z"/>
		<path class="st0" d="M-847.7,779.4c-0.5,0-0.9-0.1-1.3-0.4c-0.7-0.5-1-1.3-0.9-2.1l6.7-39.3l-28.5-27.8c-0.6-0.6-0.8-1.4-0.6-2.2
			c0.3-0.8,0.9-1.4,1.8-1.5l39.4-5.7l17.6-35.7c0.4-0.7,1.1-1.2,2-1.2l0,0c0.8,0,1.6,0.5,2,1.2l17.6,35.7l39.4,5.7
			c0.8,0.1,1.5,0.7,1.8,1.5c0.3,0.8,0,1.7-0.6,2.2l-28.5,27.8l6.7,39.3c0.1,0.8-0.2,1.6-0.9,2.1c-0.7,0.5-1.6,0.6-2.3,0.2
			l-35.3-18.5l-35.3,18.5C-847,779.3-847.3,779.4-847.7,779.4z M-865.4,709.7l26.2,25.5c0.5,0.5,0.7,1.2,0.6,1.9l-6.2,36.1l32.4-17
			c0.6-0.3,1.4-0.3,2,0l32.4,17l-6.2-36.1c-0.1-0.7,0.1-1.4,0.6-1.9l26.2-25.5l-36.2-5.3c-0.7-0.1-1.3-0.5-1.6-1.2l-16.2-32.8
			l-16.2,32.8c-0.3,0.6-0.9,1.1-1.6,1.2L-865.4,709.7z"/>
	</g>
	<g>
		<path class="st1" d="M-727.1,741l-25.8-52.3l-25.8,52.3c-0.5,1-1.5,1.7-2.6,1.9l-57.7,8.4l41.7,40.7c0.8,0.8,1.2,1.9,1,3.1
			l-9.9,57.5l51.6-27.1c1-0.5,2.2-0.5,3.2,0l51.6,27.1l-9.9-57.5c-0.2-1.1,0.2-2.3,1-3.1l41.7-40.7l-57.7-8.4
			C-725.6,742.7-726.6,742-727.1,741z"/>
		<path class="st0" d="M-809.8,860.6c-0.7,0-1.4-0.2-2-0.7c-1.1-0.8-1.6-2.1-1.4-3.4l10.6-61.7l-44.9-43.7c-0.9-0.9-1.3-2.3-0.9-3.5
			c0.4-1.2,1.5-2.1,2.8-2.3l62-9l27.7-56.2c0.6-1.2,1.8-1.9,3.1-1.9l0,0c1.3,0,2.5,0.7,3.1,1.9l27.7,56.2l62,9
			c1.3,0.2,2.4,1.1,2.8,2.3c0.4,1.2,0.1,2.6-0.9,3.5l-44.9,43.7l10.6,61.7c0.2,1.3-0.3,2.6-1.4,3.4c-1.1,0.8-2.5,0.9-3.6,0.3
			l-55.4-29.1l-55.4,29.1C-808.7,860.5-809.2,860.6-809.8,860.6z M-837.7,751.1l41.2,40.1c0.8,0.8,1.2,1.9,1,3l-9.7,56.7l50.9-26.8
			c1-0.5,2.2-0.5,3.2,0l50.9,26.8l-9.7-56.7c-0.2-1.1,0.2-2.2,1-3l41.2-40.1l-56.9-8.3c-1.1-0.2-2.1-0.9-2.6-1.9l-25.4-51.6
			l-25.4,51.6c-0.5,1-1.5,1.7-2.6,1.9L-837.7,751.1z"/>
	</g>
	<g>
		<path class="st1" d="M-494.6,741.3l-26-52.7l-26,52.7c-0.5,1-1.5,1.8-2.6,1.9l-58.1,8.4l42.1,41c0.8,0.8,1.2,2,1,3.1l-9.9,57.9
			l52-27.3c1-0.5,2.2-0.5,3.3,0l52,27.3l-9.9-57.9c-0.2-1.1,0.2-2.3,1-3.1l42.1-41l-58.1-8.4C-493.1,743.1-494.1,742.4-494.6,741.3z
			"/>
		<path class="st0" d="M-577.5,860.6c-0.7,0-1.4-0.2-2-0.7c-1.1-0.8-1.6-2.1-1.4-3.4l10.6-61.7l-44.9-43.7c-0.9-0.9-1.3-2.3-0.9-3.5
			c0.4-1.2,1.5-2.1,2.8-2.3l62-9l27.7-56.2c0.6-1.2,1.8-1.9,3.1-1.9l0,0c1.3,0,2.5,0.7,3.1,1.9l27.7,56.2l62,9
			c1.3,0.2,2.4,1.1,2.8,2.3c0.4,1.2,0.1,2.6-0.9,3.5l-44.9,43.7l10.6,61.7c0.2,1.3-0.3,2.6-1.4,3.4c-1.1,0.8-2.5,0.9-3.6,0.3
			l-55.4-29.1l-55.4,29.1C-576.4,860.5-576.9,860.6-577.5,860.6z M-605.4,751.1l41.2,40.1c0.8,0.8,1.2,1.9,1,3l-9.7,56.7l50.9-26.8
			c1-0.5,2.2-0.5,3.2,0L-468,851l-9.7-56.7c-0.2-1.1,0.2-2.2,1-3l41.2-40.1l-56.9-8.3c-1.1-0.2-2.1-0.9-2.6-1.9l-25.4-51.6
			l-25.4,51.6c-0.5,1-1.5,1.7-2.6,1.9L-605.4,751.1z"/>
	</g>
	<g>
		<path class="st2" d="M-597.8,760.7l-35.1-71.1l-35.1,71.1c-0.7,1.4-2,2.4-3.6,2.6l-78.5,11.4l56.8,55.4c1.1,1.1,1.6,2.7,1.4,4.2
			l-13.4,78.2l70.2-36.9c1.4-0.7,3-0.7,4.4,0l70.2,36.9l-13.4-78.2c-0.3-1.5,0.2-3.1,1.4-4.2l56.8-55.4l-78.5-11.4
			C-595.8,763.1-597.1,762.1-597.8,760.7z"/>
		<path class="st0" d="M-710.7,921.1c-1,0-1.9-0.3-2.7-0.9c-1.4-1-2.1-2.8-1.8-4.5L-701,833l-60.1-58.6c-1.2-1.2-1.7-3-1.2-4.7
			c0.5-1.7,2-2.9,3.7-3.1l83.1-12.1l37.2-75.3c0.8-1.6,2.4-2.6,4.1-2.6l0,0c1.7,0,3.3,1,4.1,2.6l37.1,75.3l83.1,12.1
			c1.7,0.3,3.2,1.5,3.7,3.1c0.5,1.7,0.1,3.5-1.2,4.7l-60.1,58.6l14.2,82.7c0.3,1.7-0.4,3.5-1.8,4.5c-1.4,1-3.3,1.2-4.8,0.3
			l-74.3-39.1l-74.3,39.1C-709.2,920.9-710,921.1-710.7,921.1z M-748.1,774.3l55.2,53.8c1.1,1.1,1.6,2.6,1.3,4.1l-13,75.9l68.2-35.9
			c1.3-0.7,2.9-0.7,4.3,0l68.2,35.9l-13-75.9c-0.3-1.5,0.2-3,1.3-4.1l55.2-53.8l-76.2-11.1c-1.5-0.2-2.8-1.2-3.5-2.5l-34.1-69.1
			l-34.1,69.1c-0.7,1.4-2,2.3-3.5,2.5L-748.1,774.3z"/>
	</g>
</g>
<g>
	<g>
		<circle cx="-507.2" cy="-342.1" r="150.5"/>
		<text transform="matrix(1 0 0 1 -593.7089 -299.3139)" class="st3 st6" style="font-size:164.4095px; letter-spacing:-2;">10</text>
	</g>
	<g>
		<path class="st1" d="M-314.9-327.4l-16.5-33.4l-16.5,33.4c-0.3,0.7-0.9,1.1-1.7,1.2l-36.8,5.3l26.6,26c0.5,0.5,0.8,1.2,0.6,2
			l-6.3,36.7l32.9-17.3c0.6-0.3,1.4-0.3,2.1,0l32.9,17.3l-6.3-36.7c-0.1-0.7,0.1-1.5,0.6-2l26.6-26l-36.8-5.4
			C-313.9-326.3-314.6-326.8-314.9-327.4z"/>
		<path class="st0" d="M-367.6-251.4c-0.5,0-0.9-0.1-1.3-0.4c-0.7-0.5-1-1.3-0.9-2.1l6.7-39.3l-28.5-27.8c-0.6-0.6-0.8-1.4-0.6-2.2
			c0.3-0.8,0.9-1.4,1.8-1.5l39.4-5.7l17.6-35.7c0.4-0.7,1.1-1.2,2-1.2l0,0c0.8,0,1.6,0.5,2,1.2l17.6,35.7l39.4,5.7
			c0.8,0.1,1.5,0.7,1.8,1.5c0.3,0.8,0,1.7-0.6,2.2l-28.5,27.8l6.7,39.3c0.1,0.8-0.2,1.6-0.9,2.1c-0.7,0.5-1.6,0.6-2.3,0.2
			l-35.3-18.5l-35.3,18.5C-366.9-251.5-367.2-251.4-367.6-251.4z M-385.3-321l26.2,25.5c0.5,0.5,0.7,1.2,0.6,1.9l-6.2,36.1l32.4-17
			c0.6-0.3,1.4-0.3,2,0l32.4,17l-6.2-36.1c-0.1-0.7,0.1-1.4,0.6-1.9l26.2-25.5l-36.2-5.3c-0.7-0.1-1.3-0.5-1.6-1.2l-16.2-32.8
			l-16.2,32.8c-0.3,0.6-0.9,1.1-1.6,1.2L-385.3-321z"/>
	</g>
	<g>
		<path class="st1" d="M-666.7-328.3l-16.5-33.5l-16.5,33.5c-0.3,0.7-1,1.1-1.7,1.2l-37,5.4l26.8,26.1c0.5,0.5,0.8,1.2,0.6,2
			l-6.3,36.8l33.1-17.4c0.6-0.3,1.4-0.3,2.1,0l33.1,17.4l-6.3-36.8c-0.1-0.7,0.1-1.5,0.6-2l26.8-26.1l-37-5.4
			C-665.8-327.1-666.4-327.6-666.7-328.3z"/>
		<path class="st0" d="M-719.4-251.4c-0.5,0-0.9-0.1-1.3-0.4c-0.7-0.5-1-1.3-0.9-2.1l6.7-39.3l-28.5-27.8c-0.6-0.6-0.8-1.4-0.6-2.2
			c0.3-0.8,0.9-1.4,1.8-1.5l39.4-5.7l17.6-35.7c0.4-0.7,1.1-1.2,2-1.2l0,0c0.8,0,1.6,0.5,2,1.2l17.6,35.7l39.4,5.7
			c0.8,0.1,1.5,0.7,1.8,1.5c0.3,0.8,0,1.7-0.6,2.2l-28.5,27.8l6.7,39.3c0.1,0.8-0.2,1.6-0.9,2.1c-0.7,0.5-1.6,0.6-2.3,0.2
			l-35.3-18.5l-35.3,18.5C-718.7-251.5-719-251.4-719.4-251.4z M-737.1-321l26.2,25.5c0.5,0.5,0.7,1.2,0.6,1.9l-6.2,36.1l32.4-17
			c0.6-0.3,1.4-0.3,2,0l32.4,17l-6.2-36.1c-0.1-0.7,0.1-1.4,0.6-1.9l26.2-25.5l-36.2-5.3c-0.7-0.1-1.3-0.5-1.6-1.2l-16.2-32.8
			l-16.2,32.8c-0.3,0.6-0.9,1.1-1.6,1.2L-737.1-321z"/>
	</g>
	<g>
		<path class="st1" d="M-599-289.5l-25.4-51.6l-25.4,51.6c-0.5,1-1.5,1.7-2.6,1.9l-56.9,8.3l41.2,40.1c0.8,0.8,1.2,1.9,1,3
			l-9.7,56.7l50.9-26.8c1-0.5,2.2-0.5,3.2,0l50.9,26.8l-9.7-56.7c-0.2-1.1,0.2-2.2,1-3l41.2-40.1l-56.9-8.3
			C-597.5-287.8-598.5-288.5-599-289.5z"/>
		<path class="st0" d="M-681.5-170.1c-0.7,0-1.4-0.2-2-0.7c-1.1-0.8-1.6-2.1-1.4-3.4l10.6-61.7l-44.9-43.7c-0.9-0.9-1.3-2.3-0.9-3.5
			c0.4-1.2,1.5-2.1,2.8-2.3l62-9l27.7-56.2c0.6-1.2,1.8-1.9,3.1-1.9l0,0c1.3,0,2.5,0.7,3.1,1.9l27.7,56.2l62,9
			c1.3,0.2,2.4,1.1,2.8,2.3c0.4,1.2,0.1,2.6-0.9,3.5l-44.9,43.7l10.6,61.7c0.2,1.3-0.3,2.6-1.4,3.4c-1.1,0.8-2.5,0.9-3.6,0.3
			l-55.4-29.1l-55.4,29.1C-680.4-170.2-681-170.1-681.5-170.1z M-709.4-279.6l41.2,40.1c0.8,0.8,1.2,1.9,1,3l-9.7,56.7l50.9-26.8
			c1-0.5,2.2-0.5,3.2,0l50.9,26.8l-9.7-56.7c-0.2-1.1,0.2-2.2,1-3l41.2-40.1l-56.9-8.3c-1.1-0.2-2.1-0.9-2.6-1.9l-25.4-51.6
			l-25.4,51.6c-0.5,1-1.5,1.7-2.6,1.9L-709.4-279.6z"/>
	</g>
	<g>
		<path class="st1" d="M-366.1-289.8l-25.8-52.3l-25.8,52.3c-0.5,1-1.5,1.7-2.6,1.9l-57.7,8.4l41.8,40.7c0.8,0.8,1.2,2,1,3.1
			l-9.9,57.5l51.6-27.1c1-0.5,2.2-0.5,3.2,0l51.6,27.1l-9.9-57.5c-0.2-1.1,0.2-2.3,1-3.1l41.8-40.7l-57.7-8.4
			C-364.6-288-365.6-288.7-366.1-289.8z"/>
		<path class="st0" d="M-449.2-170.1c-0.7,0-1.4-0.2-2-0.7c-1.1-0.8-1.6-2.1-1.4-3.4l10.6-61.7l-44.9-43.7c-0.9-0.9-1.3-2.3-0.9-3.5
			c0.4-1.2,1.5-2.1,2.8-2.3l62-9l27.7-56.2c0.6-1.2,1.8-1.9,3.1-1.9l0,0c1.3,0,2.5,0.7,3.1,1.9l27.7,56.2l62,9
			c1.3,0.2,2.4,1.1,2.8,2.3c0.4,1.2,0.1,2.6-0.9,3.5l-44.9,43.7l10.6,61.7c0.2,1.3-0.3,2.6-1.4,3.4c-1.1,0.8-2.5,0.9-3.6,0.3
			l-55.4-29.1l-55.4,29.1C-448.1-170.2-448.7-170.1-449.2-170.1z M-477.1-279.6l41.2,40.1c0.8,0.8,1.2,1.9,1,3l-9.7,56.7l50.9-26.8
			c1-0.5,2.2-0.5,3.2,0l50.9,26.8l-9.7-56.7c-0.2-1.1,0.2-2.2,1-3l41.2-40.1l-56.9-8.3c-1.1-0.2-2.1-0.9-2.6-1.9l-25.4-51.6
			l-25.4,51.6c-0.5,1-1.5,1.7-2.6,1.9L-477.1-279.6z"/>
	</g>
	<g>
		<path class="st2" d="M-471.9-270.1l-34.6-70l-34.6,70c-0.7,1.4-2,2.3-3.5,2.5l-77.3,11.2l55.9,54.5c1.1,1.1,1.6,2.6,1.3,4.1
			l-13.2,76.9l69.1-36.3c1.4-0.7,3-0.7,4.3,0l69.1,36.3l-13.2-76.9c-0.3-1.5,0.2-3,1.3-4.1l55.9-54.5l-77.3-11.2
			C-469.9-267.8-471.2-268.7-471.9-270.1z"/>
		<path class="st0" d="M-582.4-109.7c-1,0-1.9-0.3-2.7-0.9c-1.4-1-2.1-2.8-1.8-4.5l14.2-82.7l-60.1-58.6c-1.2-1.2-1.7-3-1.2-4.7
			c0.5-1.7,2-2.9,3.7-3.1l83.1-12.1l37.2-75.3c0.8-1.6,2.4-2.6,4.1-2.6l0,0c1.7,0,3.3,1,4.1,2.6l37.1,75.3l83.1,12.1
			c1.7,0.3,3.2,1.5,3.7,3.1c0.5,1.7,0.1,3.5-1.2,4.7l-60.1,58.6L-425-115c0.3,1.7-0.4,3.5-1.8,4.5c-1.4,1-3.3,1.2-4.8,0.3
			l-74.3-39.1l-74.3,39.1C-580.9-109.9-581.7-109.7-582.4-109.7z M-619.8-256.5l55.2,53.8c1.1,1.1,1.6,2.6,1.3,4.1l-13,75.9
			l68.2-35.9c1.3-0.7,2.9-0.7,4.3,0l68.2,35.9l-13-75.9c-0.3-1.5,0.2-3,1.3-4.1l55.2-53.8l-76.2-11.1c-1.5-0.2-2.8-1.2-3.5-2.5
			l-34.1-69.1l-34.1,69.1c-0.7,1.4-2,2.3-3.5,2.5L-619.8-256.5z"/>
	</g>
	<text transform="matrix(1 0 0 1 -567.643 -199.0216)" class="st6" style="font-size:52.2896px; letter-spacing:-3;">100%</text>
</g>
<g>
	<g>
		<g>
			<path class="st0" d="M-681.4,290.4c-7,0-13,2.5-17.9,7.4c-4.9,4.9-7.4,10.9-7.4,17.9c0,7,2.5,13,7.4,17.9
				c4.9,4.9,10.9,7.4,17.9,7.4c6.9,0,12.9-2.5,17.8-7.4c5-4.9,7.5-10.9,7.5-17.9c0-7-2.5-13-7.5-17.9
				C-668.6,292.8-674.5,290.4-681.4,290.4z"/>
			<path class="st0" d="M-687,237c0-7.7-2.8-14.3-8.3-19.9c-5.5-5.5-12.1-8.3-19.8-8.3c-7.7,0-14.3,2.8-19.8,8.3
				c-5.5,5.5-8.3,12.1-8.3,19.9c0,7.7,2.8,14.3,8.3,19.8c5.5,5.5,12.1,8.3,19.8,8.3c7.7,0,14.3-2.8,19.8-8.3
				C-689.8,251.3-687,244.7-687,237z"/>
			<path class="st0" d="M-524,172.4c3.9,0,7.2-1.4,9.9-4.1c2.8-2.8,4.1-6.1,4.1-9.9c0-3.9-1.4-7.2-4.1-9.9c-2.8-2.8-6.1-4.1-9.9-4.1
				c-3.9,0-7.2,1.4-9.9,4.1c-2.8,2.8-4.1,6.1-4.1,9.9s1.4,7.2,4.1,9.9C-531.2,171-527.9,172.4-524,172.4z"/>
			<path class="st0" d="M-681.4,127.4c-8.5,0-15.8,3-21.9,9c-6,6-9,13.3-9,21.9c0,8.6,3,15.8,9,21.9c6,6,13.3,9,21.9,9
				c8.5,0,15.8-3,21.9-9c6-6,9-13.3,9-21.9c0-8.5-3-15.8-9-21.9C-665.6,130.4-672.9,127.4-681.4,127.4z"/>
			<path class="st0" d="M-478.4,225c-3.3-3.3-7.3-4.9-11.9-4.9c-4.7,0-8.7,1.6-11.9,4.9c-3.3,3.3-4.9,7.3-4.9,11.9
				c0,4.7,1.6,8.7,4.9,11.9c3.3,3.3,7.3,4.9,11.9,4.9c4.7,0,8.7-1.6,11.9-4.9c3.3-3.3,4.9-7.3,4.9-11.9
				C-473.5,232.3-475.1,228.3-478.4,225z"/>
			<path class="st0" d="M-524,296c-5.4,0-10,1.9-13.9,5.8c-3.9,3.9-5.8,8.5-5.8,13.9c0,5.4,1.9,10,5.8,13.9
				c3.9,3.9,8.5,5.8,13.9,5.8c5.4,0,10-1.9,13.9-5.8c3.9-3.9,5.8-8.5,5.8-13.9c0-5.4-1.9-10-5.8-13.9C-514,297.9-518.7,296-524,296z
				"/>
			<path class="st0" d="M-602.7,326.9c-6.2,0-11.5,2.2-15.9,6.6c-4.4,4.4-6.6,9.7-6.6,15.9c0,6.2,2.2,11.5,6.6,15.9
				c4.4,4.4,9.7,6.6,15.9,6.6c6.2,0,11.5-2.2,15.9-6.6c4.4-4.4,6.6-9.7,6.6-15.9c0-6.2-2.2-11.5-6.6-15.9
				C-591.2,329.1-596.5,326.9-602.7,326.9z"/>
			<path class="st0" d="M-602.7,90.9c-9.4,0-17.3,3.3-23.9,9.8c-6.6,6.6-9.8,14.5-9.8,23.9c0,9.4,3.3,17.3,9.8,23.9
				c6.6,6.6,14.5,9.8,23.9,9.8c9.4,0,17.3-3.3,23.9-9.8c6.6-6.6,9.8-14.5,9.8-23.9c0-9.4-3.3-17.3-9.8-23.9
				C-585.4,94.1-593.4,90.9-602.7,90.9z"/>
		</g>
	</g>
	<text transform="matrix(1 0 0 1 -647.8862 294.009)" class="st6" style="font-size:149.0116px; letter-spacing:13;">5</text>
	<g>
		<path class="st2" d="M-778.1,333.8l-14.5-29.4l-14.5,29.4c-0.3,0.6-0.8,1-1.5,1.1l-32.4,4.7l23.5,22.9c0.5,0.4,0.7,1.1,0.6,1.7
			l-5.5,32.3l29-15.2c0.6-0.3,1.2-0.3,1.8,0l29,15.2l-5.5-32.3c-0.1-0.6,0.1-1.3,0.6-1.7l23.5-22.9l-32.4-4.7
			C-777.3,334.8-777.8,334.4-778.1,333.8z"/>
		<path class="st0" d="M-824.2,401.3c-0.4,0-0.8-0.1-1.1-0.4c-0.6-0.4-0.9-1.1-0.8-1.9l5.9-34.3l-24.9-24.3c-0.5-0.5-0.7-1.3-0.5-2
			c0.2-0.7,0.8-1.2,1.5-1.3l34.5-5l15.4-31.2c0.3-0.7,1-1.1,1.7-1.1l0,0c0.7,0,1.4,0.4,1.7,1.1l15.4,31.2l34.5,5
			c0.7,0.1,1.3,0.6,1.5,1.3c0.2,0.7,0,1.4-0.5,2l-24.9,24.3l5.9,34.3c0.1,0.7-0.2,1.4-0.8,1.9c-0.6,0.4-1.4,0.5-2,0.1l-30.8-16.2
			l-30.8,16.2C-823.5,401.2-823.8,401.3-824.2,401.3z M-839.7,340.4l22.9,22.3c0.4,0.4,0.7,1.1,0.5,1.7l-5.4,31.5l28.3-14.9
			c0.6-0.3,1.2-0.3,1.8,0l28.3,14.9l-5.4-31.5c-0.1-0.6,0.1-1.2,0.5-1.7l22.9-22.3l-31.6-4.6c-0.6-0.1-1.2-0.5-1.4-1l-14.2-28.7
			l-14.2,28.7c-0.3,0.6-0.8,1-1.4,1L-839.7,340.4z"/>
	</g>
	<g>
		<path class="st2" d="M-722.9,329.1l-19.3-39.2l-19.3,39.2c-0.4,0.8-1.1,1.3-2,1.4l-43.2,6.3l31.3,30.5c0.6,0.6,0.9,1.5,0.7,2.3
			l-7.4,43.1l38.7-20.3c0.8-0.4,1.7-0.4,2.4,0l38.7,20.3l-7.4-43.1c-0.1-0.8,0.1-1.7,0.7-2.3l31.3-30.5l-43.2-6.3
			C-721.8,330.4-722.5,329.8-722.9,329.1z"/>
		<path class="st0" d="M-785.4,419.1c-0.5,0-1.1-0.2-1.5-0.5c-0.8-0.6-1.2-1.6-1-2.5l8-46.4l-33.7-32.8c-0.7-0.7-1-1.7-0.7-2.6
			c0.3-0.9,1.1-1.6,2.1-1.8l46.6-6.8l20.8-42.2c0.4-0.9,1.3-1.4,2.3-1.4l0,0c1,0,1.9,0.6,2.3,1.4l20.8,42.2l46.6,6.8
			c1,0.1,1.8,0.8,2.1,1.8c0.3,0.9,0.1,2-0.7,2.6l-33.7,32.9l8,46.4c0.2,1-0.2,1.9-1,2.5c-0.8,0.6-1.8,0.7-2.7,0.2l-41.7-21.9
			l-41.7,21.9C-784.6,419-785,419.1-785.4,419.1z M-806.3,336.8l30.9,30.2c0.6,0.6,0.9,1.4,0.7,2.3l-7.3,42.6l38.2-20.1
			c0.7-0.4,1.6-0.4,2.4,0l38.2,20.1l-7.3-42.6c-0.1-0.8,0.1-1.7,0.7-2.3l30.9-30.2l-42.7-6.2c-0.8-0.1-1.6-0.6-1.9-1.4l-19.1-38.7
			l-19.1,38.7c-0.4,0.8-1.1,1.3-1.9,1.4L-806.3,336.8z"/>
	</g>
	<g>
		<path class="st2" d="M-646.7,323.6l-24.5-49.7l-24.5,49.7c-0.5,1-1.4,1.7-2.5,1.8l-54.9,8l39.7,38.7c0.8,0.8,1.1,1.9,0.9,2.9
			l-9.4,54.6l49.1-25.8c1-0.5,2.1-0.5,3.1,0l49.1,25.8L-630,375c-0.2-1.1,0.2-2.2,0.9-2.9l39.7-38.7l-54.9-8
			C-645.3,325.2-646.3,324.6-646.7,323.6z"/>
		<path class="st0" d="M-725.9,437.6c-0.7,0-1.4-0.2-1.9-0.6c-1-0.7-1.5-2-1.3-3.2l10.1-58.9l-42.8-41.7c-0.9-0.9-1.2-2.2-0.8-3.3
			c0.4-1.2,1.4-2,2.6-2.2l59.1-8.6l26.5-53.6c0.5-1.1,1.7-1.8,2.9-1.8l0,0c1.2,0,2.4,0.7,2.9,1.8L-642,319l59.2,8.6
			c1.2,0.2,2.3,1,2.6,2.2c0.4,1.2,0.1,2.5-0.8,3.3l-42.8,41.7l10.1,58.9c0.2,1.2-0.3,2.5-1.3,3.2c-1,0.7-2.3,0.8-3.4,0.2l-52.9-27.8
			l-52.9,27.8C-724.8,437.5-725.3,437.6-725.9,437.6z M-752.5,333.1l39.3,38.3c0.8,0.7,1.1,1.8,0.9,2.9l-9.3,54.1l48.6-25.5
			c1-0.5,2.1-0.5,3,0l48.6,25.5l-9.3-54.1c-0.2-1.1,0.2-2.1,0.9-2.9l39.3-38.3l-54.3-7.9c-1.1-0.2-2-0.8-2.5-1.8l-24.3-49.2
			l-24.3,49.2c-0.5,1-1.4,1.6-2.5,1.8L-752.5,333.1z"/>
	</g>
	<g>
		<path class="st2" d="M-555.5,318.8l-28.5-57.8l-28.5,57.8c-0.6,1.1-1.6,1.9-2.9,2.1l-63.7,9.3l46.1,45c0.9,0.9,1.3,2.2,1.1,3.4
			l-10.9,63.5l57-30c1.1-0.6,2.4-0.6,3.6,0l57,30l-10.9-63.5c-0.2-1.2,0.2-2.5,1.1-3.4l46.1-45l-63.7-9.3
			C-553.8,320.8-554.9,320-555.5,318.8z"/>
		<path class="st0" d="M-647.9,452.7c-0.8,0-1.6-0.2-2.3-0.7c-1.2-0.9-1.8-2.3-1.5-3.8l11.9-69.2l-50.3-49c-1-1-1.4-2.5-1-3.9
			c0.5-1.4,1.7-2.4,3.1-2.6l69.4-10.1l31.1-62.9c0.6-1.3,2-2.1,3.4-2.1l0,0c1.5,0,2.8,0.8,3.4,2.1l31.1,62.9l69.4,10.1
			c1.4,0.2,2.6,1.2,3.1,2.6c0.4,1.4,0.1,2.9-1,3.9l-50.3,49l11.9,69.2c0.2,1.4-0.3,2.9-1.5,3.8c-1.2,0.9-2.8,1-4,0.3l-62.1-32.7
			l-62.1,32.7C-646.6,452.6-647.3,452.7-647.9,452.7z M-679.1,330l46.1,45c0.9,0.9,1.3,2.2,1.1,3.4l-10.9,63.5l57-30
			c1.1-0.6,2.4-0.6,3.6,0l57,30l-10.9-63.5c-0.2-1.2,0.2-2.5,1.1-3.4l46.1-45l-63.7-9.3c-1.3-0.2-2.3-1-2.9-2.1l-28.5-57.8
			l-28.5,57.8c-0.6,1.1-1.6,1.9-2.9,2.1L-679.1,330z"/>
	</g>
	<g>
		<path class="st2" d="M-465.3,312.4l-34.1-69.1l-34.1,69.1c-0.7,1.4-2,2.3-3.5,2.5l-76.2,11.1l55.2,53.8c1.1,1.1,1.6,2.6,1.3,4.1
			l-13,75.9l68.2-35.9c1.3-0.7,2.9-0.7,4.3,0l68.2,35.9l-13-75.9c-0.3-1.5,0.2-3,1.3-4.1l55.2-53.8l-76.2-11.1
			C-463.3,314.7-464.6,313.8-465.3,312.4z"/>
		<path class="st0" d="M-575.8,472.8c-1,0-1.9-0.3-2.7-0.9c-1.4-1-2.1-2.8-1.8-4.5l14.2-82.7l-60.1-58.6c-1.2-1.2-1.7-3-1.2-4.7
			c0.5-1.7,2-2.9,3.7-3.1l83.1-12.1l37.2-75.3c0.8-1.6,2.4-2.6,4.1-2.6l0,0c1.7,0,3.3,1,4.1,2.6l37.1,75.3l83.1,12.1
			c1.7,0.3,3.2,1.5,3.7,3.1c0.5,1.7,0.1,3.5-1.2,4.7l-60.1,58.6l14.2,82.7c0.3,1.7-0.4,3.5-1.8,4.5c-1.4,1-3.3,1.2-4.8,0.3
			l-74.3-39.1l-74.3,39.1C-574.3,472.6-575.1,472.8-575.8,472.8z M-613.2,326l55.2,53.8c1.1,1.1,1.6,2.6,1.3,4.1l-13,75.9l68.2-35.9
			c1.3-0.7,2.9-0.7,4.3,0l68.2,35.9l-13-75.9c-0.3-1.5,0.2-3,1.3-4.1l55.2-53.8l-76.2-11.1c-1.5-0.2-2.8-1.2-3.5-2.5l-34.1-69.1
			l-34.1,69.1c-0.7,1.4-2,2.3-3.5,2.5L-613.2,326z"/>
	</g>
</g>
<g>
	<g>
		<g>
			<g>
				<rect x="114.7" y="-476.7" class="st0" width="106.5" height="134.8"/>
			</g>
		</g>
		<g>
			<g>
				<rect x="-11.2" y="-476.7" class="st0" width="106.5" height="134.8"/>
			</g>
		</g>
		<g>
			<g>
				<path class="st0" d="M188-584.8c2.9-5.3,4.5-11.3,4.5-17.8c0-20.5-16.7-37.2-37.2-37.2c-15.2,0-30.7,7.8-42.6,21.5
					c-2.9,3.4-5.6,7-7.8,10.8c-2.3-3.8-4.9-7.4-7.8-10.8c-11.9-13.7-27.4-21.5-42.6-21.5c-20.5,0-37.2,16.7-37.2,37.2
					c0,6.4,1.6,12.5,4.5,17.8h-50.6v88.7h124v-88.7h19.4v88.7h124v-88.7H188z M54.6-584.8c-9.8,0-17.8-8-17.8-17.8s8-17.8,17.8-17.8
					c17.6,0,34.4,18,39.3,35.5L54.6-584.8L54.6-584.8z M155.4-584.8h-39.3c4.9-17.5,21.6-35.5,39.3-35.5c9.8,0,17.8,8,17.8,17.8
					C173.1-592.8,165.2-584.8,155.4-584.8z"/>
			</g>
		</g>
	</g>
	<circle class="st4" cx="273.1" cy="-379" r="67.2"/>
	<circle class="st4" cx="135.2" cy="-378.6" r="96.8"/>
	<g>
		<path class="st0" d="M70.3-408.9h4.3v26h-4.3c-2.4,0-4.3-1.9-4.3-4.3v-17.3C65.9-406.9,67.9-408.9,70.3-408.9z M200.1-408.9h-4.3
			v26h4.3c2.4,0,4.3-1.9,4.3-4.3v-17.3C204.4-406.9,202.5-408.9,200.1-408.9z M187.1-417.5v77.9c0,4.8-3.9,8.7-8.7,8.7v8.7
			c0,4.8-3.9,8.7-8.7,8.7h-8.7c-4.8,0-8.7-3.9-8.7-8.7v-8.7h-34.6v8.7c0,4.8-3.9,8.7-8.7,8.7h-8.7c-4.8,0-8.7-3.9-8.7-8.7v-8.7
			c-4.8,0-8.7-3.9-8.7-8.7v-77.9c0-14.3,11.6-26,26-26h51.9C175.5-443.5,187.1-431.9,187.1-417.5z M117.9-426.2h34.6v-8.7h-34.6
			V-426.2z M109.2-348.3c0-4.8-3.9-8.7-8.7-8.7c-4.8,0-8.7,3.9-8.7,8.7c0,4.8,3.9,8.7,8.7,8.7C105.3-339.6,109.2-343.5,109.2-348.3z
			 M178.5-348.3c0-4.8-3.9-8.7-8.7-8.7s-8.7,3.9-8.7,8.7c0,4.8,3.9,8.7,8.7,8.7C174.6-339.6,178.5-343.5,178.5-348.3z M178.5-417.5
			H91.9v51.9h86.5V-417.5L178.5-417.5z"/>
	</g>
	<g>
		<path class="st2" d="M29.3-417.1l-34.1-69.1l-34.1,69.1c-0.7,1.4-2,2.3-3.5,2.5l-76.2,11.1l55.2,53.8c1.1,1.1,1.6,2.6,1.3,4.1
			l-13,75.9l68.2-35.9c1.3-0.7,2.9-0.7,4.3,0l68.2,35.9l-13-75.9c-0.3-1.5,0.2-3,1.3-4.1l55.2-53.8l-76.2-11.1
			C31.3-414.8,30-415.8,29.3-417.1z"/>
		<path class="st0" d="M-81.2-256.8c-1,0-1.9-0.3-2.7-0.9c-1.4-1-2.1-2.8-1.8-4.5l14.2-82.7l-60.1-58.6c-1.2-1.2-1.7-3-1.2-4.7
			c0.5-1.7,2-2.9,3.7-3.1l83.1-12.1l37.2-75.3c0.8-1.6,2.4-2.6,4.1-2.6l0,0c1.7,0,3.3,1,4.1,2.6l37.1,75.3l83.1,12.1
			c1.7,0.3,3.2,1.5,3.7,3.1c0.5,1.7,0.1,3.5-1.2,4.7L62-344.9l14.2,82.7c0.3,1.7-0.4,3.5-1.8,4.5c-1.4,1-3.3,1.2-4.8,0.3l-74.3-39.1
			l-74.3,39.1C-79.8-257-80.5-256.8-81.2-256.8z M-118.6-403.5l55.2,53.8c1.1,1.1,1.6,2.6,1.3,4.1l-13,75.9l68.2-35.9
			c1.3-0.7,2.9-0.7,4.3,0l68.2,35.9l-13-75.9c-0.3-1.5,0.2-3,1.3-4.1l55.2-53.8l-76.2-11.1c-1.5-0.2-2.8-1.2-3.5-2.5l-34.1-69.1
			l-34.1,69.1c-0.7,1.4-2,2.3-3.5,2.5L-118.6-403.5z"/>
	</g>
	<g>
		<g>
			<path class="st5" d="M292.1-406.8h-18h-0.9h-1.4h-0.9h-16.5c-5.7,0-10.3,3.6-10.3,8v38.3c0,4.3,4.4,7.9,9.9,8l-9.9,20.5h7.7
				l9.9-20.5h23l9.9,20.5h7.7l-9.9-20.5c5.5-0.2,9.9-3.7,9.9-8v-38.3C302.4-403.2,297.7-406.8,292.1-406.8z M262.9-404.1h9.3
				l0.1,0.2l0.1-0.2h11.1v4.1h-20.6V-404.1z M258.2-359.1c-2.4,0-4.4-2-4.4-4.4c0-2.4,2-4.4,4.4-4.4c2.4,0,4.4,2,4.4,4.4
				C262.6-361.1,260.6-359.1,258.2-359.1z M288.9-359.1c-2.4,0-4.4-2-4.4-4.4c0-2.4,2-4.4,4.4-4.4s4.4,2,4.4,4.4
				C293.3-361.1,291.3-359.1,288.9-359.1z M295.3-384.5c0,4.4-4.6,8-10.3,8h-23.7c-5.7,0-10.3-3.6-10.3-8v-4c0-4.4,4.6-8,10.3-8
				h23.7c5.7,0,10.3,3.6,10.3,8V-384.5z"/>
			<polygon class="st5" points="261.9,-419.1 261.9,-409.9 284.5,-409.9 284.5,-419.1 281.4,-419.1 281.4,-412.4 265,-412.4 
				265,-419.1 			"/>
			<path class="st5" d="M247.3-416.4c0.2-0.1,23.5-13.4,51.7,0.1c0.4,0.2,0.8,0.3,1.2,0.3c0.8,0,1.6-0.3,2-0.9
				c0.7-0.9,0.3-2-0.8-2.5c-30.9-14.8-56.7-0.1-57,0.1c-1,0.6-1.2,1.7-0.5,2.5C244.8-416,246.2-415.8,247.3-416.4z"/>
		</g>
	</g>
</g>
<g>
	<g>
		<circle cx="-1109.1" cy="-420" r="150.5"/>
		<text transform="matrix(1 0 0 1 -1224.5892 -381.0836)" class="st3 st6" style="font-size:143.339px; letter-spacing:-2;">100</text>
	</g>
	<g>
		<path class="st1" d="M-916.8-405.2l-16.5-33.4l-16.5,33.4c-0.3,0.7-0.9,1.1-1.7,1.2l-36.8,5.3l26.6,26c0.5,0.5,0.8,1.2,0.6,2
			l-6.3,36.7l32.9-17.3c0.6-0.3,1.4-0.3,2.1,0l32.9,17.3l-6.3-36.7c-0.1-0.7,0.1-1.5,0.6-2l26.6-26l-36.8-5.4
			C-915.8-404.1-916.4-404.6-916.8-405.2z"/>
		<path class="st0" d="M-969.4-329.2c-0.5,0-0.9-0.1-1.3-0.4c-0.7-0.5-1-1.3-0.9-2.1l6.7-39.3l-28.5-27.8c-0.6-0.6-0.8-1.4-0.6-2.2
			c0.3-0.8,0.9-1.4,1.8-1.5l39.4-5.7l17.6-35.7c0.4-0.7,1.1-1.2,2-1.2l0,0c0.8,0,1.6,0.5,2,1.2l17.6,35.7l39.4,5.7
			c0.8,0.1,1.5,0.7,1.8,1.5c0.3,0.8,0,1.7-0.6,2.2l-28.5,27.8l6.7,39.3c0.1,0.8-0.2,1.6-0.9,2.1c-0.7,0.5-1.6,0.6-2.3,0.2
			l-35.3-18.5l-35.3,18.5C-968.7-329.3-969.1-329.2-969.4-329.2z M-987.2-398.9l26.2,25.5c0.5,0.5,0.7,1.2,0.6,1.9l-6.2,36.1
			l32.4-17c0.6-0.3,1.4-0.3,2,0l32.4,17l-6.2-36.1c-0.1-0.7,0.1-1.4,0.6-1.9l26.2-25.5l-36.2-5.3c-0.7-0.1-1.3-0.5-1.6-1.2
			l-16.2-32.8l-16.2,32.8c-0.3,0.6-0.9,1.1-1.6,1.2L-987.2-398.9z"/>
	</g>
	<g>
		<path class="st1" d="M-1268.6-406.1l-16.5-33.5l-16.5,33.5c-0.3,0.7-1,1.1-1.7,1.2l-37,5.4l26.8,26.1c0.5,0.5,0.8,1.2,0.6,2
			l-6.3,36.8l33.1-17.4c0.6-0.3,1.4-0.3,2.1,0l33.1,17.4l-6.3-36.8c-0.1-0.7,0.1-1.5,0.6-2l26.8-26.1l-37-5.4
			C-1267.6-405-1268.3-405.4-1268.6-406.1z"/>
		<path class="st0" d="M-1321.3-329.2c-0.5,0-0.9-0.1-1.3-0.4c-0.7-0.5-1-1.3-0.9-2.1l6.7-39.3l-28.5-27.8c-0.6-0.6-0.8-1.4-0.6-2.2
			c0.3-0.8,0.9-1.4,1.8-1.5l39.4-5.7l17.6-35.7c0.4-0.7,1.1-1.2,2-1.2l0,0c0.8,0,1.6,0.5,2,1.2l17.6,35.7l39.4,5.7
			c0.8,0.1,1.5,0.7,1.8,1.5c0.3,0.8,0,1.7-0.6,2.2l-28.5,27.8l6.7,39.3c0.1,0.8-0.2,1.6-0.9,2.1c-0.7,0.5-1.6,0.6-2.3,0.2L-1285-348
			l-35.3,18.5C-1320.6-329.3-1320.9-329.2-1321.3-329.2z M-1339-398.9l26.2,25.5c0.5,0.5,0.7,1.2,0.6,1.9l-6.2,36.1l32.4-17
			c0.6-0.3,1.4-0.3,2,0l32.4,17l-6.2-36.1c-0.1-0.7,0.1-1.4,0.6-1.9l26.2-25.5l-36.2-5.3c-0.7-0.1-1.3-0.5-1.6-1.2l-16.2-32.8
			l-16.2,32.8c-0.3,0.6-0.9,1.1-1.6,1.2L-1339-398.9z"/>
	</g>
	<g>
		<path class="st1" d="M-1200.9-367.4l-25.4-51.6l-25.4,51.6c-0.5,1-1.5,1.7-2.6,1.9l-56.9,8.3l41.2,40.1c0.8,0.8,1.2,1.9,1,3
			l-9.7,56.7l50.9-26.8c1-0.5,2.2-0.5,3.2,0l50.9,26.8l-9.7-56.7c-0.2-1.1,0.2-2.2,1-3l41.2-40.1l-56.9-8.3
			C-1199.4-365.7-1200.4-366.4-1200.9-367.4z"/>
		<path class="st0" d="M-1283.4-248c-0.7,0-1.4-0.2-2-0.7c-1.1-0.8-1.6-2.1-1.4-3.4l10.6-61.7l-44.9-43.7c-0.9-0.9-1.3-2.3-0.9-3.5
			c0.4-1.2,1.5-2.1,2.8-2.3l62-9l27.7-56.2c0.6-1.2,1.8-1.9,3.1-1.9l0,0c1.3,0,2.5,0.7,3.1,1.9l27.7,56.2l62,9
			c1.3,0.2,2.4,1.1,2.8,2.3c0.4,1.2,0.1,2.6-0.9,3.5l-44.9,43.7l10.6,61.7c0.2,1.3-0.3,2.6-1.4,3.4c-1.1,0.8-2.5,0.9-3.6,0.3
			l-55.4-29.1l-55.4,29.1C-1282.3-248.1-1282.8-248-1283.4-248z M-1311.3-357.5l41.2,40.1c0.8,0.8,1.2,1.9,1,3l-9.7,56.7l50.9-26.8
			c1-0.5,2.2-0.5,3.2,0l50.9,26.8l-9.7-56.7c-0.2-1.1,0.2-2.2,1-3l41.2-40.1l-56.9-8.3c-1.1-0.2-2.1-0.9-2.6-1.9l-25.4-51.6
			l-25.4,51.6c-0.5,1-1.5,1.7-2.6,1.9L-1311.3-357.5z"/>
	</g>
	<g>
		<path class="st1" d="M-968-367.6l-25.8-52.3l-25.8,52.3c-0.5,1-1.5,1.7-2.6,1.9l-57.7,8.4l41.8,40.7c0.8,0.8,1.2,2,1,3.1
			l-9.9,57.5l51.6-27.1c1-0.5,2.2-0.5,3.2,0l51.6,27.1l-9.9-57.5c-0.2-1.1,0.2-2.3,1-3.1l41.8-40.7l-57.7-8.4
			C-966.5-365.9-967.5-366.6-968-367.6z"/>
		<path class="st0" d="M-1051.1-248c-0.7,0-1.4-0.2-2-0.7c-1.1-0.8-1.6-2.1-1.4-3.4l10.6-61.7l-44.9-43.7c-0.9-0.9-1.3-2.3-0.9-3.5
			c0.4-1.2,1.5-2.1,2.8-2.3l62-9l27.7-56.2c0.6-1.2,1.8-1.9,3.1-1.9l0,0c1.3,0,2.5,0.7,3.1,1.9l27.7,56.2l62,9
			c1.3,0.2,2.4,1.1,2.8,2.3c0.4,1.2,0.1,2.6-0.9,3.5l-44.9,43.7l10.6,61.7c0.2,1.3-0.3,2.6-1.4,3.4c-1.1,0.8-2.5,0.9-3.6,0.3
			l-55.4-29.1l-55.4,29.1C-1050-248.1-1050.5-248-1051.1-248z M-1079-357.5l41.2,40.1c0.8,0.8,1.2,1.9,1,3l-9.7,56.7l50.9-26.8
			c1-0.5,2.2-0.5,3.2,0l50.9,26.8l-9.7-56.7c-0.2-1.1,0.2-2.2,1-3l41.2-40.1l-56.9-8.3c-1.1-0.2-2.1-0.9-2.6-1.9l-25.4-51.6
			l-25.4,51.6c-0.5,1-1.5,1.7-2.6,1.9L-1079-357.5z"/>
	</g>
	<g>
		<path class="st2" d="M-1073.8-348l-34.6-70l-34.6,70c-0.7,1.4-2,2.3-3.5,2.5l-77.3,11.2l55.9,54.5c1.1,1.1,1.6,2.6,1.3,4.1
			l-13.2,76.9l69.1-36.3c1.4-0.7,3-0.7,4.3,0l69.1,36.3l-13.2-76.9c-0.3-1.5,0.2-3,1.3-4.1l55.9-54.5l-77.3-11.2
			C-1071.8-345.6-1073.1-346.6-1073.8-348z"/>
		<path class="st0" d="M-1184.3-187.5c-1,0-1.9-0.3-2.7-0.9c-1.4-1-2.1-2.8-1.8-4.5l14.2-82.7l-60.1-58.6c-1.2-1.2-1.7-3-1.2-4.7
			c0.5-1.7,2-2.9,3.7-3.1l83.1-12.1l37.2-75.3c0.8-1.6,2.4-2.6,4.1-2.6l0,0c1.7,0,3.3,1,4.1,2.6l37.1,75.3l83.1,12.1
			c1.7,0.3,3.2,1.5,3.7,3.1c0.5,1.7,0.1,3.5-1.2,4.7l-60.1,58.6l14.2,82.7c0.3,1.7-0.4,3.5-1.8,4.5c-1.4,1-3.3,1.2-4.8,0.3
			l-74.3-39.1l-74.3,39.1C-1182.8-187.7-1183.6-187.5-1184.3-187.5z M-1221.7-334.3l55.2,53.8c1.1,1.1,1.6,2.6,1.3,4.1l-13,75.9
			l68.2-35.9c1.3-0.7,2.9-0.7,4.3,0l68.2,35.9l-13-75.9c-0.3-1.5,0.2-3,1.3-4.1l55.2-53.8l-76.2-11.1c-1.5-0.2-2.8-1.2-3.5-2.5
			l-34.1-69.1l-34.1,69.1c-0.7,1.4-2,2.3-3.5,2.5L-1221.7-334.3z"/>
	</g>
	<text transform="matrix(1 0 0 1 -1169.5238 -276.8636)" class="st6" style="font-size:52.2896px; letter-spacing:-3;">100%</text>
</g>
<g>
	<g>
		<path class="st0" d="M365.4,51C333,18.5,289.9,0.7,244.1,0.7s-89,17.9-121.4,50.3c-32.4,32.4-50.3,75.5-50.3,121.4
			s17.9,89,50.3,121.4c32.4,32.4,75.5,50.3,121.4,50.3s89-17.9,121.4-50.3c32.4-32.4,50.3-75.5,50.3-121.4S397.9,83.4,365.4,51z
			 M244.1,39.1c67.6,0,123.6,50.6,132.1,115.9l-82.6-8c-9.3-17.9-28-30.2-49.5-30.2s-40.3,12.3-49.5,30.2l-82.6,8
			C120.5,89.7,176.5,39.1,244.1,39.1z M111.9,189.4l81.6,6.4c5.2,11.1,13.9,20.2,24.7,25.9l5.3,82.4
			C165.3,295,119.4,248.1,111.9,189.4z M244.1,189.7c-9.5,0-17.3-7.8-17.3-17.3s7.8-17.3,17.3-17.3s17.3,7.8,17.3,17.3
			C261.4,181.9,253.6,189.7,244.1,189.7z M264.6,304l5.3-82.4c10.8-5.7,19.5-14.8,24.7-25.9l81.6-6.4
			C368.7,248.1,322.8,295,264.6,304z"/>
	</g>
</g>
<g>
	<path class="st2" d="M380.6,222.4l-34.1-69.1l-34.1,69.1c-0.7,1.4-2,2.3-3.5,2.5L232.7,236l55.2,53.8c1.1,1.1,1.6,2.6,1.3,4.1
		l-13,75.9l68.2-35.9c1.3-0.7,2.9-0.7,4.3,0l68.2,35.9l-13-75.9c-0.3-1.5,0.2-3,1.3-4.1l55.2-53.8l-76.2-11.1
		C382.6,224.7,381.3,223.8,380.6,222.4z"/>
	<path class="st0" d="M270.1,382.8c-1,0-1.9-0.3-2.7-0.9c-1.4-1-2.1-2.8-1.8-4.5l14.2-82.7l-60.1-58.6c-1.2-1.2-1.7-3-1.2-4.7
		c0.5-1.7,2-2.9,3.7-3.1l83.1-12.1l37.2-75.3c0.8-1.6,2.4-2.6,4.1-2.6l0,0c1.7,0,3.3,1,4.1,2.6l37.1,75.3l83.1,12.1
		c1.7,0.3,3.2,1.5,3.7,3.1c0.5,1.7,0.1,3.5-1.2,4.7l-60.1,58.6l14.2,82.7c0.3,1.7-0.4,3.5-1.8,4.5c-1.4,1-3.3,1.2-4.8,0.3
		l-74.3-39.1l-74.3,39.1C271.5,382.6,270.8,382.8,270.1,382.8z M232.7,236l55.2,53.8c1.1,1.1,1.6,2.6,1.3,4.1l-13,75.9l68.2-35.9
		c1.3-0.7,2.9-0.7,4.3,0l68.2,35.9l-13-75.9c-0.3-1.5,0.2-3,1.3-4.1l55.2-53.8l-76.2-11.1c-1.5-0.2-2.8-1.2-3.5-2.5l-34.1-69.1
		l-34.1,69.1c-0.7,1.4-2,2.3-3.5,2.5L232.7,236z"/>
</g>
<text transform="matrix(1 0 0 1 283.3264 294.0529)" class="st6 st7">1000</text>
<g>
	<circle class="st3" cx="95.2" cy="266.5" r="91.8"/>
	<g>
		<path class="st0" d="M95.2,172.4c-51.9,0-94.1,42.2-94.1,94.1s42.2,94.1,94.1,94.1s94.1-42.2,94.1-94.1S147.1,172.4,95.2,172.4z
			 M95.2,354.3c-48.4,0-87.8-39.4-87.8-87.8s39.4-87.8,87.8-87.8s87.8,39.4,87.8,87.8S143.6,354.3,95.2,354.3z"/>
		<path class="st0" d="M98.3,254v-31.8c0-1.7-1.4-3.1-3.1-3.1s-3.1,1.4-3.1,3.1V254c-4.4,1.1-7.8,4.6-9,9H60.7
			c-1.7,0-3.1,1.4-3.1,3.1c0,1.7,1.4,3.1,3.1,3.1h22.4c1.4,5.4,6.3,9.4,12.1,9.4c6.9,0,12.5-5.6,12.5-12.5
			C107.8,260.3,103.7,255.4,98.3,254z M95.2,272.4c-3.5,0-6.3-2.8-6.3-6.3c0-3.5,2.8-6.3,6.3-6.3s6.3,2.8,6.3,6.3
			C101.5,269.6,98.7,272.4,95.2,272.4z"/>
		<path class="st0" d="M95.2,203.4c1.7,0,3.1-1.4,3.1-3.1v-3.1c0-1.7-1.4-3.1-3.1-3.1s-3.1,1.4-3.1,3.1v3.1
			C92.1,201.9,93.5,203.4,95.2,203.4z"/>
		<path class="st0" d="M95.2,328.8c-1.7,0-3.1,1.4-3.1,3.1v3.1c0,1.7,1.4,3.1,3.1,3.1s3.1-1.4,3.1-3.1V332
			C98.3,330.2,96.9,328.8,95.2,328.8z"/>
		<path class="st0" d="M164.2,263h-3.1c-1.7,0-3.1,1.4-3.1,3.1c0,1.7,1.4,3.1,3.1,3.1h3.1c1.7,0,3.1-1.4,3.1-3.1
			C167.4,264.4,166,263,164.2,263z"/>
		<path class="st0" d="M29.3,263h-3.1c-1.7,0-3.1,1.4-3.1,3.1c0,1.7,1.4,3.1,3.1,3.1h3.1c1.7,0,3.1-1.4,3.1-3.1
			C32.5,264.4,31.1,263,29.3,263z"/>
		<path class="st0" d="M141.8,215.1l-2.2,2.2c-1.2,1.2-1.2,3.2,0,4.4c0.6,0.6,1.4,0.9,2.2,0.9s1.6-0.3,2.2-0.9l2.2-2.2
			c1.2-1.2,1.2-3.2,0-4.4C145,213.8,143,213.8,141.8,215.1z"/>
		<path class="st0" d="M46.4,310.5l-2.2,2.2c-1.2,1.2-1.2,3.2,0,4.4c0.6,0.6,1.4,0.9,2.2,0.9s1.6-0.3,2.2-0.9l2.2-2.2
			c1.2-1.2,1.2-3.2,0-4.4C49.6,309.2,47.6,309.2,46.4,310.5z"/>
		<path class="st0" d="M144,310.5c-1.2-1.2-3.2-1.2-4.4,0c-1.2,1.2-1.2,3.2,0,4.4l2.2,2.2c0.6,0.6,1.4,0.9,2.2,0.9
			c0.8,0,1.6-0.3,2.2-0.9c1.2-1.2,1.2-3.2,0-4.4L144,310.5z"/>
		<path class="st0" d="M48.6,215.1c-1.2-1.2-3.2-1.2-4.4,0c-1.2,1.2-1.2,3.2,0,4.4l2.2,2.2c0.6,0.6,1.4,0.9,2.2,0.9s1.6-0.3,2.2-0.9
			c1.2-1.2,1.2-3.2,0-4.4L48.6,215.1z"/>
	</g>
</g>
</svg>
