<?xml version="1.0" encoding="utf-8"?>
<!-- Generator: Adobe Illustrator 21.0.2, SVG Export Plug-In . SVG Version: 6.00 Build 0)  -->
<svg version="1.1" id="Layer_1" xmlns="http://www.w3.org/2000/svg" xmlns:xlink="http://www.w3.org/1999/xlink" x="0px" y="0px"
	 viewBox="0 0 283.5 283.5" style="enable-background:new 0 0 283.5 283.5;" xml:space="preserve">
<style type="text/css">
	.st0{fill:#FFFFFF;stroke:#939598;stroke-width:8.5039;stroke-miterlimit:10;}
	.st1{fill:#D81F2A;}
	.st2{fill:#939598;}
</style>
<circle class="st0" cx="141.7" cy="141.7" r="135.5"/>
<g transform="translate(1 1)">
	<g>
		<g>
			<path class="st1" d="M486-12.6v35.8c0,2.1,1.4,3.6,3.6,3.6h39.4v35.8c0,1.4,0.7,2.5,1.8,3.2c0.7,0.4,1.1,0.4,1.8,0.4
				c0.7,0,1.4-0.4,2.1-0.7l78.7-57.3c0.7-0.7,1.4-1.8,1.4-2.9c0-1.1-0.7-2.1-1.4-2.9l-78.7-57.3c-1.1-0.7-2.5-1.1-3.6-0.4
				c-1.4,0.7-2.1,1.8-2.1,3.2v35.8h-39.4C487.4-16.2,486-14.8,486-12.6z M493.2-9.1h39.4c2.1,0,3.6-1.4,3.6-3.6v-32.2l69.1,50.1
				l-69.1,50.1V23.1c0-2.1-1.4-3.6-3.6-3.6h-39.4V-9.1z"/>
			<path class="st1" d="M457.4-5.5V16c0,6.1,4.7,10.7,10.7,10.7c6.1,0,10.7-4.7,10.7-10.7V-5.5c0-6.1-4.7-10.7-10.7-10.7
				C462-16.2,457.4-11.6,457.4-5.5z M464.5-5.5c0-2.1,1.4-3.6,3.6-3.6s3.6,1.4,3.6,3.6V16c0,2.1-1.4,3.6-3.6,3.6s-3.6-1.4-3.6-3.6
				V-5.5z"/>
			<path class="st1" d="M428.7-5.5V16c0,6.1,4.7,10.7,10.7,10.7s10.7-4.7,10.7-10.7V-5.5c0-6.1-4.7-10.7-10.7-10.7
				C433.4-16.2,428.7-11.6,428.7-5.5z M435.9-5.5c0-2.1,1.4-3.6,3.6-3.6s3.6,1.4,3.6,3.6V16c0,2.1-1.4,3.6-3.6,3.6s-3.6-1.4-3.6-3.6
				V-5.5z"/>
			<path class="st1" d="M400.1-5.5V16c0,6.1,4.7,10.7,10.7,10.7s10.7-4.7,10.7-10.7V-5.5c0-6.1-4.7-10.7-10.7-10.7
				C404.8-16.2,400.1-11.6,400.1-5.5z M407.3-5.5c0-2.1,1.4-3.6,3.6-3.6s3.6,1.4,3.6,3.6V16c0,2.1-1.4,3.6-3.6,3.6s-3.6-1.4-3.6-3.6
				V-5.5z"/>
		</g>
	</g>
</g>
<g>
	<path class="st2" d="M128.7,141c0,7.2,5.8,13,13,13c7.2,0,13-5.8,13-13c0-1.8-1.5-3.3-3.3-3.3s-3.3,1.5-3.3,3.3
		c0,3.6-2.9,6.5-6.5,6.5s-6.5-2.9-6.5-6.5c0-0.7,0.1-1.3,0.3-1.9c0.1-0.2,0.2-0.3,0.3-0.5c0.1-0.2,0.1-0.4,0.2-0.6
		c1.1-2.1,3.3-3.5,5.8-3.5c1.8,0,3.3-1.5,3.3-3.3s-1.5-3.3-3.3-3.3c-4.2,0-8,2-10.4,5.2l-49.6-20.4c-1.7-0.7-3.6,0.1-4.2,1.8
		c-0.7,1.7,0.1,3.6,1.8,4.2l49.6,20.4C128.8,139.8,128.7,140.4,128.7,141z"/>
	<path class="st2" d="M215.4,67.4c-19.7-19.7-45.8-30.5-73.7-30.5c-27.8,0-54,10.8-73.7,30.5S37.5,113.2,37.5,141
		c0,20.4,5.9,40.1,17.1,57.1c0.6,1,1.7,1.5,2.7,1.5c0.6,0,1.2-0.2,1.8-0.5c1.5-1,1.9-3,0.9-4.5c-2.8-4.2-5.2-8.6-7.3-13.2l9-3.7
		c1.7-0.7,2.4-2.6,1.8-4.3c-0.7-1.7-2.6-2.4-4.3-1.8l-9,3.7c-3.7-9.9-5.8-20.4-6.2-31.1h9.7c1.8,0,3.3-1.5,3.3-3.3s-1.5-3.3-3.3-3.3
		h-9.7c0.4-10.8,2.4-21.3,6.1-31.1l9,3.7c0.4,0.2,0.8,0.2,1.2,0.2c1.3,0,2.5-0.8,3-2c0.7-1.7-0.1-3.6-1.8-4.3l-9-3.7
		c4.4-9.6,10.3-18.5,17.7-26.3l6.9,6.9c0.6,0.6,1.5,1,2.3,1c0.8,0,1.7-0.3,2.3-1c1.3-1.3,1.3-3.3,0-4.6L75,69.7
		c7.9-7.4,16.8-13.3,26.3-17.7l3.7,9c0.5,1.3,1.7,2,3,2c0.4,0,0.8-0.1,1.2-0.2c1.7-0.7,2.4-2.6,1.8-4.3l-3.7-9
		c9.9-3.7,20.3-5.8,31.1-6.1v9.7c0,1.8,1.5,3.3,3.3,3.3c1.8,0,3.3-1.5,3.3-3.3v-9.7c10.8,0.4,21.3,2.4,31.1,6.1l-3.7,9
		c-0.7,1.7,0.1,3.6,1.8,4.3c0.4,0.2,0.8,0.2,1.2,0.2c1.3,0,2.5-0.8,3-2l3.7-9c9.6,4.4,18.5,10.3,26.3,17.7l-6.9,6.9
		c-1.3,1.3-1.3,3.3,0,4.6c0.6,0.6,1.5,1,2.3,1c0.8,0,1.7-0.3,2.3-1l6.9-6.9c7.4,7.9,13.3,16.8,17.7,26.3l-9,3.7
		c-1.7,0.7-2.4,2.6-1.8,4.3c0.5,1.3,1.7,2,3,2c0.4,0,0.8-0.1,1.2-0.2l9-3.7c3.7,9.9,5.8,20.3,6.1,31.1h-9.7c-1.8,0-3.3,1.5-3.3,3.3
		s1.5,3.3,3.3,3.3h9.7c-0.4,10.7-2.4,21.2-6.2,31.1l-9-3.7c-1.7-0.7-3.6,0.1-4.3,1.8c-0.7,1.7,0.1,3.6,1.8,4.3l9,3.7
		c-2.1,4.6-4.5,9-7.3,13.2c-1,1.5-0.6,3.5,0.9,4.5c1.5,1,3.5,0.6,4.5-0.9c11.2-17,17.1-36.8,17.1-57.1
		C245.9,113.2,235.1,87,215.4,67.4z"/>
	<path class="st2" d="M171,176.8h-58.6c-5.4,0-9.8,4.4-9.8,9.8v13c0,5.4,4.4,9.8,9.8,9.8H171c5.4,0,9.8-4.4,9.8-9.8v-13
		C180.7,181.2,176.4,176.8,171,176.8z M174.2,199.6c0,1.8-1.5,3.3-3.3,3.3h-58.6c-1.8,0-3.3-1.5-3.3-3.3v-13c0-1.8,1.5-3.3,3.3-3.3
		H171c1.8,0,3.3,1.5,3.3,3.3V199.6z"/>
	<path class="st2" d="M144.9,189.8h-6.5c-1.8,0-3.3,1.5-3.3,3.3s1.5,3.3,3.3,3.3h6.5c1.8,0,3.3-1.5,3.3-3.3S146.7,189.8,144.9,189.8
		z"/>
	<path class="st2" d="M128.7,189.8h-6.5c-1.8,0-3.3,1.5-3.3,3.3s1.5,3.3,3.3,3.3h6.5c1.8,0,3.3-1.5,3.3-3.3S130.5,189.8,128.7,189.8
		z"/>
	<path class="st2" d="M161.2,189.8h-6.5c-1.8,0-3.3,1.5-3.3,3.3s1.5,3.3,3.3,3.3h6.5c1.8,0,3.3-1.5,3.3-3.3S163,189.8,161.2,189.8z"
		/>
</g>
</svg>
