<?xml version="1.0" encoding="utf-8"?>
<!-- Generator: Adobe Illustrator 21.0.2, SVG Export Plug-In . SVG Version: 6.00 Build 0)  -->
<svg version="1.1" id="Layer_1" xmlns="http://www.w3.org/2000/svg" xmlns:xlink="http://www.w3.org/1999/xlink" x="0px" y="0px"
	 viewBox="0 0 283.5 283.5" style="enable-background:new 0 0 283.5 283.5;" xml:space="preserve">
<style type="text/css">
	.st0{fill:#D81F2A;stroke:#D81F2A;stroke-width:8.5039;stroke-miterlimit:10;}
	.st1{fill:#FFFFFF;}
</style>
<circle class="st0" cx="141.7" cy="141.7" r="135.5"/>
<g transform="translate(1 1)">
	<g>
		<g>
			<path class="st1" d="M146.3,108.7c-21.4,0-38.6,17.2-38.6,38.6s17.2,38.6,38.6,38.6s38.6-17.2,38.6-38.6S167.6,108.7,146.3,108.7
				z M146.3,178.8c-17.5,0-31.6-14-31.6-31.6s14-31.6,31.6-31.6s31.6,14,31.6,31.6S163.8,178.8,146.3,178.8z"/>
			<path class="st1" d="M146.3,129.7c-9.8,0-17.5,7.7-17.5,17.5s7.7,17.5,17.5,17.5s17.5-7.7,17.5-17.5S156.1,129.7,146.3,129.7z
				 M146.3,157.8c-6,0-10.5-4.6-10.5-10.5s4.6-10.5,10.5-10.5s10.5,4.6,10.5,10.5S152.2,157.8,146.3,157.8z"/>
			<path class="st1" d="M146.3,196.4c-2.1,0-3.5,1.4-3.5,3.5s1.4,3.5,3.5,3.5s3.5-1.4,3.5-3.5C149.8,197.8,148.4,196.4,146.3,196.4z
				"/>
			<path class="st1" d="M146.3,213.9c-2.1,0-3.5,1.4-3.5,3.5s1.4,3.5,3.5,3.5s3.5-1.4,3.5-3.5C149.8,215.3,148.4,213.9,146.3,213.9z
				"/>
			<path class="st1" d="M146.3,98.1c2.1,0,3.5-1.4,3.5-3.5s-1.4-3.5-3.5-3.5s-3.5,1.4-3.5,3.5S144.1,98.1,146.3,98.1z"/>
			<path class="st1" d="M169,58.9l1.4-1.4c0.7-0.7,1.1-1.4,1.1-2.5s-0.4-1.8-1.1-2.5c-3.5-3.5-7.3-6.5-11.5-9
				c-0.3-0.3-0.7-0.5-1.1-0.6c-4-2.3-8.4-4.2-12.8-5.5c-0.7-0.5-1.6-0.7-2.4-0.7c-4.7-1.2-9.5-1.8-14.4-1.8
				c-15.8,0-30.9,6.3-42.1,17.5L51.6,87.3C40.3,98.5,34,113.6,34,129.4s6.3,30.9,17.5,42.1c0.7,0.7,1.4,1.1,2.5,1.1
				c0.7,0,1.8-0.4,2.5-1.1l1.4-1.4c10.4,39.9,46.4,68.4,88.4,68.4c50.2,0,91.2-41,91.2-91.2C237.4,105.2,208.9,69.3,169,58.9z
				 M48,155.7l13.3-13.3c1.4-1.4,1.4-3.5,0-4.9s-3.5-1.4-4.9,0l-11.6,11.6c-1.2-3-2.1-6.1-2.8-9.3c0.2,0,0.5,0.1,0.7,0.1
				c0.7,0,1.8-0.4,2.5-1.1L69.1,115c1.4-1.4,1.4-3.5,0-4.9s-3.5-1.4-4.9,0l-23,23c-0.1-1.2-0.1-2.5-0.1-3.7c0-14,5.6-27.4,15.4-37.2
				l34.7-34.7C101,47.6,114.3,42,128.4,42c2.6,0,5.1,0.2,7.5,0.5l-24.7,24.7c-1.4,1.4-1.4,3.5,0,4.9c0.7,0.7,1.4,1.1,2.5,1.1
				c0.7,0,1.8-0.4,2.5-1.1L144,44.3c2.4,0.7,4.8,1.7,7.1,2.8l-15.3,15.3c-1.4,1.4-1.4,3.5,0,4.9c0.7,0.7,1.4,1.1,2.5,1.1
				s1.8-0.4,2.5-1.1l16.6-16.6c2,1.3,3.9,2.8,5.8,4.4l-3.5,3.5l-102.2,102c-0.3,0.2-0.5,0.4-0.7,0.7l-2.8,2.8
				C51.7,161.4,49.7,158.6,48,155.7z M146.3,231.4c-40,0-74.4-28.1-82.4-67.3l99.3-99.3c39.3,8.1,67.3,42.4,67.3,82.4
				C230.4,193.6,192.6,231.4,146.3,231.4z"/>
			<path class="st1" d="M216.4,143.7c-2.1,0-3.5,1.4-3.5,3.5s1.4,3.5,3.5,3.5s3.5-1.4,3.5-3.5S218.5,143.7,216.4,143.7z"/>
			<path class="st1" d="M198.9,143.7c-2.1,0-3.5,1.4-3.5,3.5s1.4,3.5,3.5,3.5s3.5-1.4,3.5-3.5C202.4,145.1,201,143.7,198.9,143.7z"
				/>
			<path class="st1" d="M106.6,182c-1.4,1.4-1.4,3.5,0,4.9s3.5,1.4,4.9,0s1.4-3.5,0-4.9S108,180.6,106.6,182z"/>
			<path class="st1" d="M94.3,194.3c-1.4,1.4-1.4,3.5,0,4.9s3.5,1.4,4.9,0s1.4-3.5,0-4.9S95.4,192.8,94.3,194.3z"/>
			<path class="st1" d="M198.2,100.3c1.4-1.4,1.4-3.5,0-4.9c-1.1-1.4-3.5-1.4-4.9,0s-1.4,3.5,0,4.9S196.8,101.7,198.2,100.3z"/>
			<path class="st1" d="M181,107.6c-1.4,1.4-1.4,3.5,0,4.9s3.5,1.4,4.9,0s1.4-3.5,0-4.9S182.4,106.2,181,107.6z"/>
			<path class="st1" d="M193.3,194.3c-1.4,1.4-1.4,3.5,0,4.9s3.5,1.4,4.9,0c1.4-1.1,1.4-3.5,0-4.9
				C196.8,192.8,194.7,192.8,193.3,194.3z"/>
			<path class="st1" d="M181,182c-1.4,1.4-1.4,3.5,0,4.9s3.5,1.4,4.9,0s1.4-3.5,0-4.9S182.4,180.6,181,182z"/>
		</g>
	</g>
</g>
</svg>
