<?xml version="1.0" encoding="utf-8"?>
<!-- Generator: Adobe Illustrator 21.0.2, SVG Export Plug-In . SVG Version: 6.00 Build 0)  -->
<svg version="1.1" id="Layer_1" xmlns="http://www.w3.org/2000/svg" xmlns:xlink="http://www.w3.org/1999/xlink" x="0px" y="0px"
	 viewBox="0 0 283.5 283.5" style="enable-background:new 0 0 283.5 283.5;" xml:space="preserve">
<style type="text/css">
	.st0{fill:#FFFFFF;stroke:#939598;stroke-width:8.5039;stroke-miterlimit:10;}
	.st1{fill:#D81F2A;}
	.st2{fill:#939598;}
</style>
<circle class="st0" cx="141.7" cy="141.7" r="135.5"/>
<g transform="translate(1 1)">
	<g>
		<g>
			<path class="st1" d="M486-12.6v35.8c0,2.1,1.4,3.6,3.6,3.6h39.4v35.8c0,1.4,0.7,2.5,1.8,3.2c0.7,0.4,1.1,0.4,1.8,0.4
				c0.7,0,1.4-0.4,2.1-0.7l78.7-57.3c0.7-0.7,1.4-1.8,1.4-2.9c0-1.1-0.7-2.1-1.4-2.9l-78.7-57.3c-1.1-0.7-2.5-1.1-3.6-0.4
				c-1.4,0.7-2.1,1.8-2.1,3.2v35.8h-39.4C487.4-16.2,486-14.8,486-12.6z M493.2-9.1h39.4c2.1,0,3.6-1.4,3.6-3.6v-32.2l69.1,50.1
				l-69.1,50.1V23.1c0-2.1-1.4-3.6-3.6-3.6h-39.4V-9.1z"/>
			<path class="st1" d="M457.4-5.5V16c0,6.1,4.7,10.7,10.7,10.7c6.1,0,10.7-4.7,10.7-10.7V-5.5c0-6.1-4.7-10.7-10.7-10.7
				C462-16.2,457.4-11.6,457.4-5.5z M464.5-5.5c0-2.1,1.4-3.6,3.6-3.6s3.6,1.4,3.6,3.6V16c0,2.1-1.4,3.6-3.6,3.6s-3.6-1.4-3.6-3.6
				V-5.5z"/>
			<path class="st1" d="M428.7-5.5V16c0,6.1,4.7,10.7,10.7,10.7s10.7-4.7,10.7-10.7V-5.5c0-6.1-4.7-10.7-10.7-10.7
				C433.4-16.2,428.7-11.6,428.7-5.5z M435.9-5.5c0-2.1,1.4-3.6,3.6-3.6s3.6,1.4,3.6,3.6V16c0,2.1-1.4,3.6-3.6,3.6s-3.6-1.4-3.6-3.6
				V-5.5z"/>
			<path class="st1" d="M400.1-5.5V16c0,6.1,4.7,10.7,10.7,10.7s10.7-4.7,10.7-10.7V-5.5c0-6.1-4.7-10.7-10.7-10.7
				C404.8-16.2,400.1-11.6,400.1-5.5z M407.3-5.5c0-2.1,1.4-3.6,3.6-3.6s3.6,1.4,3.6,3.6V16c0,2.1-1.4,3.6-3.6,3.6s-3.6-1.4-3.6-3.6
				V-5.5z"/>
		</g>
	</g>
</g>
<g>
	<path class="st1" d="M-211.2,7.4c0,7.2,5.8,13,13,13s13-5.8,13-13c0-1.8-1.5-3.3-3.3-3.3s-3.3,1.5-3.3,3.3c0,3.6-2.9,6.5-6.5,6.5
		s-6.5-2.9-6.5-6.5c0-0.7,0.1-1.3,0.3-1.9c0.1-0.2,0.2-0.3,0.3-0.5c0.1-0.2,0.1-0.4,0.2-0.6c1.1-2.1,3.3-3.5,5.8-3.5
		c1.8,0,3.3-1.5,3.3-3.3s-1.5-3.3-3.3-3.3c-4.2,0-8,2-10.4,5.2l-49.6-20.4c-1.7-0.7-3.6,0.1-4.2,1.8c-0.7,1.7,0.1,3.6,1.8,4.2
		l49.6,20.4C-211.1,6.1-211.2,6.8-211.2,7.4z"/>
	<path class="st1" d="M-124.5-66.3c-19.7-19.7-45.8-30.5-73.7-30.5c-27.8,0-54,10.8-73.7,30.5c-19.7,19.7-30.5,45.8-30.5,73.7
		c0,20.4,5.9,40.1,17.1,57.1c0.6,1,1.7,1.5,2.7,1.5c0.6,0,1.2-0.2,1.8-0.5c1.5-1,1.9-3,0.9-4.5c-2.8-4.2-5.2-8.6-7.3-13.2l9-3.7
		c1.7-0.7,2.4-2.6,1.8-4.3c-0.7-1.7-2.6-2.4-4.3-1.8l-9,3.7c-3.7-9.9-5.8-20.4-6.2-31.1h9.7c1.8,0,3.3-1.5,3.3-3.3s-1.5-3.3-3.3-3.3
		h-9.7c0.4-10.8,2.4-21.3,6.1-31.1l9,3.7c0.4,0.2,0.8,0.2,1.2,0.2c1.3,0,2.5-0.8,3-2c0.7-1.7-0.1-3.6-1.8-4.3l-9-3.7
		c4.4-9.6,10.3-18.5,17.7-26.3l6.9,6.9c0.6,0.6,1.5,1,2.3,1s1.7-0.3,2.3-1c1.3-1.3,1.3-3.3,0-4.6l-6.9-6.9
		c7.9-7.4,16.8-13.3,26.3-17.7l3.7,9c0.5,1.3,1.7,2,3,2c0.4,0,0.8-0.1,1.2-0.2c1.7-0.7,2.4-2.6,1.8-4.3l-3.7-9
		c9.9-3.7,20.3-5.8,31.1-6.1v9.7c0,1.8,1.5,3.3,3.3,3.3s3.3-1.5,3.3-3.3v-9.7c10.8,0.4,21.3,2.4,31.1,6.1l-3.7,9
		c-0.7,1.7,0.1,3.6,1.8,4.3c0.4,0.2,0.8,0.2,1.2,0.2c1.3,0,2.5-0.8,3-2l3.7-9c9.6,4.4,18.5,10.3,26.3,17.7l-6.9,6.9
		c-1.3,1.3-1.3,3.3,0,4.6c0.6,0.6,1.5,1,2.3,1c0.8,0,1.7-0.3,2.3-1l6.9-6.9c7.4,7.9,13.3,16.8,17.7,26.3l-9,3.7
		c-1.7,0.7-2.4,2.6-1.8,4.3c0.5,1.3,1.7,2,3,2c0.4,0,0.8-0.1,1.2-0.2l9-3.7c3.7,9.9,5.8,20.3,6.1,31.1h-9.7c-1.8,0-3.3,1.5-3.3,3.3
		s1.5,3.3,3.3,3.3h9.7c-0.4,10.7-2.4,21.2-6.2,31.1l-9-3.7c-1.7-0.7-3.6,0.1-4.3,1.8c-0.7,1.7,0.1,3.6,1.8,4.3l9,3.7
		c-2.1,4.6-4.5,9-7.3,13.2c-1,1.5-0.6,3.5,0.9,4.5c1.5,1,3.5,0.6,4.5-0.9C-99.9,47.5-94,27.8-94,7.4C-94-20.5-104.8-46.6-124.5-66.3
		z"/>
	<path class="st1" d="M-168.9,43.1h-58.6c-5.4,0-9.8,4.4-9.8,9.8v13c0,5.4,4.4,9.8,9.8,9.8h58.6c5.4,0,9.8-4.4,9.8-9.8v-13
		C-159.2,47.5-163.5,43.1-168.9,43.1z M-165.7,65.9c0,1.8-1.5,3.3-3.3,3.3h-58.6c-1.8,0-3.3-1.5-3.3-3.3v-13c0-1.8,1.5-3.3,3.3-3.3
		h58.6c1.8,0,3.3,1.5,3.3,3.3V65.9z"/>
	<path class="st1" d="M-195,56.1h-6.5c-1.8,0-3.3,1.5-3.3,3.3s1.5,3.3,3.3,3.3h6.5c1.8,0,3.3-1.5,3.3-3.3S-193.2,56.1-195,56.1z"/>
	<path class="st1" d="M-211.2,56.1h-6.5c-1.8,0-3.3,1.5-3.3,3.3s1.5,3.3,3.3,3.3h6.5c1.8,0,3.3-1.5,3.3-3.3S-209.4,56.1-211.2,56.1z
		"/>
	<path class="st1" d="M-178.7,56.1h-6.5c-1.8,0-3.3,1.5-3.3,3.3s1.5,3.3,3.3,3.3h6.5c1.8,0,3.3-1.5,3.3-3.3S-176.9,56.1-178.7,56.1z
		"/>
</g>
<g transform="translate(1 1)">
	<g>
		<g>
			<path class="st2" d="M146.3,108.7c-21.4,0-38.6,17.2-38.6,38.6s17.2,38.6,38.6,38.6s38.6-17.2,38.6-38.6S167.6,108.7,146.3,108.7
				z M146.3,178.8c-17.5,0-31.6-14-31.6-31.6s14-31.6,31.6-31.6s31.6,14,31.6,31.6S163.8,178.8,146.3,178.8z"/>
			<path class="st2" d="M146.3,129.7c-9.8,0-17.5,7.7-17.5,17.5s7.7,17.5,17.5,17.5s17.5-7.7,17.5-17.5S156.1,129.7,146.3,129.7z
				 M146.3,157.8c-6,0-10.5-4.6-10.5-10.5s4.6-10.5,10.5-10.5s10.5,4.6,10.5,10.5S152.2,157.8,146.3,157.8z"/>
			<path class="st2" d="M146.3,196.4c-2.1,0-3.5,1.4-3.5,3.5s1.4,3.5,3.5,3.5s3.5-1.4,3.5-3.5C149.8,197.8,148.4,196.4,146.3,196.4z
				"/>
			<path class="st2" d="M146.3,213.9c-2.1,0-3.5,1.4-3.5,3.5c0,2.1,1.4,3.5,3.5,3.5s3.5-1.4,3.5-3.5
				C149.8,215.3,148.4,213.9,146.3,213.9z"/>
			<path class="st2" d="M146.3,98.1c2.1,0,3.5-1.4,3.5-3.5s-1.4-3.5-3.5-3.5s-3.5,1.4-3.5,3.5S144.1,98.1,146.3,98.1z"/>
			<path class="st2" d="M169,58.9l1.4-1.4c0.7-0.7,1.1-1.4,1.1-2.5s-0.4-1.8-1.1-2.5c-3.5-3.5-7.3-6.5-11.5-9
				c-0.3-0.3-0.7-0.5-1.1-0.6c-4-2.3-8.4-4.2-12.8-5.5c-0.7-0.5-1.6-0.7-2.4-0.7c-4.7-1.2-9.5-1.8-14.4-1.8
				c-15.8,0-30.9,6.3-42.1,17.5L51.6,87.3C40.3,98.5,34,113.6,34,129.4s6.3,30.9,17.5,42.1c0.7,0.7,1.4,1.1,2.5,1.1
				c0.7,0,1.8-0.4,2.5-1.1l1.4-1.4c10.4,39.9,46.4,68.4,88.4,68.4c50.2,0,91.2-41,91.2-91.2C237.4,105.2,208.9,69.3,169,58.9z
				 M48,155.7l13.3-13.3c1.4-1.4,1.4-3.5,0-4.9c-1.4-1.4-3.5-1.4-4.9,0l-11.6,11.6c-1.2-3-2.1-6.1-2.8-9.3c0.2,0,0.5,0.1,0.7,0.1
				c0.7,0,1.8-0.4,2.5-1.1L69.1,115c1.4-1.4,1.4-3.5,0-4.9c-1.4-1.4-3.5-1.4-4.9,0l-23,23c-0.1-1.2-0.1-2.5-0.1-3.7
				c0-14,5.6-27.4,15.4-37.2l34.7-34.7C101,47.6,114.3,42,128.4,42c2.6,0,5.1,0.2,7.5,0.5l-24.7,24.7c-1.4,1.4-1.4,3.5,0,4.9
				c0.7,0.7,1.4,1.1,2.5,1.1c0.7,0,1.8-0.4,2.5-1.1l27.8-27.8c2.4,0.7,4.8,1.7,7.1,2.8l-15.3,15.3c-1.4,1.4-1.4,3.5,0,4.9
				c0.7,0.7,1.4,1.1,2.5,1.1c1.1,0,1.8-0.4,2.5-1.1l16.6-16.6c2,1.3,3.9,2.8,5.8,4.4l-3.5,3.5L57.5,160.6c-0.3,0.2-0.5,0.4-0.7,0.7
				l-2.8,2.8C51.7,161.4,49.7,158.6,48,155.7z M146.3,231.4c-40,0-74.4-28.1-82.4-67.3l99.3-99.3c39.3,8.1,67.3,42.4,67.3,82.4
				C230.4,193.6,192.6,231.4,146.3,231.4z"/>
			<path class="st2" d="M216.4,143.7c-2.1,0-3.5,1.4-3.5,3.5s1.4,3.5,3.5,3.5s3.5-1.4,3.5-3.5S218.5,143.7,216.4,143.7z"/>
			<path class="st2" d="M198.9,143.7c-2.1,0-3.5,1.4-3.5,3.5s1.4,3.5,3.5,3.5s3.5-1.4,3.5-3.5C202.4,145.1,201,143.7,198.9,143.7z"
				/>
			<path class="st2" d="M106.6,182c-1.4,1.4-1.4,3.5,0,4.9c1.4,1.4,3.5,1.4,4.9,0c1.4-1.4,1.4-3.5,0-4.9S108,180.6,106.6,182z"/>
			<path class="st2" d="M94.3,194.3c-1.4,1.4-1.4,3.5,0,4.9c1.4,1.4,3.5,1.4,4.9,0c1.4-1.4,1.4-3.5,0-4.9S95.4,192.8,94.3,194.3z"/>
			<path class="st2" d="M198.2,100.3c1.4-1.4,1.4-3.5,0-4.9c-1.1-1.4-3.5-1.4-4.9,0c-1.4,1.4-1.4,3.5,0,4.9S196.8,101.7,198.2,100.3
				z"/>
			<path class="st2" d="M181,107.6c-1.4,1.4-1.4,3.5,0,4.9s3.5,1.4,4.9,0c1.4-1.4,1.4-3.5,0-4.9C184.5,106.2,182.4,106.2,181,107.6z
				"/>
			<path class="st2" d="M193.3,194.3c-1.4,1.4-1.4,3.5,0,4.9c1.4,1.4,3.5,1.4,4.9,0c1.4-1.1,1.4-3.5,0-4.9
				C196.8,192.8,194.7,192.8,193.3,194.3z"/>
			<path class="st2" d="M181,182c-1.4,1.4-1.4,3.5,0,4.9c1.4,1.4,3.5,1.4,4.9,0c1.4-1.4,1.4-3.5,0-4.9
				C184.5,180.6,182.4,180.6,181,182z"/>
		</g>
	</g>
</g>
</svg>
