<?xml version="1.0" encoding="utf-8"?>
<!-- Generator: Adobe Illustrator 21.0.2, SVG Export Plug-In . SVG Version: 6.00 Build 0)  -->
<svg version="1.1" id="Layer_1" xmlns="http://www.w3.org/2000/svg" xmlns:xlink="http://www.w3.org/1999/xlink" x="0px" y="0px"
	 viewBox="0 0 283.5 283.5" style="enable-background:new 0 0 283.5 283.5;" xml:space="preserve">
<style type="text/css">
	.st0{fill:#D81F2A;stroke:#D81F2A;stroke-width:8.5039;stroke-miterlimit:10;}
	.st1{fill:#FFFFFF;}
</style>
<circle class="st0" cx="141.7" cy="141.7" r="135.5"/>
<g transform="translate(1 1)">
	<g>
		<g>
			<path class="st1" d="M158.6,119.3h-39.4V83.5c0-1.4-0.7-2.5-2.1-3.2c-1.1-0.7-2.5-0.4-3.6,0.4L34.8,138c-0.7,0.7-1.4,1.8-1.4,2.9
				c0,1.1,0.7,2.1,1.4,2.9l78.7,57.3c0.7,0.4,1.4,0.7,2.1,0.7s1.1,0,1.8-0.4c1.1-0.7,1.8-1.8,1.8-3.2v-35.8h39.4
				c2.1,0,3.6-1.4,3.6-3.6V123C162.2,120.7,160.8,119.3,158.6,119.3z M155,155.1h-39.4c-2.1,0-3.6,1.4-3.6,3.6v32.2l-69-50.2
				l69.1-50.1v32.2c0,2.1,1.4,3.6,3.6,3.6H155V155.1z"/>
			<path class="st1" d="M180.1,119.3c-6.1,0-10.7,4.7-10.7,10.7v21.5c0,6.1,4.7,10.7,10.7,10.7c6.1,0,10.7-4.7,10.7-10.7V130
				C190.8,123.9,186.2,119.3,180.1,119.3z M183.7,151.5c0,2.1-1.4,3.6-3.6,3.6s-3.6-1.4-3.6-3.6V130c0-2.1,1.4-3.6,3.6-3.6
				s3.6,1.4,3.6,3.6V151.5z"/>
			<path class="st1" d="M208.7,119.3c-6.1,0-10.7,4.7-10.7,10.7v21.5c0,6.1,4.7,10.7,10.7,10.7s10.7-4.7,10.7-10.7V130
				C219.5,123.9,214.8,119.3,208.7,119.3z M212.3,151.5c0,2.1-1.4,3.6-3.6,3.6s-3.6-1.4-3.6-3.6V130c0-2.1,1.4-3.6,3.6-3.6
				s3.6,1.4,3.6,3.6V151.5z"/>
			<path class="st1" d="M237.3,119.3c-6.1,0-10.7,4.7-10.7,10.7v21.5c0,6.1,4.7,10.7,10.7,10.7s10.7-4.7,10.7-10.7V130
				C248.1,123.9,243.4,119.3,237.3,119.3z M240.9,151.5c0,2.1-1.4,3.6-3.6,3.6s-3.6-1.4-3.6-3.6V130c0-2.1,1.4-3.6,3.6-3.6
				s3.6,1.4,3.6,3.6V151.5z"/>
		</g>
	</g>
</g>
</svg>
