<?xml version="1.0" encoding="utf-8"?>
<!-- Generator: Adobe Illustrator 21.0.2, SVG Export Plug-In . SVG Version: 6.00 Build 0)  -->
<svg version="1.1" id="Layer_1" xmlns="http://www.w3.org/2000/svg" xmlns:xlink="http://www.w3.org/1999/xlink" x="0px" y="0px"
	 viewBox="0 0 283.5 283.5" style="enable-background:new 0 0 283.5 283.5;" xml:space="preserve">
<style type="text/css">
	.st0{fill:#FF6700;stroke:#FF6700;stroke-width:8.5039;stroke-miterlimit:10;}
	.st1{fill:#FFFFFF;}
</style>
<circle class="st0" cx="141.8" cy="141.7" r="135.5"/>
<g transform="translate(1 1)">
	<g>
		<g>
			<path class="st1" d="M119.3,122.9v35.8c0,2.1,1.4,3.6,3.6,3.6h39.4V198c0,1.4,0.7,2.5,1.8,3.2c0.7,0.4,1.1,0.4,1.8,0.4
				s1.4-0.4,2.1-0.7l78.7-57.3c0.7-0.7,1.4-1.8,1.4-2.9c0-1.1-0.7-2.1-1.4-2.9L168,80.5c-1.1-0.7-2.5-1.1-3.6-0.4
				c-1.4,0.7-2.1,1.8-2.1,3.2v35.8h-39.4C120.7,119.3,119.3,120.7,119.3,122.9z M126.4,126.4h39.4c2.1,0,3.6-1.4,3.6-3.6V90.7
				l69.1,50.1l-69.1,50.1v-32.2c0-2.1-1.4-3.6-3.6-3.6h-39.4L126.4,126.4L126.4,126.4z"/>
			<path class="st1" d="M90.6,130v21.5c0,6.1,4.7,10.7,10.7,10.7c6.1,0,10.7-4.7,10.7-10.7V130c0-6.1-4.7-10.7-10.7-10.7
				C95.3,119.3,90.6,123.9,90.6,130z M97.8,130c0-2.1,1.4-3.6,3.6-3.6s3.6,1.4,3.6,3.6v21.5c0,2.1-1.4,3.6-3.6,3.6s-3.6-1.4-3.6-3.6
				V130z"/>
			<path class="st1" d="M62,130v21.5c0,6.1,4.7,10.7,10.7,10.7s10.7-4.7,10.7-10.7V130c0-6.1-4.7-10.7-10.7-10.7S62,123.9,62,130z
				 M69.2,130c0-2.1,1.4-3.6,3.6-3.6s3.6,1.4,3.6,3.6v21.5c0,2.1-1.4,3.6-3.6,3.6s-3.6-1.4-3.6-3.6V130z"/>
			<path class="st1" d="M33.4,130v21.5c0,6.1,4.7,10.7,10.7,10.7s10.7-4.7,10.7-10.7V130c0-6.1-4.7-10.7-10.7-10.7
				C38,119.3,33.4,123.9,33.4,130z M40.5,130c0-2.1,1.4-3.6,3.6-3.6s3.6,1.4,3.6,3.6v21.5c0,2.1-1.4,3.6-3.6,3.6s-3.6-1.4-3.6-3.6
				V130z"/>
		</g>
	</g>
</g>
</svg>
