<?xml version="1.0" encoding="utf-8"?>
<!-- Generator: Adobe Illustrator 21.0.2, SVG Export Plug-In . SVG Version: 6.00 Build 0)  -->
<svg version="1.1" id="Layer_1" xmlns="http://www.w3.org/2000/svg" xmlns:xlink="http://www.w3.org/1999/xlink" x="0px" y="0px"
	 viewBox="0 0 283.5 283.5" style="enable-background:new 0 0 283.5 283.5;" xml:space="preserve">
<style type="text/css">
	.st0{fill:#D52027;}
	.st1{fill:#FFFFFF;}
</style>
<circle class="st0" cx="141.7" cy="141.7" r="141.7"/>
<g>
	<path class="st1" d="M113.2,198.2h-9.3V96.5l-30.7,11.4v-8.7l38.4-14.3h1.6V198.2z"/>
	<path class="st1" d="M210.2,151.1c0,15.9-2.9,28-8.8,36.2c-5.8,8.2-14.4,12.4-25.8,12.4c-11.2,0-19.7-4-25.7-12.1
		c-5.9-8.1-9-19.9-9.1-35.3V132c0-15.9,2.9-27.9,8.8-36c5.9-8.2,14.5-12.2,25.8-12.2c11.2,0,19.7,3.9,25.6,11.8
		c5.9,7.9,8.9,19.5,9.1,34.8V151.1z M200.9,130.9c0-12.9-2.1-22.7-6.3-29.3c-4.2-6.6-10.6-9.9-19.1-9.9c-8.4,0-14.7,3.2-18.9,9.7
		c-4.2,6.5-6.4,16-6.5,28.6v22.2c0,12.9,2.2,22.7,6.5,29.5c4.4,6.8,10.7,10.2,19,10.2c8.3,0,14.5-3.3,18.8-10
		c4.3-6.7,6.4-16.4,6.5-29.3V130.9z"/>
</g>
</svg>
