<?xml version="1.0" encoding="utf-8"?>
<!-- Generator: Adobe Illustrator 21.0.2, SVG Export Plug-In . SVG Version: 6.00 Build 0)  -->
<svg version="1.1" id="Layer_1" xmlns="http://www.w3.org/2000/svg" xmlns:xlink="http://www.w3.org/1999/xlink" x="0px" y="0px"
	 viewBox="0 0 283.5 283.5" style="enable-background:new 0 0 283.5 283.5;" xml:space="preserve">
<style type="text/css">
	.st0{fill:#BFBFB9;}
</style>
<circle class="st0" cx="141.7" cy="141.7" r="141.7"/>
<g>
	<path d="M110.5,198.2h-9.3V96.5l-30.7,11.4v-8.7L109,84.9h1.6V198.2z"/>
	<path d="M206,114.4c0,5.8-1.7,11.1-5.1,15.7c-3.4,4.6-7.9,8-13.5,10.2c6.5,2.2,11.7,5.8,15.7,10.8c3.9,5,5.9,10.7,5.9,17.2
		c0,9.7-3.3,17.3-9.8,23c-6.6,5.7-15.2,8.5-26,8.5c-10.9,0-19.6-2.8-26.2-8.4c-6.5-5.6-9.8-13.3-9.8-23c0-6.4,1.9-12.1,5.7-17.1
		c3.8-5,8.9-8.6,15.5-10.9c-5.6-2.2-10-5.6-13.3-10.2c-3.3-4.6-5-9.9-5-15.7c0-9.4,3-16.8,9-22.3c6-5.5,14-8.3,23.9-8.3
		c9.9,0,17.9,2.8,24,8.4C202.9,97.7,206,105.1,206,114.4z M199.6,168.3c0-7-2.5-12.8-7.5-17.3c-5-4.5-11.4-6.8-19.2-6.8
		s-14.2,2.2-19.1,6.7c-5,4.4-7.4,10.3-7.4,17.4c0,7.2,2.4,12.9,7.2,17.2s11.3,6.4,19.5,6.4c8,0,14.4-2.1,19.3-6.4
		C197.2,181.3,199.6,175.6,199.6,168.3z M196.7,114.3c0-6.5-2.2-11.8-6.7-16.2c-4.5-4.3-10.2-6.5-17.1-6.5c-7,0-12.7,2.1-17.1,6.2
		c-4.4,4.2-6.5,9.6-6.5,16.4c0,6.6,2.2,11.9,6.5,16c4.4,4,10.1,6,17.2,6c7,0,12.7-2,17.1-6.1C194.5,126.2,196.7,120.9,196.7,114.3z"
		/>
</g>
</svg>
