<?xml version="1.0" encoding="utf-8"?>
<!-- Generator: Adobe Illustrator 21.0.2, SVG Export Plug-In . SVG Version: 6.00 Build 0)  -->
<svg version="1.1" id="Layer_1" xmlns="http://www.w3.org/2000/svg" xmlns:xlink="http://www.w3.org/1999/xlink" x="0px" y="0px"
	 viewBox="0 0 283.5 283.5" style="enable-background:new 0 0 283.5 283.5;" xml:space="preserve">
<style type="text/css">
	.st0{fill:#026654;}
	.st1{fill:#FFFFFF;}
</style>
<circle class="st0" cx="141.7" cy="141.7" r="141.7"/>
<g>
	<path class="st1" d="M111.7,198.5h-9.3V96.8l-30.7,11.4v-8.7l38.4-14.3h1.6V198.5z"/>
	<path class="st1" d="M198.5,146.3c-3.3,4.9-7.4,8.6-12.3,11.3c-4.9,2.7-10.2,4-16,4c-6.4,0-12.1-1.7-17-5
		c-4.9-3.3-8.7-7.9-11.4-13.7c-2.7-5.8-4-12.2-4-19.1c0-7.4,1.4-14.2,4.3-20.3c2.9-6.1,6.9-10.8,12-14.2c5.1-3.4,11.1-5.1,17.8-5.1
		c11.3,0,20.1,4,26.4,11.9c6.3,7.9,9.5,19.2,9.5,33.8v8.4c0,20.4-4.3,35.7-13,45.9c-8.7,10.2-21.9,15.3-39.8,15.3h-1.7l0.1-8.1h3.3
		c13.5-0.2,23.7-4,30.8-11.5S198.1,161.2,198.5,146.3z M171.4,153.5c6.2,0,11.8-1.8,16.7-5.5c4.9-3.7,8.4-8.5,10.5-14.3v-5.3
		c0-11.4-2.4-20.3-7.2-26.6c-4.8-6.3-11.2-9.5-19.3-9.5c-7.3,0-13.4,3-18.1,8.9c-4.7,5.9-7.1,13.3-7.1,22.3c0,8.6,2.3,15.8,6.8,21.5
		C158.2,150.6,164.1,153.5,171.4,153.5z"/>
</g>
</svg>
