<?xml version="1.0" encoding="utf-8"?>
<!-- Generator: Adobe Illustrator 21.0.2, SVG Export Plug-In . SVG Version: 6.00 Build 0)  -->
<svg version="1.1" id="Layer_1" xmlns="http://www.w3.org/2000/svg" xmlns:xlink="http://www.w3.org/1999/xlink" x="0px" y="0px"
	 viewBox="0 0 283.5 283.5" style="enable-background:new 0 0 283.5 283.5;" xml:space="preserve">
<style type="text/css">
	.st0{fill:#6F7273;}
	.st1{fill:#FFFFFF;}
</style>
<circle class="st0" cx="141.7" cy="141.7" r="141.7"/>
<g>
	<path class="st1" d="M109,185.1H54.7v-5.5l29.7-33.7c4.9-5.7,8.3-10.4,10.2-14c1.9-3.7,2.9-7.3,2.9-10.8c0-5.5-1.6-9.8-4.8-13
		c-3.2-3.2-7.6-4.8-13.3-4.8c-5.8,0-10.5,1.9-14.1,5.6c-3.6,3.7-5.4,8.6-5.4,14.5h-7.1c0-4.9,1.1-9.3,3.3-13.3
		c2.2-4,5.3-7.2,9.4-9.4c4.1-2.3,8.7-3.4,13.9-3.4c7.9,0,14.1,2.1,18.6,6.2c4.5,4.2,6.7,9.8,6.7,17c0,4-1.3,8.5-3.8,13.3
		c-2.5,4.8-7,10.8-13.3,18L63.5,179H109V185.1z"/>
	<path class="st1" d="M168.5,148.9c0,12.2-2.2,21.5-6.7,27.8c-4.5,6.3-11.1,9.5-19.8,9.5c-8.6,0-15.1-3.1-19.7-9.3
		c-4.6-6.2-6.9-15.2-7-27.1v-15.5c0-12.2,2.3-21.4,6.8-27.7c4.5-6.3,11.1-9.4,19.8-9.4c8.6,0,15.1,3,19.6,9.1c4.5,6.1,6.9,15,7,26.8
		V148.9z M161.3,133.4c0-9.9-1.6-17.4-4.9-22.5c-3.2-5.1-8.1-7.6-14.7-7.6c-6.4,0-11.3,2.5-14.5,7.4c-3.3,5-4.9,12.3-5,22v17
		c0,9.9,1.7,17.4,5,22.7c3.4,5.2,8.2,7.9,14.6,7.9c6.3,0,11.2-2.6,14.4-7.7c3.3-5.1,4.9-12.6,5-22.5V133.4z"/>
	<path class="st1" d="M187.8,178.9h42.8v6.2h-50.2V98.4h7.4V178.9z"/>
</g>
</svg>
