<?xml version="1.0" encoding="utf-8"?>
<!-- Generator: Adobe Illustrator 21.0.2, SVG Export Plug-In . SVG Version: 6.00 Build 0)  -->
<svg version="1.1" id="Layer_1" xmlns="http://www.w3.org/2000/svg" xmlns:xlink="http://www.w3.org/1999/xlink" x="0px" y="0px"
	 viewBox="0 0 283.5 283.5" style="enable-background:new 0 0 283.5 283.5;" xml:space="preserve">
<style type="text/css">
	.st0{fill:#6F7273;}
	.st1{fill:#FFFFFF;}
</style>
<circle class="st0" cx="141.7" cy="141.7" r="141.7"/>
<g>
	<path class="st1" d="M138.4,198.2H67.7V191l38.7-43.9c6.4-7.4,10.9-13.5,13.3-18.3c2.5-4.8,3.7-9.5,3.7-14c0-7.1-2.1-12.8-6.3-16.9
		c-4.2-4.2-9.9-6.2-17.3-6.2c-7.6,0-13.7,2.4-18.4,7.3c-4.7,4.9-7,11.2-7,18.9h-9.2c0-6.4,1.4-12.1,4.3-17.4
		c2.9-5.2,6.9-9.3,12.2-12.3c5.3-3,11.3-4.5,18.1-4.5c10.3,0,18.4,2.7,24.2,8.1c5.8,5.4,8.7,12.8,8.7,22.2c0,5.3-1.6,11-4.9,17.3
		c-3.3,6.3-9.1,14.1-17.3,23.4l-31.5,35.6h59.3V198.2z"/>
	<path class="st1" d="M154,140.3l5.5-55H216v8.6h-48.4l-4,38.1c6-4.1,13.1-6.2,21.2-6.2c10.2,0,18.3,3.3,24.3,9.9
		c6,6.6,9.1,15.4,9.1,26.4c0,11.9-2.9,21.1-8.8,27.7c-5.9,6.6-14.2,9.8-24.9,9.8c-9.8,0-17.8-2.7-23.9-8.2
		c-6.1-5.5-9.6-13.1-10.5-23h8.9c0.9,7.7,3.5,13.5,7.8,17.5c4.3,4,10.2,5.9,17.6,5.9c8.1,0,14.1-2.6,18.3-7.7
		c4.1-5.1,6.2-12.4,6.2-21.9c0-8.3-2.3-15-6.9-20.2c-4.6-5.2-10.9-7.8-18.8-7.8c-4.4,0-8.2,0.6-11.5,1.7c-3.3,1.1-6.7,3.3-10.3,6.5
		L154,140.3z"/>
</g>
</svg>
