<?xml version="1.0" encoding="utf-8"?>
<!-- Generator: Adobe Illustrator 21.0.2, SVG Export Plug-In . SVG Version: 6.00 Build 0)  -->
<svg version="1.1" id="Layer_1" xmlns="http://www.w3.org/2000/svg" xmlns:xlink="http://www.w3.org/1999/xlink" x="0px" y="0px"
	 viewBox="0 0 283.5 283.5" style="enable-background:new 0 0 283.5 283.5;" xml:space="preserve">
<style type="text/css">
	.st0{fill:#BFBFB9;}
</style>
<circle class="st0" cx="141.7" cy="141.7" r="141.7"/>
<g>
	<path d="M104.8,185.1H50.5v-5.5l29.7-33.7c4.9-5.7,8.3-10.4,10.2-14c1.9-3.7,2.9-7.3,2.9-10.8c0-5.5-1.6-9.8-4.8-13
		c-3.2-3.2-7.6-4.8-13.3-4.8c-5.8,0-10.5,1.9-14.1,5.6c-3.6,3.7-5.4,8.6-5.4,14.5h-7.1c0-4.9,1.1-9.3,3.3-13.3
		c2.2-4,5.3-7.2,9.4-9.4c4.1-2.3,8.7-3.4,13.9-3.4c7.9,0,14.1,2.1,18.6,6.2c4.5,4.2,6.7,9.8,6.7,17c0,4-1.3,8.5-3.8,13.3
		c-2.5,4.8-7,10.8-13.3,18L59.2,179h45.5V185.1z"/>
	<path d="M154,97.7v6.2h-0.8c-10.4,0-18.5,3.1-24.5,9.2c-6,6.1-9.2,14.6-9.9,25.4c2.4-3.3,5.4-5.8,9.1-7.6c3.7-1.8,7.8-2.7,12.4-2.7
		c7.6,0,13.7,2.6,18.2,7.9c4.5,5.3,6.8,12.1,6.8,20.6c0,5.6-1.1,10.7-3.2,15.2c-2.1,4.5-5.1,8-9,10.6c-3.9,2.5-8.4,3.8-13.5,3.8
		c-8.3,0-15-3-20.2-9c-5.2-6-7.8-13.8-7.8-23.3v-7.1c0-15.5,3.5-27.5,10.6-36c7.1-8.5,17.1-12.8,30.1-13H154z M139.1,134.3
		c-4.5,0-8.7,1.3-12.6,4c-3.9,2.7-6.5,6.1-7.8,10.2v6.1c0,7.5,1.9,13.7,5.8,18.4c3.9,4.8,8.9,7.1,15.1,7.1c5.6,0,10-2.2,13.5-6.6
		c3.4-4.4,5.1-9.9,5.1-16.6c0-6.8-1.7-12.3-5.1-16.4C149.6,136.4,145,134.3,139.1,134.3z"/>
	<path d="M183.5,149.8v35.3h-7.3V98.4h29.5c9,0,16.1,2.3,21.3,6.9c5.2,4.6,7.8,10.9,7.8,19c0,8.1-2.5,14.4-7.5,18.8
		c-5,4.4-12.3,6.6-21.8,6.6H183.5z M183.5,143.6h22.2c7.1,0,12.5-1.7,16.2-5.1s5.6-8.1,5.6-14.1c0-6-1.9-10.8-5.6-14.3
		c-3.7-3.6-9-5.4-15.8-5.5h-22.7V143.6z"/>
</g>
</svg>
