<?xml version="1.0" encoding="utf-8"?>
<!-- Generator: Adobe Illustrator 21.0.2, SVG Export Plug-In . SVG Version: 6.00 Build 0)  -->
<svg version="1.1" id="Layer_1" xmlns="http://www.w3.org/2000/svg" xmlns:xlink="http://www.w3.org/1999/xlink" x="0px" y="0px"
	 viewBox="0 0 283.5 283.5" style="enable-background:new 0 0 283.5 283.5;" xml:space="preserve">
<style type="text/css">
	.st0{fill:#6F7273;}
	.st1{fill:#FFFFFF;}
</style>
<circle class="st0" cx="141.7" cy="141.7" r="141.7"/>
<g>
	<path class="st1" d="M140,198.5H69.4v-7.1l38.7-43.9c6.4-7.4,10.9-13.5,13.3-18.3c2.5-4.8,3.7-9.5,3.7-14c0-7.1-2.1-12.8-6.3-16.9
		c-4.2-4.2-9.9-6.2-17.3-6.2c-7.6,0-13.7,2.4-18.4,7.3c-4.7,4.9-7,11.2-7,18.9h-9.2c0-6.4,1.4-12.1,4.3-17.4
		c2.9-5.2,6.9-9.3,12.2-12.3c5.3-3,11.3-4.5,18.1-4.5c10.3,0,18.4,2.7,24.2,8.1c5.8,5.4,8.7,12.8,8.7,22.2c0,5.3-1.6,11-4.9,17.3
		c-3.3,6.3-9.1,14.1-17.3,23.4l-31.5,35.6H140V198.5z"/>
	<path class="st1" d="M207.3,146.3c-3.3,4.9-7.4,8.6-12.3,11.3c-4.9,2.7-10.2,4-16,4c-6.4,0-12.1-1.7-17-5
		c-4.9-3.3-8.7-7.9-11.4-13.7c-2.7-5.8-4-12.2-4-19.1c0-7.4,1.4-14.2,4.3-20.3c2.9-6.1,6.9-10.8,12-14.2c5.1-3.4,11.1-5.1,17.8-5.1
		c11.3,0,20.1,4,26.4,11.9c6.3,7.9,9.5,19.2,9.5,33.8v8.4c0,20.4-4.3,35.7-13,45.9c-8.7,10.2-21.9,15.3-39.8,15.3h-1.7l0.1-8.1h3.3
		c13.5-0.2,23.7-4,30.8-11.5C203.2,172.4,206.9,161.2,207.3,146.3z M180.2,153.5c6.2,0,11.8-1.8,16.7-5.5c4.9-3.7,8.4-8.5,10.5-14.3
		v-5.3c0-11.4-2.4-20.3-7.2-26.6c-4.8-6.3-11.2-9.5-19.3-9.5c-7.3,0-13.4,3-18.1,8.9c-4.7,5.9-7.1,13.3-7.1,22.3
		c0,8.6,2.3,15.8,6.8,21.5C167,150.6,172.9,153.5,180.2,153.5z"/>
</g>
</svg>
