<?xml version="1.0" encoding="utf-8"?>
<!-- Generator: Adobe Illustrator 21.0.2, SVG Export Plug-In . SVG Version: 6.00 Build 0)  -->
<svg version="1.1" id="Layer_1" xmlns="http://www.w3.org/2000/svg" xmlns:xlink="http://www.w3.org/1999/xlink" x="0px" y="0px"
	 viewBox="0 0 283.5 283.5" style="enable-background:new 0 0 283.5 283.5;" xml:space="preserve">
<style type="text/css">
	.st0{fill:#BFBFB9;}
</style>
<circle class="st0" cx="141.7" cy="141.7" r="141.7"/>
<g>
	<path d="M89.8,136.7h9.6c5.3,0,10-0.9,14-2.8c4-1.9,7-4.5,9.1-7.8c2.1-3.3,3.1-7.1,3.1-11.4c0-7.2-2-12.9-6.1-17
		c-4.1-4.1-9.9-6.1-17.6-6.1c-7.2,0-13.2,2.1-17.8,6.4c-4.6,4.3-6.9,9.9-6.9,16.9h-9.3c0-5.8,1.5-11.2,4.4-16
		c2.9-4.8,7-8.6,12.2-11.2c5.2-2.6,11-4,17.4-4c10.2,0,18.3,2.8,24.2,8.4c5.9,5.6,8.8,13.2,8.8,22.9c0,5.4-1.7,10.4-5.2,15
		c-3.4,4.6-8.2,8-14.1,10.3c7,2,12.3,5.3,16,10.1c3.6,4.8,5.4,10.5,5.4,17.1c0,9.7-3.2,17.4-9.5,23.3c-6.3,5.9-14.7,8.8-25.3,8.8
		c-6.7,0-12.9-1.3-18.5-4c-5.6-2.7-9.9-6.4-13-11.3c-3.1-4.8-4.6-10.5-4.6-16.9h9.3c0,7.2,2.5,13,7.5,17.6c5,4.5,11.4,6.8,19.3,6.8
		c8,0,14.2-2.1,18.7-6.2c4.5-4.1,6.7-10.1,6.7-17.9c0-7.5-2.4-13.3-7.2-17.3c-4.8-4-11.9-6-21.4-6h-9.3V136.7z"/>
	<path d="M217.3,151.1c0,15.9-2.9,28-8.8,36.2c-5.8,8.2-14.4,12.4-25.8,12.4c-11.2,0-19.7-4-25.7-12.1c-5.9-8.1-9-19.9-9.1-35.3V132
		c0-15.9,2.9-27.9,8.8-36c5.9-8.2,14.5-12.2,25.8-12.2c11.2,0,19.7,3.9,25.6,11.8c5.9,7.9,8.9,19.5,9.1,34.8V151.1z M208,130.9
		c0-12.9-2.1-22.7-6.3-29.3c-4.2-6.6-10.6-9.9-19.1-9.9c-8.4,0-14.7,3.2-18.9,9.7c-4.2,6.5-6.4,16-6.5,28.6v22.2
		c0,12.9,2.2,22.7,6.5,29.5c4.4,6.8,10.7,10.2,19,10.2c8.3,0,14.5-3.3,18.8-10c4.3-6.7,6.4-16.4,6.5-29.3V130.9z"/>
</g>
</svg>
