<?xml version="1.0" encoding="utf-8"?>
<!-- Generator: Adobe Illustrator 21.0.2, SVG Export Plug-In . SVG Version: 6.00 Build 0)  -->
<svg version="1.1" id="Layer_1" xmlns="http://www.w3.org/2000/svg" xmlns:xlink="http://www.w3.org/1999/xlink" x="0px" y="0px"
	 viewBox="0 0 283.5 283.5" style="enable-background:new 0 0 283.5 283.5;" xml:space="preserve">
<style type="text/css">
	.st0{fill:#6F7273;}
	.st1{fill:#FFFFFF;}
</style>
<circle class="st0" cx="141.7" cy="141.7" r="141.7"/>
<g>
	<path class="st1" d="M88.5,136.7h9.6c5.3,0,10-0.9,14-2.8c4-1.9,7-4.5,9.1-7.8c2.1-3.3,3.1-7.1,3.1-11.4c0-7.2-2-12.9-6.1-17
		c-4.1-4.1-9.9-6.1-17.6-6.1c-7.2,0-13.2,2.1-17.8,6.4c-4.6,4.3-6.9,9.9-6.9,16.9h-9.3c0-5.8,1.5-11.2,4.4-16
		c2.9-4.8,7-8.6,12.2-11.2c5.2-2.6,11-4,17.4-4c10.2,0,18.3,2.8,24.2,8.4c5.9,5.6,8.8,13.2,8.8,22.9c0,5.4-1.7,10.4-5.2,15
		c-3.4,4.6-8.2,8-14.1,10.3c7,2,12.3,5.3,16,10.1c3.6,4.8,5.4,10.5,5.4,17.1c0,9.7-3.2,17.4-9.5,23.3c-6.3,5.9-14.7,8.8-25.3,8.8
		c-6.7,0-12.9-1.3-18.5-4c-5.6-2.7-9.9-6.4-13-11.3c-3.1-4.8-4.6-10.5-4.6-16.9h9.3c0,7.2,2.5,13,7.5,17.6c5,4.5,11.4,6.8,19.3,6.8
		c8,0,14.2-2.1,18.7-6.2c4.5-4.1,6.7-10.1,6.7-17.9c0-7.5-2.4-13.3-7.2-17.3c-4.8-4-11.9-6-21.4-6h-9.3V136.7z"/>
	<path class="st1" d="M218.6,198.2h-70.7V191l38.7-43.9c6.4-7.4,10.9-13.5,13.3-18.3c2.5-4.8,3.7-9.5,3.7-14
		c0-7.1-2.1-12.8-6.3-16.9c-4.2-4.2-9.9-6.2-17.3-6.2c-7.6,0-13.7,2.4-18.4,7.3c-4.7,4.9-7,11.2-7,18.9h-9.2
		c0-6.4,1.4-12.1,4.3-17.4c2.9-5.2,6.9-9.3,12.2-12.3c5.3-3,11.3-4.5,18.1-4.5c10.3,0,18.4,2.7,24.2,8.1s8.7,12.8,8.7,22.2
		c0,5.3-1.6,11-4.9,17.3c-3.3,6.3-9.1,14.1-17.3,23.4l-31.5,35.6h59.3V198.2z"/>
</g>
</svg>
