<?xml version="1.0" encoding="utf-8"?>
<!-- Generator: Adobe Illustrator 21.0.2, SVG Export Plug-In . SVG Version: 6.00 Build 0)  -->
<svg version="1.1" id="Layer_1" xmlns="http://www.w3.org/2000/svg" xmlns:xlink="http://www.w3.org/1999/xlink" x="0px" y="0px"
	 viewBox="0 0 283.5 283.5" style="enable-background:new 0 0 283.5 283.5;" xml:space="preserve">
<style type="text/css">
	.st0{fill:#7F5923;}
	.st1{fill:#FFFFFF;}
</style>
<circle class="st0" cx="141.7" cy="141.7" r="141.7"/>
<g>
	<path class="st1" d="M89.2,136.7h9.6c5.3,0,10-0.9,14-2.8c4-1.9,7-4.5,9.1-7.8c2.1-3.3,3.1-7.1,3.1-11.4c0-7.2-2-12.9-6.1-17
		c-4.1-4.1-9.9-6.1-17.6-6.1c-7.2,0-13.2,2.1-17.8,6.4c-4.6,4.3-6.9,9.9-6.9,16.9h-9.3c0-5.8,1.5-11.2,4.4-16
		c2.9-4.8,7-8.6,12.2-11.2c5.2-2.6,11-4,17.4-4c10.2,0,18.3,2.8,24.2,8.4c5.9,5.6,8.8,13.2,8.8,22.9c0,5.4-1.7,10.4-5.2,15
		c-3.4,4.6-8.2,8-14.1,10.3c7,2,12.3,5.3,16,10.1c3.6,4.8,5.4,10.5,5.4,17.1c0,9.7-3.2,17.4-9.5,23.3c-6.3,5.9-14.7,8.8-25.3,8.8
		c-6.7,0-12.9-1.3-18.5-4c-5.6-2.7-9.9-6.4-13-11.3c-3.1-4.8-4.6-10.5-4.6-16.9h9.3c0,7.2,2.5,13,7.5,17.6c5,4.5,11.4,6.8,19.3,6.8
		c8,0,14.2-2.1,18.7-6.2c4.5-4.1,6.7-10.1,6.7-17.9c0-7.5-2.4-13.3-7.2-17.3c-4.8-4-11.9-6-21.4-6h-9.3V136.7z"/>
	<path class="st1" d="M203.3,84.5v8.1h-1.1c-13.5,0-24.1,4-31.9,11.9c-7.8,7.9-12,19-12.9,33.1c3.1-4.3,7.1-7.6,11.9-10
		c4.8-2.4,10.2-3.5,16.1-3.5c9.9,0,17.8,3.4,23.7,10.3c5.9,6.8,8.8,15.8,8.8,26.9c0,7.3-1.4,14-4.1,19.8
		c-2.7,5.9-6.7,10.5-11.8,13.8c-5.1,3.3-11,4.9-17.5,4.9c-10.8,0-19.6-3.9-26.4-11.7S148,170,148,157.6v-9.3
		c0-20.2,4.6-35.8,13.8-46.9c9.2-11.1,22.2-16.7,39.1-16.9H203.3z M184,132.1c-5.9,0-11.4,1.7-16.5,5.2s-8.5,7.9-10.2,13.3v7.9
		c0,9.8,2.5,17.8,7.6,24c5,6.2,11.6,9.3,19.6,9.3c7.2,0,13.1-2.9,17.6-8.6s6.7-13,6.7-21.7c0-8.9-2.2-16-6.7-21.4
		C197.6,134.8,191.6,132.1,184,132.1z"/>
</g>
</svg>
