<?xml version="1.0" encoding="utf-8"?>
<!-- Generator: Adobe Illustrator 21.0.2, SVG Export Plug-In . SVG Version: 6.00 Build 0)  -->
<svg version="1.1" id="Layer_1" xmlns="http://www.w3.org/2000/svg" xmlns:xlink="http://www.w3.org/1999/xlink" x="0px" y="0px"
	 viewBox="0 0 283.5 283.5" style="enable-background:new 0 0 283.5 283.5;" xml:space="preserve">
<style type="text/css">
	.st0{fill:#BFBFB9;}
</style>
<circle class="st0" cx="141.7" cy="141.7" r="141.7"/>
<g>
	<path d="M111.6,139.6l5.5-55h56.4v8.6h-48.4l-4,38.1c6-4.1,13.1-6.2,21.2-6.2c10.2,0,18.3,3.3,24.3,9.9c6,6.6,9.1,15.4,9.1,26.4
		c0,11.9-2.9,21.1-8.8,27.7c-5.9,6.6-14.2,9.8-24.9,9.8c-9.8,0-17.8-2.7-23.9-8.2c-6.1-5.5-9.6-13.1-10.5-23h8.9
		c0.9,7.7,3.5,13.5,7.8,17.5c4.3,4,10.2,5.9,17.6,5.9c8.1,0,14.1-2.6,18.3-7.7c4.1-5.1,6.2-12.4,6.2-21.9c0-8.3-2.3-15-6.9-20.2
		c-4.6-5.2-10.9-7.8-18.8-7.8c-4.4,0-8.2,0.6-11.5,1.7c-3.3,1.1-6.7,3.3-10.3,6.5L111.6,139.6z"/>
</g>
</svg>
