<?xml version="1.0" encoding="utf-8"?>
<!-- Generator: Adobe Illustrator 21.0.2, SVG Export Plug-In . SVG Version: 6.00 Build 0)  -->
<svg version="1.1" id="Layer_1" xmlns="http://www.w3.org/2000/svg" xmlns:xlink="http://www.w3.org/1999/xlink" x="0px" y="0px"
	 viewBox="0 0 283.5 283.5" style="enable-background:new 0 0 283.5 283.5;" xml:space="preserve">
<style type="text/css">
	.st0{fill:#BFBFB9;}
</style>
<circle class="st0" cx="141.7" cy="141.7" r="141.7"/>
<g>
	<path d="M72.1,140l5.5-55H134v8.6H85.6l-4,38.1c6-4.1,13.1-6.2,21.2-6.2c10.2,0,18.3,3.3,24.3,9.9c6,6.6,9.1,15.4,9.1,26.4
		c0,11.9-2.9,21.1-8.8,27.7c-5.9,6.6-14.2,9.8-24.9,9.8c-9.8,0-17.8-2.7-23.9-8.2c-6.1-5.5-9.6-13.1-10.5-23h8.9
		c0.9,7.7,3.5,13.5,7.8,17.5c4.3,4,10.2,5.9,17.6,5.9c8.1,0,14.1-2.6,18.3-7.7c4.1-5.1,6.2-12.4,6.2-21.9c0-8.3-2.3-15-6.9-20.2
		c-4.6-5.2-10.9-7.8-18.8-7.8c-4.4,0-8.2,0.6-11.5,1.7c-3.3,1.1-6.7,3.3-10.3,6.5L72.1,140z"/>
	<path d="M200.6,84.1v8.1h-1.1c-13.5,0-24.1,4-31.9,11.9c-7.8,7.9-12,19-12.9,33.1c3.1-4.3,7.1-7.6,11.9-10
		c4.8-2.4,10.2-3.5,16.1-3.5c9.9,0,17.8,3.4,23.7,10.3c5.9,6.8,8.8,15.8,8.8,26.9c0,7.3-1.4,14-4.1,19.8
		c-2.7,5.9-6.7,10.5-11.8,13.8c-5.1,3.3-11,4.9-17.5,4.9c-10.8,0-19.6-3.9-26.4-11.7s-10.2-17.9-10.2-30.3V148
		c0-20.2,4.6-35.8,13.8-46.9c9.2-11.1,22.2-16.7,39.1-16.9H200.6z M181.3,131.8c-5.9,0-11.4,1.7-16.5,5.2s-8.5,7.9-10.2,13.3v7.9
		c0,9.8,2.5,17.8,7.6,24c5,6.2,11.6,9.3,19.6,9.3c7.2,0,13.1-2.9,17.6-8.6s6.7-13,6.7-21.7c0-8.9-2.2-16-6.7-21.4
		C194.9,134.5,188.9,131.8,181.3,131.8z"/>
</g>
</svg>
