<?xml version="1.0" encoding="utf-8"?>
<!-- Generator: Adobe Illustrator 21.0.2, SVG Export Plug-In . SVG Version: 6.00 Build 0)  -->
<svg version="1.1" id="Layer_1" xmlns="http://www.w3.org/2000/svg" xmlns:xlink="http://www.w3.org/1999/xlink" x="0px" y="0px"
	 viewBox="0 0 283.5 283.5" style="enable-background:new 0 0 283.5 283.5;" xml:space="preserve">
<style type="text/css">
	.st0{fill:#0477AF;}
	.st1{fill:#FFFFFF;}
</style>
<circle class="st0" cx="141.7" cy="141.7" r="141.7"/>
<g>
	<path class="st1" d="M103.8,156.9H74.5v42h-8.6V98.2h32.7c10.7,0,19.1,2.6,25.2,7.8c6,5.2,9.1,12.5,9.1,21.8
		c0,6.5-1.9,12.1-5.7,17.1c-3.8,4.9-8.9,8.3-15.2,10.2l25.2,42.9v0.9h-9.1L103.8,156.9z M74.5,149.7h26.1c7.2,0,12.9-2,17.2-6.1
		c4.3-4.1,6.5-9.3,6.5-15.8c0-7.1-2.3-12.6-6.8-16.6c-4.5-3.9-10.9-5.9-19-5.9h-24V149.7z"/>
	<path class="st1" d="M217.6,198.9h-70.7v-7.1l38.7-43.9c6.4-7.4,10.9-13.5,13.3-18.3c2.5-4.8,3.7-9.5,3.7-14
		c0-7.1-2.1-12.8-6.3-16.9c-4.2-4.2-9.9-6.2-17.3-6.2c-7.6,0-13.7,2.4-18.4,7.3c-4.7,4.9-7,11.2-7,18.9h-9.2
		c0-6.4,1.4-12.1,4.3-17.4c2.9-5.2,6.9-9.3,12.2-12.3c5.3-3,11.3-4.5,18.1-4.5c10.3,0,18.4,2.7,24.2,8.1s8.7,12.8,8.7,22.2
		c0,5.3-1.6,11-4.9,17.3c-3.3,6.3-9.1,14.1-17.3,23.4l-31.5,35.6h59.3V198.9z"/>
</g>
</svg>
