<?xml version="1.0" encoding="utf-8"?>
<!-- Generator: Adobe Illustrator 21.0.2, SVG Export Plug-In . SVG Version: 6.00 Build 0)  -->
<svg version="1.1" id="Layer_1" xmlns="http://www.w3.org/2000/svg" xmlns:xlink="http://www.w3.org/1999/xlink" x="0px" y="0px"
	 viewBox="0 0 283.5 283.5" style="enable-background:new 0 0 283.5 283.5;" xml:space="preserve">
<style type="text/css">
	.st0{fill:#0477AF;}
	.st1{fill:#FFFFFF;}
</style>
<circle class="st0" cx="141.7" cy="141.7" r="141.7"/>
<g>
	<path class="st1" d="M101.8,156.1H72.5v42H64V97.4h32.7c10.7,0,19.1,2.6,25.2,7.8c6,5.2,9.1,12.5,9.1,21.8c0,6.5-1.9,12.1-5.7,17.1
		c-3.8,4.9-8.9,8.3-15.2,10.2l25.2,42.9v0.9h-9.1L101.8,156.1z M72.5,149h26.1c7.2,0,12.9-2,17.2-6.1c4.3-4.1,6.5-9.3,6.5-15.8
		c0-7.1-2.3-12.6-6.8-16.6c-4.5-3.9-10.9-5.9-19-5.9h-24V149z"/>
	<path class="st1" d="M201.9,161.8h17.6v7.8h-17.6v28.5h-9.3v-28.5h-53.1v-5.3l52.2-79.1h10.2V161.8z M150.9,161.8h41.7V97.3
		l-4.1,7.1L150.9,161.8z"/>
</g>
</svg>
