<?xml version="1.0" encoding="utf-8"?>
<!-- Generator: Adobe Illustrator 21.0.2, SVG Export Plug-In . SVG Version: 6.00 Build 0)  -->
<svg version="1.1" id="Layer_1" xmlns="http://www.w3.org/2000/svg" xmlns:xlink="http://www.w3.org/1999/xlink" x="0px" y="0px"
	 viewBox="0 0 283.5 283.5" style="enable-background:new 0 0 283.5 283.5;" xml:space="preserve">
<style type="text/css">
	.st0{fill:#0477AF;}
	.st1{fill:#FFFFFF;}
</style>
<circle class="st0" cx="141.7" cy="141.7" r="141.7"/>
<g>
	<path class="st1" d="M103.9,155.4H74.6v42H66V96.6h32.7c10.7,0,19.1,2.6,25.2,7.8c6,5.2,9.1,12.5,9.1,21.8c0,6.5-1.9,12.1-5.7,17.1
		c-3.8,4.9-8.9,8.3-15.2,10.2l25.2,42.9v0.9h-9.1L103.9,155.4z M74.6,148.2h26.1c7.2,0,12.9-2,17.2-6.1c4.3-4.1,6.5-9.3,6.5-15.8
		c0-7.1-2.3-12.6-6.8-16.6c-4.5-3.9-10.9-5.9-19-5.9h-24V148.2z"/>
	<path class="st1" d="M153.3,139.6l5.5-55h56.4v8.6h-48.4l-4,38.1c6-4.1,13.1-6.2,21.2-6.2c10.2,0,18.3,3.3,24.3,9.9
		c6,6.6,9.1,15.4,9.1,26.4c0,11.9-2.9,21.1-8.8,27.7c-5.9,6.6-14.2,9.8-24.9,9.8c-9.8,0-17.8-2.7-23.9-8.2
		c-6.1-5.5-9.6-13.1-10.5-23h8.9c0.9,7.7,3.5,13.5,7.8,17.5c4.3,4,10.2,5.9,17.6,5.9c8.1,0,14.1-2.6,18.3-7.7
		c4.1-5.1,6.2-12.4,6.2-21.9c0-8.3-2.3-15-6.9-20.2c-4.6-5.2-10.9-7.8-18.8-7.8c-4.4,0-8.2,0.6-11.5,1.7c-3.3,1.1-6.7,3.3-10.3,6.5
		L153.3,139.6z"/>
</g>
</svg>
