<?xml version="1.0" encoding="utf-8"?>
<!-- Generator: Adobe Illustrator 21.0.2, SVG Export Plug-In . SVG Version: 6.00 Build 0)  -->
<svg version="1.1" id="Layer_1" xmlns="http://www.w3.org/2000/svg" xmlns:xlink="http://www.w3.org/1999/xlink" x="0px" y="0px"
	 viewBox="0 0 283.5 283.5" style="enable-background:new 0 0 283.5 283.5;" xml:space="preserve">
<style type="text/css">
	.st0{fill:#0477AF;}
	.st1{fill:#FFFFFF;}
</style>
<circle class="st0" cx="141.7" cy="141.7" r="141.7"/>
<g>
	<path class="st1" d="M104.4,155.8H75.1v42h-8.6V97h32.7c10.7,0,19.1,2.6,25.2,7.8c6,5.2,9.1,12.5,9.1,21.8c0,6.5-1.9,12.1-5.7,17.1
		c-3.8,4.9-8.9,8.3-15.2,10.2l25.2,42.9v0.9h-9.1L104.4,155.8z M75.1,148.6h26.1c7.2,0,12.9-2,17.2-6.1c4.3-4.1,6.5-9.3,6.5-15.8
		c0-7.1-2.3-12.6-6.8-16.6c-4.5-3.9-10.9-5.9-19-5.9h-24V148.6z"/>
	<path class="st1" d="M202.3,84.1v8.1h-1.1c-13.5,0-24.1,4-31.9,11.9c-7.8,7.9-12,19-12.9,33.1c3.1-4.3,7.1-7.6,11.9-10
		c4.8-2.4,10.2-3.5,16.1-3.5c9.9,0,17.8,3.4,23.7,10.3c5.9,6.8,8.8,15.8,8.8,26.9c0,7.3-1.4,14-4.1,19.8
		c-2.7,5.9-6.7,10.5-11.8,13.8c-5.1,3.3-11,4.9-17.5,4.9c-10.8,0-19.6-3.9-26.4-11.7S147,169.7,147,157.3V148
		c0-20.2,4.6-35.8,13.8-46.9C170,90,183,84.3,199.9,84.1H202.3z M183,131.8c-5.9,0-11.4,1.7-16.5,5.2s-8.5,7.9-10.2,13.3v7.9
		c0,9.8,2.5,17.8,7.6,24c5,6.2,11.6,9.3,19.6,9.3c7.2,0,13.1-2.9,17.6-8.6s6.7-13,6.7-21.7c0-8.9-2.2-16-6.7-21.4
		C196.6,134.5,190.5,131.8,183,131.8z"/>
</g>
</svg>
