<?xml version="1.0" encoding="utf-8"?>
<!-- Generator: Adobe Illustrator 21.0.2, SVG Export Plug-In . SVG Version: 6.00 Build 0)  -->
<svg version="1.1" id="Layer_1" xmlns="http://www.w3.org/2000/svg" xmlns:xlink="http://www.w3.org/1999/xlink" x="0px" y="0px"
	 viewBox="0 0 283.5 283.5" style="enable-background:new 0 0 283.5 283.5;" xml:space="preserve">
<style type="text/css">
	.st0{fill:#0477AF;}
	.st1{fill:#FFFFFF;}
</style>
<circle class="st0" cx="141.7" cy="141.7" r="141.7"/>
<g>
	<path class="st1" d="M88.4,149.1H63.2v36.1h-7.4V98.6H84c9.2,0,16.5,2.2,21.7,6.7c5.2,4.5,7.8,10.7,7.8,18.8
		c0,5.5-1.6,10.4-4.9,14.7c-3.3,4.2-7.6,7.2-13.1,8.8l21.7,36.9v0.8h-7.8L88.4,149.1z M63.2,142.9h22.4c6.1,0,11.1-1.7,14.8-5.2
		c3.7-3.5,5.6-8,5.6-13.6c0-6.1-1.9-10.9-5.8-14.2c-3.9-3.4-9.3-5.1-16.4-5.1H63.2V142.9z"/>
	<path class="st1" d="M174,160.9h-39.3l-8.9,24.3h-7.7l32.8-86.7h7l32.8,86.7H183L174,160.9z M137,154.7h34.8l-17.4-47.2L137,154.7z
		"/>
	<path class="st1" d="M227.6,185.2h-7.1v-78.1l-23.6,8.7v-6.7l29.5-11h1.2V185.2z"/>
</g>
</svg>
