<?xml version="1.0" encoding="utf-8"?>
<!-- Generator: Adobe Illustrator 21.0.2, SVG Export Plug-In . SVG Version: 6.00 Build 0)  -->
<svg version="1.1" id="Layer_1" xmlns="http://www.w3.org/2000/svg" xmlns:xlink="http://www.w3.org/1999/xlink" x="0px" y="0px"
	 viewBox="0 0 283.5 283.5" style="enable-background:new 0 0 283.5 283.5;" xml:space="preserve">
<style type="text/css">
	.st0{fill:#0477AF;}
	.st1{fill:#FFFFFF;}
</style>
<circle class="st0" cx="141.7" cy="141.7" r="141.7"/>
<g>
	<path class="st1" d="M78.9,148.9H53.7v36.1h-7.4V98.4h28.2c9.2,0,16.5,2.2,21.7,6.7c5.2,4.5,7.8,10.7,7.8,18.8
		c0,5.5-1.6,10.4-4.9,14.7c-3.3,4.2-7.6,7.2-13.1,8.8l21.7,36.9v0.8h-7.8L78.9,148.9z M53.7,142.7h22.4c6.1,0,11.1-1.7,14.8-5.2
		c3.7-3.5,5.6-8,5.6-13.6c0-6.1-1.9-10.9-5.8-14.2c-3.9-3.4-9.3-5.1-16.4-5.1H53.7V142.7z"/>
	<path class="st1" d="M164.6,160.7h-39.3l-8.9,24.3h-7.7l32.8-86.7h7l32.8,86.7h-7.6L164.6,160.7z M127.5,154.5h34.8l-17.4-47.2
		L127.5,154.5z"/>
	<path class="st1" d="M200.9,137.9h7.4c4.1,0,7.7-0.7,10.7-2.2c3.1-1.4,5.4-3.4,7-6c1.6-2.5,2.4-5.4,2.4-8.7c0-5.6-1.6-9.9-4.7-13
		c-3.1-3.1-7.6-4.7-13.5-4.7c-5.6,0-10.1,1.6-13.7,4.9c-3.6,3.3-5.3,7.6-5.3,12.9H184c0-4.5,1.1-8.6,3.4-12.3
		c2.3-3.7,5.4-6.6,9.4-8.6c4-2,8.5-3,13.3-3c7.9,0,14,2.1,18.6,6.4s6.8,10.2,6.8,17.6c0,4.2-1.3,8-4,11.5c-2.6,3.5-6.3,6.1-10.9,7.9
		c5.4,1.5,9.5,4.1,12.3,7.8c2.8,3.7,4.2,8,4.2,13.1c0,7.4-2.4,13.4-7.3,17.9c-4.8,4.5-11.3,6.8-19.4,6.8c-5.2,0-9.9-1-14.2-3.1
		c-4.3-2.1-7.6-4.9-10-8.7c-2.4-3.7-3.5-8-3.5-12.9h7.1c0,5.5,1.9,10,5.8,13.5c3.8,3.5,8.8,5.2,14.8,5.2c6.1,0,10.9-1.6,14.4-4.7
		c3.4-3.2,5.1-7.7,5.1-13.7c0-5.8-1.9-10.2-5.6-13.3s-9.2-4.6-16.4-4.6h-7.1V137.9z"/>
</g>
</svg>
