<?xml version="1.0" encoding="utf-8"?>
<!-- Generator: Adobe Illustrator 21.0.2, SVG Export Plug-In . SVG Version: 6.00 Build 0)  -->
<svg version="1.1" id="Layer_1" xmlns="http://www.w3.org/2000/svg" xmlns:xlink="http://www.w3.org/1999/xlink" x="0px" y="0px"
	 viewBox="0 0 283.5 283.5" style="enable-background:new 0 0 283.5 283.5;" xml:space="preserve">
<style type="text/css">
	.st0{fill:#0477AF;}
	.st1{fill:#FFFFFF;}
</style>
<circle class="st0" cx="141.7" cy="141.7" r="141.7"/>
<g>
	<path class="st1" d="M77.9,148.3H52.7v36.1h-7.4V97.8h28.2c9.2,0,16.5,2.2,21.7,6.7c5.2,4.5,7.8,10.7,7.8,18.8
		c0,5.5-1.6,10.4-4.9,14.7c-3.3,4.2-7.6,7.2-13.1,8.8l21.7,36.9v0.8h-7.8L77.9,148.3z M52.7,142.1h22.4c6.1,0,11.1-1.7,14.8-5.2
		c3.7-3.5,5.6-8,5.6-13.6c0-6.1-1.9-10.9-5.8-14.2c-3.9-3.4-9.3-5.1-16.4-5.1H52.7V142.1z"/>
	<path class="st1" d="M163.6,160.1h-39.3l-8.9,24.3h-7.7l32.8-86.7h7l32.8,86.7h-7.6L163.6,160.1z M126.5,153.9h34.8l-17.4-47.2
		L126.5,153.9z"/>
	<path class="st1" d="M188.8,140.1l4.2-42.3h43.3v6.6h-37.2l-3,29.3c4.6-3.2,10.1-4.8,16.3-4.8c7.8,0,14,2.5,18.7,7.6
		c4.6,5.1,7,11.8,7,20.3c0,9.1-2.3,16.2-6.8,21.2c-4.5,5-10.9,7.6-19.1,7.6c-7.5,0-13.6-2.1-18.3-6.3c-4.7-4.2-7.4-10.1-8-17.7h6.8
		c0.7,5.9,2.7,10.4,6,13.4s7.8,4.6,13.5,4.6c6.2,0,10.9-2,14-5.9s4.7-9.5,4.7-16.8c0-6.3-1.8-11.5-5.3-15.5c-3.5-4-8.4-6-14.5-6
		c-3.4,0-6.3,0.4-8.8,1.3c-2.5,0.9-5.1,2.5-7.9,5L188.8,140.1z"/>
</g>
</svg>
