<?xml version="1.0" encoding="utf-8"?>
<!-- Generator: Adobe Illustrator 21.0.2, SVG Export Plug-In . SVG Version: 6.00 Build 0)  -->
<svg version="1.1" id="Layer_1" xmlns="http://www.w3.org/2000/svg" xmlns:xlink="http://www.w3.org/1999/xlink" x="0px" y="0px"
	 viewBox="0 0 283.5 283.5" style="enable-background:new 0 0 283.5 283.5;" xml:space="preserve">
<style type="text/css">
	.st0{fill:#0477AF;}
	.st1{fill:#FFFFFF;}
</style>
<circle class="st0" cx="141.7" cy="141.7" r="141.7"/>
<g>
	<path class="st1" d="M78.3,148.7H53.1v36.1h-7.4V98.1h28.2c9.2,0,16.5,2.2,21.7,6.7c5.2,4.5,7.8,10.7,7.8,18.8
		c0,5.5-1.6,10.4-4.9,14.7c-3.3,4.2-7.6,7.2-13.1,8.8l21.7,36.9v0.8h-7.8L78.3,148.7z M53.1,142.5h22.4c6.1,0,11.1-1.7,14.8-5.2
		c3.7-3.5,5.6-8,5.6-13.6c0-6.1-1.9-10.9-5.8-14.2c-3.9-3.4-9.3-5.1-16.4-5.1H53.1V142.5z"/>
	<path class="st1" d="M164,160.4h-39.3l-8.9,24.3H108l32.8-86.7h7l32.8,86.7H173L164,160.4z M126.9,154.3h34.8l-17.4-47.2
		L126.9,154.3z"/>
	<path class="st1" d="M226.5,97.5v6.2h-0.8c-10.4,0-18.5,3.1-24.5,9.2c-6,6.1-9.2,14.6-9.9,25.4c2.4-3.3,5.4-5.8,9.1-7.6
		c3.7-1.8,7.8-2.7,12.4-2.7c7.6,0,13.7,2.6,18.2,7.9c4.5,5.3,6.8,12.1,6.8,20.6c0,5.6-1.1,10.7-3.2,15.2c-2.1,4.5-5.1,8-9,10.6
		c-3.9,2.5-8.4,3.8-13.5,3.8c-8.3,0-15-3-20.2-9c-5.2-6-7.8-13.8-7.8-23.3v-7.1c0-15.5,3.5-27.5,10.6-36c7.1-8.5,17.1-12.8,30.1-13
		H226.5z M211.6,134.1c-4.5,0-8.7,1.3-12.6,4s-6.5,6.1-7.8,10.2v6.1c0,7.5,1.9,13.7,5.8,18.4c3.9,4.8,8.9,7.1,15.1,7.1
		c5.6,0,10-2.2,13.5-6.6c3.4-4.4,5.1-9.9,5.1-16.6c0-6.8-1.7-12.3-5.1-16.4C222.1,136.1,217.5,134.1,211.6,134.1z"/>
</g>
</svg>
