<?xml version="1.0" encoding="utf-8"?>
<!-- Generator: Adobe Illustrator 21.0.2, SVG Export Plug-In . SVG Version: 6.00 Build 0)  -->
<svg version="1.1" id="Layer_1" xmlns="http://www.w3.org/2000/svg" xmlns:xlink="http://www.w3.org/1999/xlink" x="0px" y="0px"
	 viewBox="0 0 283.5 283.5" style="enable-background:new 0 0 283.5 283.5;" xml:space="preserve">
<style type="text/css">
	.st0{fill:#0477AF;}
	.st1{fill:#FFFFFF;}
</style>
<circle class="st0" cx="141.7" cy="141.7" r="141.7"/>
<g>
	<path class="st1" d="M78.3,148.9H53.1v36.1h-7.4V98.4h28.2c9.2,0,16.5,2.2,21.7,6.7c5.2,4.5,7.8,10.7,7.8,18.8
		c0,5.5-1.6,10.4-4.9,14.7c-3.3,4.2-7.6,7.2-13.1,8.8l21.7,36.9v0.8h-7.8L78.3,148.9z M53.1,142.7h22.4c6.1,0,11.1-1.7,14.8-5.2
		c3.7-3.5,5.6-8,5.6-13.6c0-6.1-1.9-10.9-5.8-14.2c-3.9-3.4-9.3-5.1-16.4-5.1H53.1V142.7z"/>
	<path class="st1" d="M164,160.7h-39.3l-8.9,24.3H108l32.8-86.7h7l32.8,86.7h-7.6L164,160.7z M126.9,154.5h34.8l-17.4-47.2
		L126.9,154.5z"/>
	<path class="st1" d="M235.5,120.7c0,4.5-1.3,8.5-3.9,12.1c-2.6,3.6-6.1,6.2-10.4,7.8c5,1.7,9,4.5,12,8.3c3,3.8,4.5,8.2,4.5,13.2
		c0,7.4-2.5,13.3-7.6,17.6c-5,4.3-11.7,6.5-20,6.5c-8.4,0-15.1-2.2-20.1-6.5c-5-4.3-7.5-10.2-7.5-17.7c0-4.9,1.4-9.3,4.3-13.2
		c2.9-3.8,6.9-6.6,11.9-8.3c-4.3-1.7-7.7-4.3-10.2-7.8c-2.5-3.6-3.8-7.6-3.8-12.1c0-7.2,2.3-12.9,6.9-17.1
		c4.6-4.2,10.7-6.4,18.4-6.4s13.8,2.1,18.4,6.4C233.1,107.9,235.5,113.6,235.5,120.7z M230.6,162.1c0-5.4-1.9-9.8-5.8-13.3
		c-3.8-3.5-8.8-5.2-14.8-5.2c-6,0-10.9,1.7-14.7,5.1c-3.8,3.4-5.7,7.9-5.7,13.4c0,5.5,1.8,9.9,5.5,13.2c3.7,3.3,8.7,4.9,15,4.9
		c6.1,0,11.1-1.6,14.8-4.9C228.7,172.1,230.6,167.7,230.6,162.1z M228.3,120.7c0-5-1.7-9.1-5.1-12.4c-3.4-3.3-7.8-5-13.1-5
		c-5.4,0-9.8,1.6-13.1,4.8c-3.4,3.2-5,7.4-5,12.6c0,5.1,1.7,9.2,5,12.3c3.4,3.1,7.7,4.6,13.2,4.6c5.4,0,9.7-1.6,13.1-4.7
		C226.6,129.8,228.3,125.7,228.3,120.7z"/>
</g>
</svg>
