<?xml version="1.0" encoding="utf-8"?>
<!-- Generator: Adobe Illustrator 21.0.2, SVG Export Plug-In . SVG Version: 6.00 Build 0)  -->
<svg version="1.1" id="Layer_1" xmlns="http://www.w3.org/2000/svg" xmlns:xlink="http://www.w3.org/1999/xlink" x="0px" y="0px"
	 viewBox="0 0 283.5 283.5" style="enable-background:new 0 0 283.5 283.5;" xml:space="preserve">
<style type="text/css">
	.st0{fill:#EE7F22;}
</style>
<circle class="st0" cx="141.7" cy="141.7" r="141.7"/>
<g>
	<path d="M76.3,135.7L100.7,99h8.7l-28.7,42.7l29.6,43.9h-8.8l-25.2-37.9L51,185.7h-8.7l29.6-43.9L43.2,99h8.7L76.3,135.7z"/>
	<path d="M150.8,149.5h-25.2v36.1h-7.4V99h28.2c9.2,0,16.5,2.2,21.7,6.7c5.2,4.5,7.8,10.7,7.8,18.8c0,5.5-1.6,10.4-4.9,14.7
		c-3.3,4.2-7.6,7.2-13.1,8.8l21.7,36.9v0.8h-7.8L150.8,149.5z M125.6,143.3h22.4c6.1,0,11.1-1.7,14.8-5.2c3.7-3.5,5.6-8,5.6-13.6
		c0-6.1-1.9-10.9-5.8-14.2s-9.3-5.1-16.4-5.1h-20.7V143.3z"/>
	<path d="M241.2,185.7h-54.3v-5.5l29.7-33.7c4.9-5.7,8.3-10.4,10.2-14c1.9-3.7,2.9-7.3,2.9-10.8c0-5.5-1.6-9.8-4.8-13
		c-3.2-3.2-7.6-4.8-13.3-4.8c-5.8,0-10.5,1.9-14.1,5.6c-3.6,3.7-5.4,8.6-5.4,14.5H185c0-4.9,1.1-9.3,3.3-13.3c2.2-4,5.3-7.2,9.4-9.4
		c4.1-2.3,8.7-3.4,13.9-3.4c7.9,0,14.1,2.1,18.6,6.2c4.5,4.2,6.7,9.8,6.7,17c0,4-1.3,8.5-3.8,13.3c-2.5,4.8-7,10.8-13.3,18
		l-24.2,27.3h45.5V185.7z"/>
</g>
</svg>
